<mxfile host="65bd71144e">
    <diagram id="HIP3nbAZw_EuaXWnEj3U" name="Page-1">
        <mxGraphModel dx="1572" dy="687" grid="1" gridSize="10" guides="1" tooltips="1" connect="1" arrows="1" fold="1" page="1" pageScale="1" pageWidth="850" pageHeight="1100" math="0" shadow="0">
            <root>
                <mxCell id="0"/>
                <mxCell id="1" parent="0"/>
                <mxCell id="7" value="http://ics2o.mths.ca" style="swimlane;whiteSpace=wrap;html=1;" parent="1" vertex="1">
                    <mxGeometry x="40" y="40" width="796" height="480" as="geometry"/>
                </mxCell>
                <mxCell id="8" value="&lt;font style=&quot;font-size: 24px;&quot;&gt;Summation with JS&lt;/font&gt;" style="text;html=1;align=center;verticalAlign=middle;resizable=0;points=[];autosize=1;strokeColor=none;fillColor=none;" vertex="1" parent="7">
                    <mxGeometry x="260" y="40" width="230" height="40" as="geometry"/>
                </mxCell>
                <mxCell id="9" value="Enter an integer to add all number from 1 to that number:" style="text;html=1;align=center;verticalAlign=middle;resizable=0;points=[];autosize=1;strokeColor=none;fillColor=none;" vertex="1" parent="7">
                    <mxGeometry x="20" y="118" width="330" height="30" as="geometry"/>
                </mxCell>
                <mxCell id="10" value="Your number here..." style="whiteSpace=wrap;html=1;align=left;" vertex="1" parent="7">
                    <mxGeometry x="45" y="170" width="205" height="40" as="geometry"/>
                </mxCell>
                <mxCell id="11" value="CHECK" style="rounded=1;whiteSpace=wrap;html=1;" vertex="1" parent="7">
                    <mxGeometry x="60" y="260" width="110" height="50" as="geometry"/>
                </mxCell>
                <mxCell id="12" value="" style="shape=image;verticalLabelPosition=bottom;labelBackgroundColor=default;verticalAlign=top;aspect=fixed;imageAspect=0;image=data:image/png,iVBORw0KGgoAAAANSUhEUgAAAqQAAAGKCAIAAABVasQlAAAAAXNSR0IArs4c6QAAIABJREFUeAHsfQd4VVXWNslNvbnpjRCaNKWLFKUIIZ0OIXQEwTIOooyCNB2abRQHFERRFMGCFUQpokjvBBEIpNFD6u3t1F3Oz75L93cnAuL8M+rHd85znpuTU3Z59z7rXWvttfepp+mbjoCOgI6AjoCOgI7ALY1AvVu6dnrldAR0BHQEdAR0BHQENJ3s9U6gI6AjoCOgI6AjcIsjoJP9Ld7AevV0BHQEdAR0BHQEdLLX+4COgI6AjoCOgI7ALY6ATva3eAPr1dMR0BHQEdAR0BHQyV7vAzoCOgI6AjoCOgK3OAI62d/iDaxXT0dAR0BHQEdAR+APIHvq23Tob1UE9Pa9VVtWr5eOgI7A/14Efp3sKaUIIfhFvg1jrKoqIQRjTAhBCKmqijGGezDGmqYhhLBv84cGHikuLt65c6csy5RSOEMp9b/N/xiSpZRCsv6X/jce8yoTQm5Q6/9FVSM/b9AN3G73e++99/zzz5vNZkIIdAyEkH+NoBchhHgXgh4F3QlO+t//Ox9DhaClbo02+p0B1LPTEdAR+BMi8Otkr2kaMBPwrsvlmjx5cnZ2dmVlJchr4HhFUbgQ5+eB0Xm1McZOpzM/P99kMs2ePdvpdIJkvwGRg5n4p6XG30oGXB8CRuHI/O89AD0MeN3pdD788MOhoaFGo/Gxxx6rrq4Gha9O+0JrEkJsNtsdd9zRuXPnN954A/oM6I51lIPfGRyuX/7O+erZ6QjoCOgI/PcQ+HWyB2kOvx6PZ9q0acHBwaGhoTk5OTabjZMW2HCEEEmSNmzYIEmSoiiqqvrTIcZ4165dDRo0CAwMNBqNy5cvh6fqkIF/bYEYwMzyP/8nOf6tLmuAEUxYf2T+JNX5N4rBrXNFUd5+++3o6OhA3xYSElK/fv2PPvoInED+KcMjiqK8/PLLgYGBBoMhJCRkyZIliqIA2f+xyEDxfmvL+ldQP9YR0BHQEfizIXCzZA9S+MSJE1FRUYGBgQEBASEhIVlZWW63G6xV+CWELFmyJCoqaujQoZcuXSKE+FdYluURI0aEhIQYfFvbtm3Pnz8PzOd/m/8xxtjj8QAN+J//kxwDJfwmclJVtaKiwul03kDF+ZPU7maKAeoLQqi0tLR9+/bQsgaDAVi8devW5eXldboBuAG2b98eHR0dHBwMd4aGhq5fvx5Gf+rcfzPF+A/egxDyeDzgpvpNLfsfLIOelI6AjoCOwH8WgZsiezDfnU7nqFGjwG4LCAgICgpq0qSJKIr+1urevXujo6MDAgKCg4Pvvvtum83GR6kRQmfPnm3ZsqXBYIDH4+LiNm3aRAipra2trq6GO/0FPaX0ypUrbdu2Xbt2LZSBDxDAU7Nnz/7yyy+hDNwHwEdbKaU2m23VqlXbtm3bv3//p59+unTp0mnTpvXr169jx47dunV77LHHKioqQI8Bh7MoiuXl5QUFBR9//PGSJUvefvttl8sFpp6qqufPn9+0adM///nPSZMm5efnd+7cOS4ubuzYsYsXL7bb7UBUPHfeTtxrTQjxer1btmxJSUlp3Ljx7t27wfMB6fP7NU0DjoEqY4wLCgpWrFhx9uxZRVGgnHUc3Rw6jLGiKN9++23//v0HDBhQWFjIB85BqRIEYfXq1UuWLDl9+jT4qyFB0Fr+Df3D3+UTEhJS7+ctICDAYDBER0evWLEC7uE4SJK0fv36hIQE//vr1avXpk0bQRAADQgT4UY2Quijjz764osvysvLOQj8Kle5IAsYLVq9evWnn35aUFDw+eefv/nmm08++eSgQYPuuuuujh07jh49uqCgAGPMI0sgKcBq5syZnTt3rq2t5ZoHLz8flbBYLLt27Vq6dOlDDz2UmZmZlpY2fvz4tWvXqqoKJb+xCuvf1vqxjoCOgI7A74DATZE9WDmVlZUpKSkgxMGynzhxIickQoggCF27dg0JCYF7goODFy9eLIoiH4598cUXuWMgMDAwIiLirbfeKisr69q16xNPPCFJEghrXm1RFBcuXBgSEtK8eXO32w0CFLjZ7Xa3bds2NDR05MiRXq+XEHL48OF33313+fLlL7/88owZM/Ly8ho1ahQTExMREWEymaKjoyMiIoxGY2hoaIhvCwoKCgsLy8zMLCoq2rVr1/PPP9+7d+/Y2NiYmJioqCiTyWQ0Gk0mU3Z29ueff/63v/0tNTUVUgsPD4eBDLBKIdnGjRufPHkSBi/q1IITSVVV1fjx48GcDQkJadmy5e7du8EjUoe8gYegpmazuWPHjkajMSYmpm3btlVVVTD2wVEC5QAekWV59erVSUlJISEhoaGh9evX//rrr0EDgGLU1tbec889RqMxNjZ2+PDh+/btA/QA23+P7AkhO3furF+/vsFg+Jnr60EfMBqNM2bM4AgQQjwez4oVKyIjIw0GQ1BQEL+/Xr16BoPh9OnT0FsUReH6B6X0xx9/bNq0aURERGxs7IQJE2prayFNjPHJkyffeuutN9544+WXX545c+a4ceM6duwYFxcXGRlpNBqjoqIifJt/u4eGhiYkJJw7dw6Q4XVXVfXcuXPJyclGo3HHjh3+YSgcva+++mrw4MHx8fEmkyk8PDwkJCTYtwHaBw4c4AXzV1v9G0s/1hHQEdAR+P0RuCmyxxhLkvThhx8GBQUF/LxFRER8/vnn/kbPiy++aDQag4ODwYsbEBAwYcIEr9cLwtRut3fu3JlfCgwMbNSo0aFDh5YuXRoREZGQkPDtt9+CrclR8Hg8eXl5gYGB0dHRn376KdAA/O7YsQO0itjY2B9//FGW5W7duoH8jYiICAsLCw4ODvp5CwwMhFLx3MG7EBAQEBYWFhcXFx0dHR4eHhYWBpWDcYqgoCB40OjbgoKC4Cm4CmQGjAX5pKSklJSUgPHHq8CZ+PLly3l5eeHh4dzRHRIS0r59e5fLBazm/wggpqqq3W4fNmwYaBWBgYFBQUFff/31Lwc1uHPi+++/T0lJgZJDqerXr79p0yYw/VVVtVqtnTt3DgwMBG0gJiamQYMGL774IoRf1NE5/It0vWNCiMPhGD16dB0zHZAMCwubNWsW5K4oisPhmDFjRkxMDEfSn+y7dOnC/ShgZENbFxUVtWrVCkAICAhISUk5evQocKrL5XryySeBzkHrgkEiGBoICAgARxRvJmg7ODlixAjuJOBG/P79+2NjYwMDA++++26YUKAoisfjOXDgwFNPPZWSkhITEwNZ8MShXaCrtG/fHsJOoXjXA00/ryOgI6Aj8Dsj8OtkD3Rlt9t79uwJhAeyMiEhobq6mjstz549GxUVBTQDnBoYGPjBBx+Ajx0htHPnzvj4+JCQEHg8ODj4scceq6mpeeCBB8Crf+edd164cMHfHrLb7d27dzcYDOHh4cnJyXAV2HTcuHE8l2XLlkmSNHbs2NDQ0ICAAOAPIGNOzP78zQtZr149TgYgu/kvZyNIB5LlqkBQUFBiYmLr1q2bNm0KOgdI/FdeeUUQBMCENyRCaMeOHU2aNDEajQaDITg4mCsK7du3lySpzv2apmGMT506NWnSpMaNG4eGhkIh4Xfu3LngP+DpQwOpqnrp0qVu3boBwlBUiH3r0qXLlStXgM9sNtujjz4KgHOWioyMbNGiBXi2/ZO9mWNKKQRdQo6cvAHJiIiI559/nhCiKEpxcXF2dnZkZCTPNzAwkN9fr169zMxM7t0Bsty8eXN+fn5iYiK0LDScyWTauHEj3KCq6qJFiwBSuMqx5bnwpvRva4PBEBoa+uabb4L5ziPwt27dCiU0Go3vvPOO1+u96vjp06dPTEwMKLKQC2i90Kl4+gaDIS4ubseOHXx85GYA1O/REdAR0BH4HRC4WbIvLy+vX78+l6chISHjxo0DlgKxO2bMGG7TgxAMDQ0tKSmBYGxZlocMGQI3wG9SUtKuXbtqa2sHDBgAUjg8PPzBBx8EoxaM3erq6tTUVLDSTCbTZ599BuetVmtCQgIXslOmTIFh4IiICKAczsrclA8KCmrYsOGdd945ZcqU9957b+vWrT169PC/mT8SFhaWkJDQrFmzO++886WXXoqPjwdqBOswMDCwW7duu3fvrqqqOn/+PJjdnMInTZrk8XgAEHDmq6q6bdu2lJQUbp3zTAMDA9u2bQvDHNyTDDa61+u95557gOaDgoLgWQAfhi0ABz6Rr7y8vLi4ODc3F/QJf80mMDDQZDItW7YMSnXhwoXGjRtDUgA7sDLU+sUXXwRjmlKqquoN+h80K6VUEITx48dzt4c/eYOx27Vr1/3798+dOzchISE0NBRaDdwbXDODp2AoB9wACKHTp083bNgQnOTQB+DXYDC8/fbbUE6M8e7du+vXr8/7HqTPVb2QkJCkpKQOHTqMHz/+jTfe2Llz58KFC3nuKSkpdrudtxchZOLEieB9CQgI6N69e3Fxcc+ePUNDQ0EvBKxgLklSUlLbtm3T09PbtGnTrl279u3bt2vX7u677wa9ClSrGwCoX9IR0BHQEfg9EbgpsocYMW6SBgQEGI3GL774glsw27Zti4iI4KY2yMTGjRtzR+ilS5eaNGnC6TkoKCg/P99isZSXl3fq1Amowmg0zpkzh9MepbSqqqp+/fpg/4WHh3/44YewXI/ZbDaZTNxVO3ToUEEQPB7P3Llz27Vr16ZNm7Zt2z7wwANdu3YNCwsDSktKStqxY4fD4XC73bIsu1yuqVOnQjmBfU0mU7NmzTp06LBhw4YLFy7U1NRYLBa3271y5UqTyRQcHBwbG9uqVStg6NLS0pKSkh49eoSHh0P6wcHBISEhGzduBNsUQhkkSVq5cmVycjKQK9c8OMsmJyefOnWKO5NBP5Bl+cMPP+QuEHiWp9C1a1fuKOaqT48ePRITE2HwIiAgIDY29r777mvSpAmwfkhISN++fe12O8a4qqqqZcuWAQEBERERH3/88eLFi1u0aAH0FhQUFBER8dhjjwmCAKMzN+iIUEGEUFFR0W233QY18md6TreRvi08PJwzJSgxvxyzf/311/0ncD788MOgvcGdkCAkMnPmTK/XC6EkTqdzxYoVbdu2befbBg8ePHnyZIDaYDBERUV9/fXXNpvN5XJJkiQIwrPPPss1g2bNmkFlOd//5S9/4f6hrl277t69u3HjxnWY/o477ti8efOFCxfMZrPVaoVfm81mNpsdDgeoQYDPDQDUL+kI6AjoCPyeCNwU2YuiuHTpUjDUQObGxsZC/Lyqqm63u0OHDiDugV2A1Lt3786XzZk3b15kZCQ3amEMXlXVkpIS4J7AwMDY2NhVq1b526znz5+PjIyE0K3w8PBXXnkFSGjfvn3gpAXRv2rVKnDGut1uq9VqsVhqa2vNZnOXLl3AlAwMDBw9ejSfGgCJfPjhh1AkCBpft27d2bNnz58/X1lZCZHYsCScKIrffffdpEmTPvnkk7vuugtIvbFvCwsLA1IB8ujZs6fVauW0gRCCwHuIHgDcTCZTo0aNGjRoALpRWFhYv379ZFnmahPMILjrrru49QnActM5KSkJcgHNgBBSVFSUmpoKUAQHB0dFRb3wwgtms3njxo1xcXHweEpKysGDB2F8fcCAAQaDITIycs2aNR6Pp7q6esuWLZ06dYLWCQsLe/XVV8Fuvl5HhDYihMiyPH36dNCo6pjpnOwhWc6+UB5eWn/94PXXX+dxeSdPnoyPj4fuBKEV/vEimZmZ0EaAtiAIZrPZYrFYrdbKysonnngC9IOQkJBGjRpBu0OZr8YNTJs2DcpgMBj69OnDBw4gWK9v377cRd+yZcvPP/88MTGRewugPEajsUWLFvPnz6+uruYeDggygK7F+/D1ANTP6wjoCOgI/M4I3BTZOxwOcLaDBA8JCRkxYgTwkyiKCxYsAFFeZ5R02rRpXq+XUlpRUXHbbbeBLxru7NKly+XLlyGEPikpCZJNSEjYsWMHmESwfuru3bt5ylcjq5csWYIQ4vIa6DAhIaGyshKmPMFwPnjC9+7dm5iYCGI9Njb2yy+/lGUZuAFuO3PmTOPGjUF8h4eHt2zZ8i7fvKz2vo1PzQKHttPpLCws5CYpBLiB9x50ke7du1+6dAmctxAYf+zYsebNm/Nah4SE3H777d98883Zs2eLioq6desGnonk5OSysjIAE+hzy5Yt/KmAgIDo6OjVq1eD8Q0IHz16FCxgIJW1a9dGR0eDNhAWFjZ16tSKiorCwsIJEyaA48FgMCQmJm7fvh1mkM+YMQN8M/PmzQNAFEW5fPlydnY2+A+Sk5OvXLlyg8h8aKOrTu+LFy/eeeedvI38mRvoHEZAgO+5IghukgULFjRo0MD/EYjQBCXm6aef5jpEQEBAq1atnnvuubi4OEiqadOmRUVFvKtAi8O/p0+fbtCgARTpauDn66+/zld3hhWfhg8fzt0kY8eOFUURaooxdrlcjRo14iVv1arV9u3bGzZsyCvID4KDg00mU25uLqwSyLUf7pf6ZZzm7/xi69npCOgI6Aj4I3BTZF9RUdG0aVMQgjBlbvXq1cCCO3fu5CKYR7EBxb7//vuKb5s9e3Z4eDh3R8PaeZIkYYxfffVVk8kEllOLFi2A9sBIqqqqmj17Ngh34Lxdu3aBvO7YsSOXyIMGDZIkCaQtOPkhHGzo0KHAzQEBAW3atLl06RJMXudx6Z988gnMA+SDC3zoPSgoqGXLlqtXr+YDwxhjmIwAVYNfqBGM4P74448QJA9S3mw2Z2dnc84OCQnJzs4+c+aMLMsIIVmWP/30UxhfDw8Pz8vLAzRgZlr//v2BVIApX3rpJUEQgFPBSfDss8+azWbuLh4/fjwECYLONGzYsL59+zZu3Jh7zg0GQ+PGjWFWm8vleuaZZwICAsLDw0eMGAGecKD8y5cvp6engwoF69n5dxT/Y4CFEAKT6OrVYxPtoEW6dOly7733+qPETXwYjgkJCWnXrt3u3bs3b97Mi12vXj3usYDFFRo1asRBjouL27NnT2lpKR8viI6O3rBhgyAIHASAXZKk5cuXA+yBgYEpKSkXLlzgdjascwApQ4GfffZZvtSBIAiHDx+OjY2FSwEBAfn5+dXV1Z9//nm7du0gtpTXBRooLi7uq6++4pErvBNCyCT0N3/c9GMdAR0BHYE/CoFfJ3tKaXFxcXR0NCfFqKio48ePI4ROnjzZqlUroAd/Ew3E9FdffSVJ0nfffRcfH899sAaDoVGjRqdPnwZKnjVrFjweGBjYpUuXwsLC06dPf/LJJ6NGjbr77rthfR7gktjY2KqqKoxxeXk5D6G6Oitv6dKl/hPGgIcqKys5W4SGhi5ZskSSJA4xLMjTr18/buFxXoEzYPg+8cQT4DBQVVVRlMmTJ8Nt4CIGcQ+/wcHBvXr1KiwsBJ8wxnjp0qWwcGxQUFBoaGhubm5ZWRloA8CslZWV3bt3B4LklrQsy4cPH4ZwBMgLxtoVRXnkkUf4pLJGjRr16tXrgw8+sNvtbrcbVB+OP1dZAFiDwWAymSZOnAgLFTidTojGDw0NHTZsGBQGHBIOhyMnJweemjhxoizLHLE6B+Csdjgcffv29Z9bHxUVtXr16q1bt/IwBa4PwRhQo0aNlixZcuHCBa/XO3v2bN6jDAbDHXfcwcMdXn31VRith+DE6dOnO51OGJcBd0hwcHC7du369eu3ffv2q+oLD+qsrKy86667YE2nsLCwCRMm+Lc7RIHwCZYBAQEffPBBWVnZd99998wzz+Tm5iYlJfGhmcDAwPfff18URY/Hc+XKlUOHDm3YsOG9995btGhRenp6QkICDOi0adOmrKyM6xN1gNL/1RHQEdAR+JMg8OtkjzH+/vvvOQsGBgYmJiZWVFQcOXKkbdu2wA11xmvh5Jw5c1atWgVyH+QvzASbNWuWx+OhlFZWVvpbgZGRkZ06dUpJSYmLi4N1b/gsMoPB0K1bN/BdHzlyhJv1BoPh+PHj/rP1wJf72WefxcTEwG1NmzY9c+aMv5mlqiqMZ8NYO68C1DE8PDw1NfWFF16orKzkXCgIQqdOnbgjOjIyMjU1NSMjY/LkyWlpafHx8eHh4c2aNSsoKJAkyW639+jRA/zqQUFBzZs3B8c7N4gppbIsf/PNN+CpjoqK+uqrr2A+99ChQ6HYUKoBAwZMnDhxzJgxt99+OydO0DCioqImT55cXFzctGlTzvSgGAGJGgyGsLCwq8P5CxcuhNFljHFFRQXMWTcajbNnzwa4JEkqLS297777jEYj5D558mR/mqzTWcE7smPHjvr163N3TkBAAEyedLvdH330UbNmzUAnCw4OjomJuf322//xj38UFhbCGnlerzc3NxdUQKhO9+7dgexramqaN28OVQgICAgNDX388cdhyUIYPgdtJigoKCQkJDk5eenSpaCTIYR2794dGxsLCSYmJp44ccK/3RFCK1asgEYEXer222+/7bbbEhISjEYjLI/DO0NkZOSRI0fA8wFuAxhkEQShtrZ2165do0aNCgkJMZlMDz/8MIzC+OdVBzH9Xx0BHQEdgT8WgV8ne0mSXnnlFS7TDQZD06ZN16xZ07JlS+4vrbMUGgjx2NhYCEMDlgIxmpqaCsPhlNKDBw/CsmtwCX7BdOPEBkI5NDR0ypQpwDH79+/nZB8TE2O32/0RJISIoti9e3c+d2DhwoUwHY7fZrVaBw0axAufmpr64osvLlq06IUXXnjppZeWLVt2/Phxj8fDx18hkBCIGcz65cuXnzp1qra21mazlZeXz5s3D4YMOnToUF1dXVBQACwYGBgYExOzYsUKGBgGZoVauN3uDz74AIz1sLCwgQMHKory448/woouAEVISAhnX65nwCUY1/joo4927dqVkJDgT/YQT5CQkNC7d+8XX3zxhx9+ANsXzPeTJ09CFlcX0XvttdcURSkpKXn88cfbtGnDjVqY23aDqXdAe6NGjfIfVg8ICLj//vsBakEQioqK3nnnnVdeeWXZsmWbNm26dOkSTDIEr4DT6bz99tu5UhIYGDhq1CiIznv77bd5gAKgDToZnwAJvnS41LRp0127doEzH6ZjANOHhYXl5uaCYsHbXZblvLw8rkbwhRT96R+6TUBAQGpqKiyxx+Mw+Ng/QujKlSvDhw8HtSMrK4vHFep8z9HWD3QEdAT+VAj8OtmLoghj5yBGAwMDrwZsg90MZ4B669Wr16xZs0cffRQmRsMl/ghEloWEhMyYMcPtdoPBBLPaQIgDx9cRu/xkVFTUnj17wM7+7LPPuLxu2bKlKIr+gGKML1++nJSUBFknJCQUFBTUWbXmu+++S05OBjXCZDL9/e9/93q9YB3KsqyqqiAIdrudT6OSJGnWrFm8bG3btnW73VAYi8Xy8ccfwwoEQUFBRqNx165d77//fkxMDKSflZVVVVUFDAehZ6IolpSUzJw5Mzk5GazJoKCgNm3aOJ1OvlYBrCPk78+HgWRehpSUlNdee83tdq9Zs8Z/mgNk2rx58y+//LKmpgY+MQyGKUJIFMW3336bh/ItWrRo5syZbdq04XMWQJPIzc298Xd6KKUej+eee+7hY9gBAQEJCQkff/wxQM3d2qAwQcX5SUqp1WqFwR0ocGBg4JIlS1RVdTgcd9xxB1f1IiMj+doJ/rogdIzu3btv27YNGJ0Qcvny5Xbt2kFvjI2N3bJlS51PNIGGAYlDrwOFjw/Sw7PQc8aPH+9wODjTQwtijL1e77Fjx0aOHMkV2dzcXMDZf8zev0/qxzoCOgI6An84Ar9O9gihvXv38tXx6hiRwLsw+/z777+32WydO3fmwhrIANjFYDC0aNGCB1E7nc6hQ4eCBOe/QUFBsbGxGRkZU6dO5aFSQUFBvXv3hs/rqar6j3/8gzNfz54963ibMcZHjx6FlXAgxspqtdaRwp999hlEAwQEBDRu3HjPnj0XL148c+bMoUOHduzYsXz58sceeywnJ2fq1KlmsxljbLfb+fzAgICAmTNnut3uS5curV69euDAgeA35nVcu3btG2+8AekHBgaOGDHixIkTly5dKisrO3To0MaNG5966qnWrVtHREQAY4GzfcyYMefOnUtISADyA09GdnY2cNLVjwikpKSASgF1b9++vdlsRghNmjQJ5oVz7Qomlw8cOHDbtm3A99wLbbFYcnJygNIgnhwGsDmPwpcMy8rKIL79er2TUup0OmFCAaQWGBg4ZcoUl8t1vUf8z2OMLRYL6ENQQZPJBGb0J598YjQaYaHfq0y/ePHi5ORkMOJhZd/Y2FgY3DEYDNOnT+dMTyk9depUw4YNoTx33HGHxWLh8ZUwiWPz5s3QTOCmAgU0LCysZcuWU6ZMycjI4AGDMTExR48ehRgL1bfB6MyxY8dmzJgByxoC4NHR0cuXLwc3PsTl+ddUP9YR0BHQEfiTIPDrZE8pra2t7dGjB5iVvyT7sLCwe+655/DhwyAW169fzwPsQZTDgH10dPS6detgNVmMcVlZWZs2bTjhBQUFJSQkDB8+/Ouvv66trS0rK4M13mGO9ezZs0GeIoQ++eQTSNZgMHTo0KGOZU8I+e6774Brg4KCNmzYwGexc8Q3bdoE2oDBYDAajampqU2bNm3UqFH9+vXhAydACUaj8YEHHpAk6ciRIzzAsF69enPmzJk7d26bNm0iIyO5WgNx8g0aNDh+/Pi6detAU4GZCykpKU2aNGnUqFFKSgqfIwekDspQcnLy9u3b582bxz0ZKSkp586dO3jw4LRp0x5//PEVK1ZcHfJYuXIlZ6PWrVubzWa323377bdDUpzsge1CQkLAkz9r1qx333338OHDFy5cOHnyJCxtxFUToHmoRVJS0vTp0+EzgDB7kCNW54BS6na7eYAhrJGwZs2aG8zW808BY1xdXW00GnnJBwwYABM3MjMz+crzvXr1AsfJ1TmcM2bMWLdu3cGDBydPngwgBAYGQtQhuA0wxkeOHElMTISJBo899hgfhQFdx+v1Tps2jfuE4EtOV9edLMzwAAAgAElEQVSHWLRoUWlpqSiKU6ZMgYGMgICABg0awAeaIZZz8eLFzzzzzKhRo1JTU2HkgutkGRkZtbW1QPMwTONfU/1YR0BHQEfgT4LATZG9LMs7d+6EiWr+ZB8cHBwZGZmbm1taWsp9xV6vt3///pyWgHvCwsIeffRRu93Ol0j77LPPwNkOfBMdHf3KK69YrVaQ0WVlZXwxk7CwsPz8fHCbE0IuXbrE3QyNGzf2er3+UFJKDx8+HB8fD+OpW7duhcXn/YP4jh071qBBA5DXYN75cwB3TRsMhmbNmjkcjuXLl8NJCH+DyetQL6BYGCZv0KDB+vXrBUG4cOFC69atuR4Ad4Kq5J94cHBwWFjYbbfdtm7dupqamq5du3IKuf/++7k5rqqq0+l87bXXrs41B50jMDCwQ4cONpvN4/EA2QPDDRgwANYz4J4PyBq+LHDHHXe8/vrrTZs2BWR4yAIsKDt06NDt27eLogiMBePT/sD6H8MEyNzcXJ5Ifn5+bW3tTY5Yg7MEpkuA1Q7+/8uXL0dGRvKlA9euXQuxDgDF5cuXFy5cmJKSApgHBwc//PDDsJADhEGcPHmyYcOGMBNyyZIloOTxoEiXywULJPOJgj179iwrK4PxflVVx4wZExoaCq2WnJx8/vx5UCNOnjzJ12zmuhGMs/To0QPmlWiaxgMy/IHSj3UEdAR0BP4kCNwU2WOMry40++STTyYkJHAiCQ8Pb9++/XPPPcf95CBzCSFHjhxJSkriTBARETF48OCamhoYqgenemFhYdOmTSH2Kjg4uGvXrpWVlWC+Y4xramq6dOkCXHX1g7OvvPIKvySKYlpaGtBzVFSU1Wr1h5IQcvUb9rCiHEzoKi4u5l5WuLO6urp3797cjAb5DjQMycLXbxs1avT5558rirJmzRp+D1QfboMUQkNDGzRoMGLEiB9++AG++qMoyrJly5KSkoC8uVoAz4JNGRUVdccdd4wePbqkpERRFJfLBdPeAgICTCbTmjVrYJAYIFUUZf78+eByh5iJhQsXgo/kwQcfBOXjtttuKyws3LdvX3p6emxsLJ9owJWMoKCgu+++u1OnTtxpHxERcXX+fX5+/vfff+90Ov3H1Osg5o8wJ7Z//vOfEFUQHh4Oi+7dJNlD9MCoUaMCAgIiIyPT0tIgHLK2trZBgwYAdXR0NCxSBIxLCDGbzcOGDePrEycmJn755ZdQTii51WqFJQqCgoKaNm1a52uzXq93/PjxvAmCg4PXrl0LQ/KwYsSbb74ZFRUF4ECgJSgKhYWFjRs3Bjy5NnZ1tuQDDzwAJYRa1xkqqoOY/q+OgI6AjsAfi8BNkT0MXrrd7q1bt2ZnZ/fs2bN///4LFiw4d+4ct9T9q6Gq6urVq2Fd2IYNG06cONFisdTx8drt9smTJ8fGxppMpiZNmrz33ntgioH4lmV59+7dzZo1Ax6tqqriq6QpirJ06VL4Lm3nzp0FQfDPGm7729/+FhcXB8PSv/xyLkLo66+/7tChQ2Ji4lWPAnztPj4+PikpKTk5uW3btn379h03blxBQQFE7TmdTtA84KPyYHoCx3fv3n3ChAnHjx+HkAJeEqfTuXjx4latWsXHx8fExECgWVRUVHJycuvWrTMyMpYvX15eXg4LvPOF8xo2bBgfH5+enn7x4kUgD/BnYIxtNlvr1q2joqLi4+PHjh1rNpuhUQ4cONCsWbOrqtXzzz8PUfcWi2XdunU5OTkNGzbk0W3ge+jVq9eqVasSfNvdd9+9cOHC0tLSOgDyKtzgAJz8Fy5c6Nix49V5g506dQLXzk2SPbRRcXHxwIED33rrLQg+AEVw/vz5DRo0SEpKmjBhAiwMAHkBDkePHm3RokVMTExqaurLL7/sdrt5IWE24yeffAJaZkxMzJtvvgmqEnC2LMsbNmxo2rRpaGhodHT0gAED+MeXQZ+wWCzp6enJycndu3c/cOAAX28RPt9gMpkiIiKio6ObN28+cuRIUI+48sqLoR/oCOgI6Aj8ORG4KbLnAhchJAiC0+nkK77xOHP/6sEy44WFhadOnbp48SLYu3WYAEIBXn755enTp8NUN1jfHowtcBSfPXv2auA6+JbhPDhdLRbLqlWrVq9eDaZVnawJIS6Xa+PGjdnZ2ffddx84DPzd+JRSRVEqKiq+++67lStXLl26dPXq1du3b//xxx9PnDhRUVEB8wVgLR1Yzq+kpCQrK2v27NnvvPNOmm+bOHFiQUEBEBWUqk4Fr67DU15evnnz5g8++OCNN95YtGjRqlWrjh07dvnyZY/Hw5ddA6ZBCEmSdODAgS1btsDqePChW3/KLywsXLp06Y4dO9xut6qqMCtdFMWDBw/u3LnT/+ttsPLryZMn58yZ07NnzxYtWqSkpLRv337jxo0Oh+PDDz/cuHEjX1veH72bPAaXtaIo33777cqVK3/44QegRn+Qb5AUHyngAXRA/5RSURS/+eabnTt3QuQd73gwrOD1evfs2bNy5cpTp055PB7/LIDXPR7Pjh07srKy8vLy4Otz0DSgK8iy/P3330+ePHnt2rU2mw1aFsoA3dhsNhcUFFitVv+CKYqyfv366dOnP/HEE+++++65c+dASwB/wI1dIP4l1I91BHQEdAT+QAR+nezBbQvij7s94SMxQFQwyu5fBzgDC5GCmOZOaX4byHGQlSDrOWXyXOAqX8YOkoWb/bmfp6lpGiTiX1rIyJ+JgRh4any0FZiVD5aD3Qa3wTEkLvs2jLG/KwIqy0sCJYeMePqc5Pyz5sj4g+n/IOg9UOtf1h2UBkiQ1x1KC2sUulyuK1eulJSUVFZWAiX7V//f4yooBm9BvuLsTZI9VNkfBCBj8BLx8/4NATfAL5yH2zjgHDHomXyxQngEiJmjBxMsIR3+IJ9GzwvAn+UlgUv8Bt57eTH0Ax0BHQEdgT8nAr9O9lc/WH7u3LmzZ8+W+rYzZ86UlZXBv2f9tnN+W2lpKVyBO8vKykpLS4uLi8+ePcvv4gmW+TZ4xD9lyA5+S0pKzpw5U1JSwm+GNEtKSkpLS3ma586d4zecPXuW514na7ittLQUbua//pXiz/IDuJ+XEwpw7tw5no5/7UpKSjgCddCokwJUEHwYvPAlJSVQZqgF5MV/4WTJzxv8CwgDIHWA4hWEFKBgvNh1APQH83rHPB2eHaR5vfv9z3OQ/asDhfEHgV+Fg6KiIv+GgHzLysp4ypBsUVER1B0OODIAFfwLRYUGgpvh2To5QhZQMHgcWooXo6ysDB4vLS0tLy+HDzT8OV9yvVQ6AjoCOgK/TvaFhYWpqamxsbHR+qYjoCNwLQQ6dux4dSFF8Fho+qYjoCOgI/DnQ+DXyb64uLhFixYNGjSAmeIp+qYjoCPgh0CDBg26du165coVPSD/zyff9BLpCOgI/ITAr5M9LBHq9XoFQfB6vaK+6QjoCPghIAiCKIr8k326aNER0BHQEfgTIvDrZA9h4XwpUDBf9F8dAR0BQIAHD9b5BMOf8G3Xi6QjoCPwfxaBmyL7/7Po6BXXEdAR0BHQEdARuAUQ0Mn+FmhEvQo6AjoCOgI6AjoCN0JAJ/sboaNf0xHQEdAR0BHQEbgFENDJ/hZoRL0KOgI6AjoCOgI6AjdCQCf7G6GjX9MR0BHQEdAR0BG4BRDQyf4WaES9CjoCOgI6AjoCOgI3QkAn+xuho1/TEdAR0BHQEdARuAUQ0Mn+FmhEvQo6AjoCOgI6AjoCN0JAJ/sboaNf0xHQEdAR0BHQEbgFENDJ/hZoRL0KOgI6AjoCOgI6AjdCQCf7G6GjX9MR0BHQEdAR0BG4BRDQyf4WaES9CjoCOgI6AjoCOgI3QkAn+xuho1/TEdAR0BHQEdARuAUQ0Mn+FmhEvQo6AjoCOgI6AjoCN0JAJ/sboaNf0xHQEdAR0BHQEbgFENDJ/hZoRL0KOgI6AjoCOgI6AjdCQCf7G6GjX9MR0BHQEdAR0BG4BRDQyf4WaES9CjoCOgI6AjoCOgI3QkAn+xuho1/TEdAR0BHQEdARuAUQ+MPJnmoa/Vcc6fW2f73tt/1HNZ4qYccs0zr53myCPCFK66QAaf77KfMS/Fy8X6bPb7n5gzqJ3PyDN77zZpL9D0Bx40L4NeL/NIvfyV97+rrX/Uv+07FfF/qfvNjRv9uR/DLnHZLldZ3W97v9Nx9CFW6myX5z0r4H/OHSfPjzHH/K9Oc7fv77G/L57xUbCsGLysvEzlxv+0/0Lp6R/wEvxr/k7LvjZwz9rvg/+V8+rtNkdf79/8rcr0L/2Vb2taDvVaKU8Fz+rbLWqe/PKfNE/Q/+A6Lg3yrjzT30B5E91TRCCVVlzSNrXlUTERUVTZI0Uda8iua51u5FVFKpqFBZ0gRZUxRNlYmKCdYo0jCllCCNKIilS6hKKcJEoRoiFBF2s1fUnF7N5tFqPZrZozkEzSVrAtZkoqm+2zCliFBVpRLWCNIo1oiGqYbYe080FbM8MKKqQD1e6hQ1j0pFVZNUTYRd0US/XVA0WdGQSlRMFcqywKzbEdgxoQRTjCnSENF8xVepomoKpqpMRVHzqtSDqJuVjWKqIooxogLWVEJ+6sK+BH3U4DuDiO8mwm5UqeCDVEKE4SlpIqsRYVoO1hArhsKKImuSQlSJSoqmEo3KVCEEU1Za7FNj2Ovn6+k+AHxHmGKkqUiTJdZGkkwFhYiYKAxkiglhNZKprFIFU0WhHlXzIk3BhL1vN9ch69xFfGLX97ivAKyEhBDW7pJCvRJ1I03EVEFEQVTFFFEGEGt9n07ng6ZOkr/2L2ZNIooscVGlgqI5ZM3FIKWizDpe3Z11GCKxDkxl34GsaAKhKkHop2IQTcMMcIVgxHojUTSMNYKxggm72au5fB3S4dVsXs0uaHZJc6iaG1EJU4Q1VhVCEOsJILl8Z3zKB8HsTaIEE5XKHur04aAgKvlelp86p0IF2FUqYk1WNVnWFF+xRaoplKiUIMwyUDGrAsFEo4T1AtZLry+/MEasNTTE+j/1IiJirKhEVqggay5Jc/v6sFeloqSJkiaL7NfD7qSSQhVRU2SN4YZZh5FZ7oQBolLFhxJCmq/YrKcJmDU7RZrig5Jcrw1ZXVjBkaopCms+j0xForHXzadDUaqxN4SyXirIVBDZ7lGpG1MPppLMGlFUfK/etUQQk0tIcyNNxpT1asI6G0v7RhoAy5i1oa9gTIZovvcBadgnGRCiiqQJguYUNbuoWQXN7NasouaRqaASEbOWYj0ca0j29QeKmDhhsoi9ifBqSQoRRM0jaoJERUxkEH2adn2gNEKYKECaSiiTw16ZiDLLCGnsZUbsLUBIY2LKi6mXIFWmssDgcsvUTbCqElak62fBqss6uU/Sa6yPyQoVZSKrmipoTDwyiYTYG8qall63qBp7H5lsZ+1PCKsTZqhTn8RhfwkmVGVAMTkvy0zUuwTN7tGsbibqzYLmEDWPREQml4hCCMIUU421HTQc1lSNFZS1DiFM0qtEUSh7fRgybBdEHz2pPm7y0dY1SErVPFiTWNUYc7C3B1OiauwVvl6P/T3P/zFkz7oqVhy4ogQfOYX3FeGDxfjAGXzwND54Bu8vxgeuuZfg/cVk3xl88BQ5UIiPleHTdmKXCGNrgn1Mw5qfMklBWLMqyCNrTrdmrqClJ/CeXeizL+XXP5BeWCu98KH4zw3iW7vUDSfwvnJa4tLMSPOqqqAqskoFxk8aRhQzWYY1QohCBERlRLy1uPwMKijE+06RA8X4SDE+XMwKz8pf9D/7/tN4z2m8p5gcLCMFl2ihWbvkphaROFUkYwUhLKpEZmSPGdmzN44SD3VdJmXn0PFCfOAE2V+E953DBy+jMzLxUMTEMWIySFZ976jv9VCZzCdMI/FxuKpqqoJVJ669iH48gw+cIQdPk30n8Z6LpEgmgo/skaIxUhRkdwUuK2QFLjiFD5XjUkkTRU3GKqJEBIqC1wAYlkkrJrMoIqqkCeW47DRrryPF6EgFPidij4pUQghmtZJtpKYcnznLMNldhg/VkisKE6+/kex/0jSIBtoJ0w7ZTjFCRKzGF0tRwWm89xTeXYyP1KJyhXE/Iwwmnajs0wZYL2PF/o2brCkeajmHTxfiI6WsN24/Q/aU4sOl+FAxPlj0r3sxPljCLh0uIgcLyZES1h+OniU/OGg1U4MYd/oIk2lJSKVUpqwBRco0WoGaa2jZj3j3DvTFl9Kb64SX1okvrPM+/4V3yXb1g6P4m7PkuIPWKFRk3Rv5NFEmqoivgTBmrYIRE3VYVsVaXH4S7yvFx0rw0WJyxFdg+D1UwgrJ9lJ8sIjsLyL7S8iBMnKwnP5g0c56aK2EPArTEWWsCT7NiTBhiBiZq9eXU4zsCfZS+3l8ohgf8GVx+DQ5dBofOkn2nSJ7i/C+Ery/lHWzg0X4aCE+eoYV40ApPnQGHz1FCk6zch4qwgcK8YHT+HAFLvESq6RJoibZqbkMHy3CBwtZLzruwg6VKhJxUdbE1xOdlBBFxcRFbWdx4WkmWL4vwz/YqJlRIFWZbGBKmOTENWfx8VMs36OnGWIHS/HeUlYGJl6K8N4SvO+aIqgI7z+Dd5zGB8rQ8WpULhGBKcfY1zWv0818tKSyfBmohGKZqgrBVMWKRF12rfIiOfEj2r5L/WSD9/WPvIvXiYs/kl/+QlmxB68/gw9W0RKHVsUsIqIiwqpAmCZDCUWKJqkUY0K91HwJF57E+07gIyX4hB1XyURklWVUe82NMnWHSApRZCRU4NJC1s8PF+JDVeQiIpKCZaZYsA6reOiVC+jYOdZeB34k+wrx3rP4sJNUSlRQkHLd99rHxaqGmdVEVYTdblJVjAt8gB85RnYX4oMV+JKCRJ/djTAj22tuVGOKO1PiMGN8pir5BLNP18LMokNUkKjVrl2+RE6fQvv2oPUb0ap10j+ZnJf/sV5avlf9sggdrqQXXNShEC8hMjO5fGqCxlQnrGoy01uwQpi1qGKkVOJLpfiY75U/UEQOFOFDJ8jBE2TfabK3kOw97RP11+oh+8/gvUX4yBVyTiEejGUM+v2NVJlr1vq/cvIPI3uJun6Qv3u5csoz9tFP2/Lm2obMtA+dZRs+15J/nX34HEfebOfgufbBT9uHLKgdt+zKzFrtokIVpBFZUzGhmqpRghQqqwghVXWSihK8/0vv64udU5+0DHnI0nOsrV2eu+UQsVmep8VYW7uHLN2ftA54xTV1s/jWOXLETatlLKlYwowt2DusUE1i3QGLxK1Qr1ur2GR994WKv8yrHTXHlve0NW+OdcQcWz7fZ9vyYZ9jH/a0Y9DfHUPme0Y/Kzz0qmfOx+KKg+i7S/icFztV4kRUYL2cGaLMGlY0pZyeW1Xz7LPVE+bYhs9w5M+1jVxgHruido5FK5c1kRnjiFmGCpMurOOzl4iRPdN2MWLGCtaQRL0/4O2Lqx99xjp2piv/KfeQubbRq6oX1eAyFQuEIpVgSZMqcenqqvmLLCPn1w5/1jzuC/MrLq1KpiqzQIgC5iNYdD+T/U/+BERkr+Z8v+qV+TVj/24Z9VzVpA+rllXgyyJBzKzGWKTeMvTDyvLpz5uHz7cMfaF64nbhY4/mva5QuFGvpkyHZ2+hz7HNKksRlWroxQ+crz5de98cW/5M69B5lolf2N+uxZU+7mH0QzWFgJeCOVR+M9lLVD6LTr9W/sw866Q5tuFPOQc85Rwy1z5irnX4HOuwOdah/7oPm2XLm+HIn+7Mm+4cPNc2eIF5zKuV086oRzzEiyhCFDNZRTBFCGMiE1WlgksrP0sObJZWLXVN/5stb5I1bbS14whni2Ge1GGu1NH2lhOt3f5qzVnkeOgL74oidMiCykXsVpmqJ/v4l/gMO6yyTqCoVHYR8xbL+wur75tvGTHHMXSOY/hc24inraPYbhs51+rbbSPm2kbMtg9/xj50gX3YAueIZ733vybM+FRYflD97gIudVMrZu4ED6GKz8phegm5PoAYY4WKVfTc8so5883jn7aNnOPIf8o5bKZ9zFP2sU85Rs1yDJ9jHzbXMXSuPW+uffhs25g5tlFP2/PmOIY95cib4Rj5lGPEHEfeXMewOfbhz9SOXVkx7zIulDTRqwk/yAdeqpw6z5w/v3bEK+VTTyn7BM2hEg9jt+txPXtVRYEIp1HB4qq/zbMNn28d+HzV5EPKty7Ngqjs8/0hlbpPy/tevTx9Xu24OZaxcywT5thGznYMneUY8pRz6CxH/kzn0Dn2YXMsv5RFw+dahs+2DZltG7ngyuQtto9sWhXWRKYY4et2NJ83hmlRzHhAhCAmW1Qs2nHFGXTgU89r/3A8NK0ma3Lt3SNsbQa5mg32NM9ztxzmaT7B2WW2ZcRKx6xt8nvnyAkBuYjCPEOIisyV43OoAPFVktK3Kp/+e824uZb7F1Y+slv4ykasKpGZ4X7tjekKMkYiVarIhfeqnl1kHju/ZtSzlkmf2t7waDYJSTKVKMUq9ZYph5denjbfOvIp15AnXUNm2/Ofr35gg2VlNb2sEPm61fa5PICcERUcpPKAvHl+5YMLbBOetg6b6Ri0oHbkF/ZlNq3KpythlYF4nY11dua9ZbXxuR6ZK4gZLYybFeKy0QuFeMcXnqWL7Y9MM+dOtHYb5WyX52o5xNV0qPO20fZ2D9X2nlE1fJlr1lb102JS4OsMKsJYQ0jDKvI5iVkWDDEVM3PHvdn1wQvVD7K3yT5stm+f7hg23TFslm34LNuI2dYR1ySpOZb8Wea8BZaJH1oWu7Va5ilhDeUTY9et3nVq/V84/YeRvVMzfy29db+5S39PYn8xpp8YmSPGDPAkDvQk5ooxv9xzxNhsMSlbiu0nRg7yRg+3pTxekVGlFfqaRxM1zDxbPi0NE9WNnefJ6a/FlfOqRk80dxrsTMn2xGUJcZlybJpsulcO6aOEZMqmHDmmvxg31JU6ydJ5kXniJumds+SEhziQKlFG9lihWPClrLD3U7Bq5960zhpX026IMznHG5PjjcwSYzPFuEwxPovtCT/tQkKOJ66/J3aAJ66/kMCK7W2Y7+g4pbb/MvvTBWiHi1aoxI2Yd56NQPg6nVpCjs+qHj7C2nigNyFLiM3xxA92NZhYcfcxtMNJ7QoWKcJUpQrBks+BpTGph1gHZaooSwlT2a5Vvi88N97SYZC7UZYQnynGDHE2+Xv1mHPosIpdFCOsUpHKpaRgdvmgPHv9oa64kc5G/3RMNmsXmCRhvgzkcxX73GW+V5n5u5gjmfnbGK9o1ucqHxlmbdrfnZRvabmw6uFifEKkkkoIIopIPT+gndOv5Ax31B/sThxjafWuZ75ds5DfqNv6/GuUaoiNo/w0nMAsWlHzHMM7n7QOGeRq1F9IHiCmDLA1nlEzohAfRFj2ESvCzMuJNKoQNkZzXWa4zttEZeo+ruyYWp472N08S0joo0SlSzHZQlyOEJMtXmPPFGPTpPg0KS5NDs/xGvOcKX8t73lE2S4wb6qmsqEfRKjMNEasMP+NdmaLsvI5+8Rxls4DvM0yxJQ0IT5NjMpQjb1RSJoaniFHZkvR/cWEoZ4m4yx3zqod/rm4tJgcslOzQpgI9jUHk/PMs8+8MWoNufR27YJRltsHuOMyJGOWxLpllhCfJSRkexOyvYlZ3sQsISHLm9DPkzDAHT/QE99fSMoRkrPdDfOsbR4x913qeKJA3eqmlQpxq0TyOVhVUJ+vA5SG2dvhvkhOPnold6it6UB3Uj9vbJYYkyMk9/M07OdNzRETsoWYTMmULcZkijFZQmKuJynXG5ctRmWIUZkCK2G2GJ0rRg/0JA61N5tZkXda3StroltzbZM/m1DbdZA7aZgr5YGKe76TPnRrZoIVqjLfyHUkJ8WaJBDXYfX7h6r7DnIkDXbFjjO3+UpZadMqEJGYFw1TQbPvVj5/tCJjiKNhP29CPyE+S4zJEGLSxdgMMSFLSMqQWCv/UgSxM0LsQG9yf3fKiCut36qZX0MvII29jj539LVxUtnAg0KpQAg4ICWJOsrpmc3Synk1IyfWdBrkapwpJmQoMelKVBoy9sFh6XJkLyU0TTL2cyXkO5tOtnR5xTq1QN7mRDUK8+R7EVZ8oxESc6cRpRgfnlaePdDRKMfZaKSl3TphqYXWIEZd1zWXmeKhaDJFZeTEnMv5w22NhzpSRjpbvmB7pFYr943FMIEqEPshZfODFT0Hu5IzpZi+MmvEYZbmc6tGlZCjEtMLr9MUPrJntoOGFc17mRQuNk8bZms1wF1/oDcmW4jKs9Vf7HioWrsgI6xpzOtybfg0lgSjeZWp/T4rh42hIGb6SF5iP0+OrxeWz7aOHGfrNNBZP1OK6qNEpKumvrIxQzZlKZGZUmS2EpvhjR4gpo6337PAdv+3yofltEzQXAQLBMtsNNNn6BONjWAqCNm1mjfdc8c7Wg/wxGVI0elSVJYQlSVGZorRvtcnsZ8Qd53ukZjrSclzNF9QO9GsXRHYWBJhJb9+7a5X6//G+T+M7N2a5Sv0xhhXm3TVlI7D++KQDNWYK0XniqYMNTwDsT3d98uO1fBMJSJLjPIJDlOuN3agI/mh6t5XtB8R9TI1lfl5VKY5K4qI7afwnqXu6ROcnYZ4UvsJ8dmKKUuOyJZicqXkHDEpV0zsJybmiPFZcmymHJUpR+cICYM9De93dl3mnn4c7/ISO2bNxIbTkKaqTKwirEgO7cJrzr8NcTVOV4z3ouA0JSxDjsiUTJliVJYQkyXEZgtx2ew3Nscb1d8bO0CIzxWjMmVjhhqZLsXkeBOH2prPtYw/ir5xkirfmJBP/FCiaKiMHnvCmjvQG5ehhKZhQ29s6KOEDrU3X+N+yaJVK1hGrIoaxljSEGN2HzETKjK9hIUCIIV6zpNji+xjB7mTM+WINByShkNzPfGzzXll+DADinlqNQWrxeTY36qGZHsT06XIfmLSPO/YKu0iIpgQFjTAvOU/O8B9lmKsRP0AACAASURBVD0LQfGdpCqVHJp5fvWDOa6UXqoxx5M4xzyqCO9XqItgmRBJpt4f0d4pldlZ3th0xTTM2+Qtca5bs9xwTK5ux/ZZ9JQNtYIPnw0CMOLHmmilVRvEN++zdMiQjb1JWB8UkS5Fj7V12Ci+6aYWygZHVF8IBNE0CWvibyV7qlFBcxxUN082d8+W4/qgsJ44uK8SkS1FpsumdCXqWntkhhidIcalKRGZTBNNfqi660F1s6i5MfWFWzBXnoiIR8L2MnLsbc+CCZa7BjkaZovxmWpUbyE8XYjKFuJyhfgBQv2B3gYDvEm5oilbCslVI3Ll2P7epDHm1oudfz2IttbSKhZgwUYuwRPpG7dEyEouv2meM9jZOE0J74kNaWpEhmTKlKKyxegcITZHiGc9U2Q9c7A3bpAnoZ83IVOK7i2FpSFTumzqJ0flOZvMrR15VN3iombW51mQCnM++wRt3Qby/c80Tw+1XyInH6lOH+BKzhWickRjphyeLodnCdHZ3vhMMTpLjupFgu6VQ3uhsF4oJF2OyJFiMqVIJoiF6BxvXKYUlSlH5grxAx1NZlTnFaLdkubyarZtytp8Z6veyNhXiRpr77xJXuOhNl80CNObrsMMPuc2Eo6h7yfZemQrMZmKaair6Ub0hkOrIETUmJ+FOjX7NvWjyZbumVJ0HxLchwQyHUsypUmRmVJslhibLpsy5cgMZAQpBPKHCSUmhUy5noRsIXFE7e1v1syrpZd9ISnsXbwmRprPqPMNhMuURSSoEnFdIj9+ID7/oO3uwa6kgUJihhjVW45Ik6L6C8kDhfr9vQkDvIm5QnyOGJUrm7JVU7YUOdjSaJp5wC7lc+ZLoAJCqu/NUFXKopFOk/1/sdybpsT0xhEDPSkfyS86tArsM3+uUyom0YjEhjRKyPEnqoZle5PSxaj+YvJ8z32V2nk2ZMmUSc2tWXeh9WOtHTKliHtRSHca1IMEZ4hRky1dD+Mvvdh8XX2C9VDG9FgjguY+hr55uKpHhhh1Lw7rg8K7Y2OumPy8MLlKu4x8XknG+NfaqObzzjH7mGWFiIKxTBGzWpzUfBLvWWKfNsbaKctTP0OKyZKYNM4Qo7OEmFxP/ABv/YHe+v3FxCwpui829lFDM4SooZ7UyeZuK53zzpETIrX5YnFYCZjC5htcJxqxa1eWSY8N8yT1VcLuQUG91NBsyZQrG7NY743KlSKzFCP0h3/9NWYq0bli0lBX6oLacQ5SI2nMTerzN6s3iuq4VsX/G+f+MLL3aM6v1XfGOTukK5F9kTETRw8QGo52tr7P0Xa8o8Mv9/vsHSbaOt5n73i/7a77rXdPru31VMWYalqGfMEjFCMVSzLT9Zyn0K7n7ZOG21pkKaY+cjCTL0LcCNdtf3X0mOsY/pzzwZfcU190TZnnHPeIrfdI1+25Qv10JboPCk+TIkbYWi6yjD+FdkrUo1BZIYLG7GYVMQecYtUu/NP1WD9v/Z44uBcK6icmPODoNMXSc6q1z2OWvo9bMqeZs6eZM6dZ0qda+jxq7fuQ5d7x9k557tsGCInZSlQvKbSnHD7I1fTpmnEnyV5J87DYAl+Uk6CJp+juKc60LCk6TQ1JowG9tHo9aECGN/Ep24gLWhELS6QCiyxBRNYw42XW/1Wqib4exaK93FrtXvTpXy3dc6SoNBx8Lw3oRQMzxKgnbYNPk/2y5sZYYXoClYvI0b9V5eVKqelyVLaYONczqUqrQMzJ7yGa4rPkfe/Wzz2OcS3TAIiqiQ6tZn7N+GwhtgcNypBiZtuGnSE7FM2OqCxTwas5juLtj9Rmp0sxvVHIICF1pTzXqdX8JrLX2Oj8z8EILLyJ5Y81RaLOUnr0BftDQ1wNe5OQbjSgFwnuowb38ybOt08opQUKdROqKCyWjVKmqEnkumOBP9ftX/9Sjbo1x1701URblwzZ1BsF9kbBwzyN77O3HW/vMN7R6Zf7BHunyba7JlnvmWDvcr+120OWnk9dGnBC3SlTJ4v3ZBFvVGG86DpLCt50zBhZ3S5HiuvrDU8XjblC1HBX6iP2u5+25i+2T3nN9cQSx9SF9vGPWfuOtLfo703MkaPT5fAMISLfcdts+4jv1Y01pJoNPzNlDzEfPnOoyGZ6dqVzVn93Sh8U1ocE9xfiHrR1+aut51RLn8fNfX19MvNxS8bj1vSp5j5TzVkPm/uOc941SGiULprS5NDeSlBvJay/u+HfreMLyX5fzJrKIkl8A87/ihD/j7l5ROquJmVPV42bbO1yv73DRHu78c62o1ytxjg63Gfrcp/trrGOdhkoqpc39F4U2kM19BeSRtva3mfrNN5250RLp0nmrhNsXcY47hxn7zLJ3HfR5UeK0EFBs0maZbfywRhHiz4kJANFjLF12KS866UW1sUQFql0Te8x1ahCVYl6C8jW8fZOaWpEH9XUz9NkPX7DybwCPscVpnbN9g1aO9l8V5YY0RsH3ksMuULySFu78c5Ok2x33W/vOM7eboL9rl+KIHbG3nGitcs4e5e/XOm7rvY1B61FbASejahxXOocUOYXY04xjSqKKtaSS58KL4+3dkiXotJQeKYcOVBIGuNuNdXeZ55z9D+cD73kfHihbcxM68CHLfeMdjYfIMWlK6HpKDzTmzCtZvAP+DuRWhGSNIWNZfvCbx2n6c4HHT17Y1MvGtTfG/+BPM+ilcqa93pxYZSFCKoaJoiKxeTwE9VD+knJ6UpYrhT1rGd8lXZe0SQW9KZQh2beidePNrftK4f2wgH30HrdtHr34qAhrpTV3qdraAnR5Dr1hX998XOIaKqiqWZas156dYzjtkzFdC8x3ktCexBTjpT6vPRAjVZO2OCUhK7Zoj6GVJhdLGust/s8m6qiSrKT1BzFmxbYxw13NesjRqSpEdly5CB34ihr879a7v27ddQ/7A8stv9lsfuRuc78B+w9hrta5HoScwRjrhyeI0eOtLdZYnmimBzwUpvM3CSsvL6BAqZR2LXLK8TH810NM1F4DxSYKUWPdrS639Z+vKP9OPud4xwdxjnaX7N73GfrNNHW5YGabsuqn5Cog0VagSVKlP/TZO/S3BvV98Y7OmZKEZlK+CB36nx14sfo1a3onW/Ud6+1v7NZfetr9PYm9b2v1LWb1A+/V750UwshEnO3+8KzXZr1BNm3oPr+4e7m6Yqpj2TMEqLznc2esPV/T3p2P15/lh6p1S7YaJWFXrlITh/AW9aILzxhG5znbNXHG91TDs1AppHupi/UTC4kBxxarYy9bJSIyD5TWjJrl//peqKf0KgHNvZRIiZ479qElh9Enx1CG4+gTUfRN0fRtwXomwK09SDauk/dvFf9arP63nLXU49Z00e5m2YL0X0UY285fLiz1Srvs7W0nCLEgg0wETTvCbpjiistW47viyLTcHBvEtCTGtLlmDHmjgfoZoG4WYA9YS8h60C+yEFFU4gmaCwYHqtUrtLOvuP5+yhbq0w5qjcJ6qXV60kNGWK0j+wPSppL9TmBVU04Qw4+WZk3UGjIPMZiwjzXgzVaBYvvowKTSixahoX8wnvLjHsWDs4mJyiaYNeq59eOyRFiepKgbDFurmVEEd4nax6FMlPBS12H8bZHzBkZUmSaGjLE02SlNM+hmX+7G98XdshUDB/zU6ywoVzrTvTxX2rvHaSk9MYRfdXY/mpcthqeJUbfb++xDa310BoWZYmRr7QIacp1LY9riih2ksrUcRhtuN/ara8c3RMFpQuRz0n3fYle26Ku3Ire3opW1dm/QW9/q779jfreJvX9rer7m5W1O+WPa8lFJiypgn0eV1GTL9DS1+wzRtta5opxvQVjlpIwxH3bFEufd4SZh9Dn5+ixGu2yU6txapUV9MwPeMennmVzLSPuc7UZKMSlS+F9ZeNAd+ps65jDeLtLs6sUMS8WFiWKFarU0nNvuGb1c9dPU40ZasRIW4ttaNUB9MVBX88sQFsL0DdH0JZDaPM+tGU3+mo/2vQNev8N58zpzqx8d+MMIbq7GNJDCR3uavWe53kzvYiIyGagMLa/NlJUIzJmUeJeYt2jfrFZfXMrevMb9NYm5HtJ0eqt6vtb1NUfoxfHetvmeuL6SmG5QvTj7swP1X9sVt/dpL69VX1rm7p6i7rmK/TuV+jdreq6Y/IuK76iaB5Js+5W3h9nb5GBgrOViPHWOzfJq11aLVFFDanMPXUtRz7VNIlir+Y5SjaNt9/ZW43oo0T28zT/DL9ppxYWG4NZOJtds36L3nvQfGeuEJGlBA0Uouepoz5Hb2xW13yrrtmqvvWVuuIbdc21RJBPLqHVX6FVW6U1JfIxmXgJZtFCiL0v10HqpwhahVJZod4TaMd0a3aGGNETh6Ur0cMcTea6hm1UX/0Rb71Ijpm18w7tciU9VUz27Pl/5L0HmBVV2jX6CZ0zNDlnTIOMaRQ6ndA5N6FJEkRUTKhgZARETGMCHcyKYsKEmMCcRYKo5Jw7nFCnTuXatWuH+7/7gBK6Z4a5+vvd5/azp6f7gM3pql17vWGt9brLHpWvvzR0frnZMV/URSoifR6Qrj7MtmCiQyRGmLhWyhb2xTQ5twBn5LKkMq3TS/a8Zr7TADVEy/kyJNwMivyY69vot7Oaqiuszj4nscTOuFudGOD7EFxIkEfIkNm/My40xIsT8+n/QP5A2+a58SVWxsxQ6U66BnO7xf0BTXbQQyHE0U66eX5kYpXZvtBJy6PpeSwuh6SUmT3vsaYG+AHCLZMagpjTwk8Ceh7k9haHsxJ41xhZOpN/Ih/PlurqlG5FKMXrpJbq7SdIg28L1b5iLlhHlh9gP4X4bpkfDLN929nqz9xXn1BuvyVcN1LrU2ZnelB8npFSFxn4cPTaXXStzqIEDgrQ7wh6gBvhh/5pzRil9ClCaT6cME47/Vl864f4yQ/d5z5wX/zQXbrSXdLK9nj+Q9jSS37En2PXARkY4D3BoCJpZXu08Ev/US/9aZl9hEtvuY+PV870oUSPkzRaPusN9/EgP2gxSehPJBNUKMeukMUDBugoVI0rUS4rPOwQnbiGA9RTYrnaIbbpMe3msco5+UZ6Hk4sNjpMDPx1ceSGbeQLhR02mQzKH4qo6xA4JTWVRSOscRP5YrF202T5vCKrfa4b57XTxkWHLNZvO8A3YmoC+Y1CC58yQ+IHFkVnVah9hrmpPitjupS7i31v8ICQdmgIdBq2UN8ZtpD0WCD5kMJ871ry3t3RKaOUwX6U6cXJZVaHm6SaLXQ1lN4xcUDTom9h31wb9RTZ7XPd9Fw3qcBNymOJPje1Ru2zxLw7zJpBlQT8KcHHFjVuJERiHNoNLuLWDrr+9tDocr1LnpsyjLUdxk7LJQlFRvubwrXbyA+IK9DqoxRxcxv9YVZDTaXR3Ysyi+yOd0cnhvk+hzsI8MnlQoki2t6w7Y6APRTyCeJmhDfeEbyk2MjOdxPL9U5zg+N3Qo8AbgElrk2NteSjq0J5RVaKDyWMUPo8Y86NnHrPHkA61pwG2Q11Rbc+ypue0u6ojwwuRll+lH2ZM/xy+/wKq73PyarU+y3SZkKlB5tAtAU9owhbaGscpdaeKObwyDr3zSnhYR67Q46bUKp3fA09EOZ7TR6yeKSlFbZ5swUiH9VimsaiUd7sMh0YEpCAO4w4Id7wsr5wrHS2F6X6cGqx3n6Sct594ek/k48jbJ/DZcRNEypJ0IkE1R/XVRbcRr55Rrv18shFZXqXHDvZa6eOVQY+KF29i/5sMhMToOa5QPhHIbb3CcjsuxTgZD9qNyF4wQG+SedBA7JkLaYdsrlucs1kpsFUiysOU6L04E905fzIpJroAB/K8rhJFUbnWwKjfnG/sZkCkQrQwVq+UAxiTJsC6xBpLKjzgMUlxFQd9GOyAZ8Vi0t7+Nrpcn6V0c2HUqr1LneHp2yn61QuqTyg8yaThQyQSMkqC+ksirFNHEwAsKMf46WjlcFenFqMOkwIXbQCvRTmQUwsEYG0jGFQEIJivbmBfDhJuqDASffaKZVqv7fdR2XeRKgJBBfg6kc/cV+cGvprkZ1W6CSNVnq94NwT4A06iMoUnTfJ/LAF2tpjD59fvw5bXDJYxOQRwmzoprk20C9bp4KKohTI5CjDEd7wmvaP8ZHBXpzowRkjlcF3S5N/oR9rvAkUfUKU6EL2YjpMMXi4gW9+z108PZJfqGfnkeRCO3ti6K9fkDd0EgZZFwQZJmb6VvbVdCnXj9LySVKF2u0V6+4AP2Az4Jy3ePMYB6mmOAqs7XTtzQ0jKo0eXpRZaHecr08I8r2IQ0uOuU6Uy1+5K+rDQ7wkqYC1KaDxHjfVS9LyncTR8hnfkBUW11uMcuDpgwfARkz/nnw0JTLM76Z4acrFbmIOS8hzkyuM3vealwf4IQdoFk5M7NvSuxVNb2ZzSlxOXQiYrJ1048PRa+rVPsUovdBKL9c6XRa+6NnonF3uWoU12TzicOBTY2K7zLGYEWXBENu3iX59T/iq8ZEhRUamB6V67PRRkUFLlHkRfsDhsDdiBCHCSJA3PoKuq9Z7+FF6Mcq4PDBsDX1P4Y0ml3QeNYSu73hsgu1hwZItrulc06gBFxhIVvBz3VaZki39xn/Ya38a2Otceg8vnhA9y4NSC3BafXToCvc5nUdE2xVU2mJhkKgcXRQU8JaoXkI0LQTBgp3JHZs6GpM/cZdOCpxXgjr6cJbXzLo8kLsMPbSLrTeZBAJo4rgMyvHwAzlymQ1iaIpNJm9l3z1rzZ0cPN9rJnvdjCK708TgeZ+SpSaVQfHC4Hl2GQryQ48qsyq1njkkyWelXCPn7qHrMNeACAbgJIARZDgMUBUIpsDMotg2aHQt+ex6ubbY7uSxE0usjKnSBZ/gl2xmAqWZI4daO9jqGVG/38662E3Kw8kVdhefm+ajSWVGh1vDtfvZFpCFcFPIbkRxCDjTLoi5AOypwdRv8PKpoYu8KCPXTc2jSbk0vgAnlRjZN0nVW+m3DhBSQK2PmLWDrpnVWFFpZXtxQhHKulsdG+a7hPZaWAzAIXJUW38E7KEMD0pxbkX44dmhcX4rK5fElekd5wTH7yDrXDhZ4PyxqbWGrLoyPNxvpxTgpFq191PW36VTB3tR+gSJQUwaQOEXlHfQ9TfJo6rNnsUoo0Ltfr91xYPGZXXRXh6c5kXtrpVKfqZfYmYIWj7UJaA00Vpm2soTxTizubbWfefScL7f6uBxkirUTm/ZC1VAC5vACXvygnK6IA1BxUXU7TB2HaiDQifQdbC6kX11eTDfr2flOYl+M2Nq+Oyn5Jl72DqbSpQZlBsOs10RpGAoCwPgMU5Mru5hvyw3n7os4C22uvitlHIjbUp46Bv2Y0Ha4LjYgeQJ3k+A7X9cvaXY6AQ33U0fH7zwMN/hgKgd4E1QOgSXC5Ql0MgB9RpxEbZCNLCafnaTMrbC6FFkp5RpmVMCF6+0X9a5JMAeCBCtXCpKCKbC1gK0y4IUCRsfpBBYfIspQw18+zSI/NrDbrGy5wcn76dbIT+DMAUcGqCgTByLaA6z4ZGGx5NqXFmJXxqpDvaQpGKUNTF04Qr0UoA3I2oBqrYMYWKnEtdm1nry0cTwRflOlsdJrtK6LycPxQh68BATZjD1U/elKdJfBfMmoVbv9zJ+JMoVHNOTMMOhGlxVjgjQPk5YFrhfAJ/MJhwJ3Z0lotLW3hMHrbm4By7De+jG+6LTatXuHpRcqGdfH6z4ka7SWSMEIiD/R3D3RXhoAUXcwUxv4FuWmneNlQb5nRSvnVmhdFkk3xJgBxicS5QAKR1tYd9cIeX6cXIeTSjXu7+E7mnmjQ5IcluJ1LiQ8sAvgHbSH29urKk0O3mdFB9qP88cG+B7hOEHohSpXP2avDNaOsvrpuQxQPoKu7vfycpx4guNzkuc+8KsARAttseEzhVY7cKmAQ5b11ZZ83L0RJU6INdNzMfxw1FCHm2bT9pUmF3uNacG+QEMTCKhx29ln8UY+EChAzm0HeXhD/HLk0LnFdmp+Sil1Oh8ZST3LfTYPrpNg3BNKFZAfQ0iXYAJOPMxJqYJTcBNT8i3jw2fVehk5duJZSjz6qbcX9yvNa5SpomeA9C/mnnzQ851ZVbnHJLswamXh/PW089sDi3CGJ3FPQJPv+LUkS/giecYMdcBBbAb0wSJN97q9mjtl/4jXv9zwJ5z5nDlffx4vXZ6gQvkyQnKOe+7zxs8KhTkouUqPh33O8PuJSC0jO1j0QojUFvGGtMP8F33aFfUmN28OM7vpI2Whyw3njnEdoKGXpwjcGqJlI9AK9eC/QWAAKQziTfuoj8uke8erfbz4xSfm1pldp8XnXCQ7TSZSaFUBW3XZn7wMeXGOqW7F6eUmJnXRvN3svU2GCmAxOtXrIcvCFRwQBILMlxMCA7zQy+g+VVGjwKS4MdJY9UBb+CHTK5CIwqiYGcb++G6aJHfyboYDrjMmY6nGnXPRfEelDgxcsZq+o7FVHFIUypMGxzIceB0JcxBjEZ40xP6LXVaTz/OqDA7j3R7+jFw9ArtrBvlis30C8y0WC0ec3s7XX9jY1WJlSVqd9nzjIkhCG9BuQguK5BSg8wNCuhwhMYskGLpshPlh+aE6ousjDwSV2J2mB2s30ZWQ/1fPOSIG2vJB1eGcn0oM58kV+s9nkS3yVxqLck47v4e841wtnAIGBYhqMojV2dN7ztPjtHO9NnpRWbWOGnoW+7iVc7Tl0f+5sVJHjehXh/8gn0PZNUugv8CuAxwDp/SB2PM4vpa9+1J0QtF+pVYpfZ8237M4CG4o9Dba+kDVOkxcgG0QGCbwgkIhWPMHJkdfs64q1zvni+IaSPVPk+Ep+9m35hEJqYNGijgA7vwo0FICa4m4qIzh9s6jwTZwdfNx8ZHh5bamT4nvkLrNCtYu418jyjU8EUNw21mO59Wby7TuuRB7pVySeDCg3wr7C4IB8H2BbwoRA8eZKpI/B4uc4BjoYV447PonpHKGX6U6MNxtUq/V82HdR6iIO2HlPRfYEaL1zbW6GcQ7qJDfO814SI4W2lcqZ59d+Dyg3S7y5HwhYmZ98Sup/AzAcCDsozB1Y/wy6PVwQVucqmTOiX41w/RS0EeQMyMuUpAZBkDlWM+w1Uj2GL2D/TDS6TzClC7fJJabXZ5izwk8wYKCRZcL8TVL9xXpkQu8DjpuTixzuj3ivugzKUY5VXor8W1Am426BGOX8KDCGJhqNGKXi+Bw6z1feZyDt1m0PEam8jqW+SRpVZ2Pk0qsbPvV68K8gMueGDYoCXijgunGUSMYJ8F8TWyWHQT/2FWsKrcaO9DmVV6p7nSxH1sh+DfQWXbZfZm9sWV4TxoXJKEMq3rErQgyA8KE7AW70/smYa2HOZoB/1xVlNNqdnO5yQW29lzzXFBvldoMSBQtbnxDXlrrHSmz0rNYwk+K+N6x1ehd/E76QVW5o1SDXDyuUYxkNuE5xhoHsBrCaJeQpi1n/54lzSp2OjkcdLKzex6p7ffSSsgcSVWpwXmZSG+V1jqQEmm5ffKgIQPhwBEzo7LrH10y22RcVV2Vw8G2cK4yOmvofsa+V4LNjNygItwpP94wg+knOpc38PWPRy+olzv6iFJPhxXI/d4JDL7MDuMeIg6Cseuw1mAS49asyrNToKcmz5d9m6gnyGuCq5UrH8izgFBTDj+OICITTg6iOQInjRBnGD/PyboceA8K8vdxSP10wtweqGdNTly7ionBvYiaYdYEUAdPosl6NgcgD5mrSAed0gEhBucRtRv3JWTgzlFdoafxpVZHW9orP2FfitDjV0VPbWY7xIgvAutbgxgD1I9QjkyeLSJ7VtHP7mqubAMdfTYieVW5uTGc7923jWFzQjnPAb2/1RuqFO7eXFKsZV5tZK/g623uCno33BEx+Sg0PihkPSAX47ofWFm6SywAi2s1XvnkRQvyqiPnvW8dZ/OIyDIgfK4vY39MEMGsM/FKeV6pzvMqqnGBR6Umo/jR0g9XorerbBADGsoeP4IfT2Q5IEybXNnF/3x9uDIMr1jIUqfrA+9wvlbkZtRAG31rJkA9l+2DvYd5pkTQ/zgcWAP8q7fAeyrAOxv/S/AHqoi4E4IHi8Q0hDUzLY9LE2v1roXopRqq/us8IifyNdb6LdzlfoyK8vrxJdrne6Qx+1m6zF4WVAM/gPifyc89P/yW5AbcW0tfmdq5MJCJ9GLEyq07svsJ6LgmwbqgJOX0DwzYR8iDn2IKTnQ5iD8R4hZB9jG6xrKypwOHrtdkdl5auDCNezdJrYPExtOMPAuEcxpAGX8K9gLKyfbZrpgonw3JzqpXOvidZJLnOxx4aHv2ottFhUXh7v8KNirXQHsSdIlgQsO8C0mV+E9QyYcA3sB/ESY7YlykMuQwWWJH3rPfbJe+YvHSfbbaVXR/s/r96o8JGoGwgmm9QSxxWvZEtgD712A/RUC7G0B9jH/uVgEJR6aWCgvwP5jAPtBuSS+yEmZGDznA7Q0wkOgG6WC0Sr+DfFfxkzQYpE2IwxZ3FxLV04Jn+e1swqcjCq9x+vkkTA/LHwoGWEEcfVL99UY2Oc7KaPVQcucBxQeEOZrLiTEEIsIWljMLOeYz6JsA/ZGsUQDyuQgPgOnzhYvhaCaApWSQdaubSHrbw6PKdM7+XFSuZN5lz71IDtkIkzgDIBjDqIMyBCACUugdm0jYu/jux+OXDcxPKhG6TVGGjy34bJddDvYNQqduMv0zeyz48H+riD0wlsvjUMsCWDvCrCf2VRTYgHYl7QC9mOkM7woKZe2Lde7PEKuGaWd6Tczi6x2E0LnrcbvKTxAKIZgElxviLA8AUoRpQgxeTV+88qmnGKrk9/sNE4fcoXxt0KUfgzY7xE3sXWw56JpDx6gFqVY59Gv8PJpUk6RmenHKaVahzlq/Qb6ucoVaI1TKHdA3balD2g8MV3nzavpu5OkC31uep4TV2J2mtaU8wv7yF8IlQAAIABJREFUxuQhqB66GHMa5IFF9qxqo1suTvI6adPlgvX0E5srov8uGowQiAl4OvazCNJEw9c+EluL9OCIuKmlt/R/+bU/LbM3uPKm+0SdfkYeTvHb6ZOkcz7AT4OUloJTyMlLhI0ECsng+BHLV+AkA/YDZgqVntIX1Nqn5+E4L44fGR3wLn4iyA5aXHcI5D+Q1gvPSlc8IUcCMyjrOZQhmxoG1w6zvUudB2vl/iB5cpJG632f0+dLLOhQYJwKsD8gwL6rBycX2ulXqXm72BqHK3A0wMMj6KJCIyIODow4FhpraGabNPoWerzS7DeMpPqc7Pro0OetRzQuMWpT6ljc2sbWXC8XFaL2HjujTunzoDr5fuPSQr1DrhtXpXWaGxx3mG0V9nAg5ogVyuCsgSPC1bn2GV52WfCiQjOj3MieZ475OxpZZGfmk/giK3NWpHwz/QoxPfaEn5TZ/y8Ee9C7Cq9KcKVglNhE+Zl8dGOksFRvV2in1EX7PavPD7ADEd74on7XaCD6JhehjCnSeZ+5LxlUFWVFiBJBSXgq1BjGqMmVtfi9K8IXlVoQ+5dpnV6xH5W5Akl0KztTlO9sym3gCwNmizIpdCItjQVW6c+Pks7yoXQ/yq5Qej6izNjH9hoMEQw7klDgm4nSkCu299HMHoorBAs1Y5SHVtjPj5HP8aJ0L0krNbvObR6nMGAygyTxCNjfUvYb2J9/mG+xuQrpIqA9WAjDqQnmYY7NqMpdaJNi5hJH5g1vuwtHaGfkusl+O7MqOuB5815FgD2UQWN+rKdyLP1+YD8gh7b1u0njQ0Ped16McilmjWyBA+5vabewXYL8mXGwfTW4to5+OEn6q8dO86DUSq3Ha+ThkAB7YaF3ItjXK6e/iR7UeABxx+TEhkMFfriga4mLB7ytXxfDHIrtkC0Il24B9gB0rV0hUVnBjIM+fifZMDtQX6a19+GkEpQxK1q5kX2vU8WxTUrBbJu4DJJY8NqCc0kgB5VZ9Gv17WeDNy+17nwdPbjaXhWlMhADIYd1MVM2s0//WLCPnOHBifmkbZXc6y266Aq5uFjvXGim16g9XzAWNLAdIBQC81x44w6P9aMcSs0w2/+Gcd9YeWCRnV2jD56DJt4QLCqyMwvcuBKzs8js/wOwhwosEmDvhPnhhZGZo7T+XjuxGKWOkQa9hRaFWCO0Z8TTCfbOrQkzIQK3KDEO0Z2PaLcWa93ySZKPpI5Qu79uPCzzwzTWV+JU4g0L7Ztq9Z4eUFanXiXn/Ug/sXiUMpuCeUZMLw2VjBOWsFenDPYnGLEDx1k8Pv9ie7S2bf6I1/80sDe58jZ+sk4/I8cFgt54+ax33ccV3gzU+pY+wGcSGu1AbxT5GsjOwN9LmIwfZrtuDI72mR1zaVwRTr9Syv+Zfg4FdvBkFmF3LN+Cw0+YjUPZHbTpIH51RVmTM4ub6+gnV4TziqxUj9OmBKhtdYf4dkyBcYqZE+AxsO9S4Cb6UfoVWs5OtgYB2COoE1BhWi2al6IYAf5T4JbMwPn/MNux0Lq52Oo+nCb5UNoE6Zzl+EXBUTAocxA3trO1MbD3WVmjI4MeV65dRZ8YIQ3ORQlFevrkpnN/pp8KtnwsBxKlYnGhCGPNvPHh6KxRct9ClDpaHrjUvnORdXWZ1bmAJBeaabMiJZvoN1ACFeH8EbBv+rWM/78R7Bm4YML4A3HyYYU1LbXvro/0L3Ey/WbaxOD5nzvLDCaZVFnjvj89nOd3svJRYo3a4x/R6SF2SNi6H62rn8pzwxi1uLoer7oyNKzUSvHi+Aqt4zL7QZWHBIGgha0pnNiR6OCKiQxAdQYKByXUxrrEtj8sXVGgdSzAaT4jbaTU/xv6jkoMYYkEhmqYwfYCsIfWhfAcE2X8GAVE8MddTNFm9/vrQxUlqEM+Sc5H6TOUoh1kNTi6iC0tyvjHgH3wvEN8o81l2JkQfwgrSG4LhhNYLercsWAyAvjYN7Etj+hXlZvdckmC10kbKQ9+w16ocwnIMfCAQGB8Kpcw5lsObv7HlPH/m8y+Xumf57YtRKmXBP66Ei3VeARSX0JtAEIRrsfuRoxWAp+pAx7m6jq6clL4Ao+V4bXTa5Ter7sPhvlBwsAwwz0+s8/DiaO0AW84DxlccikYVEFGD77mR4RYMTnWr58hOoO/hRhDoNuAaytoGq1fIhGzwbslDDWwbY9qV1fqHXJpwjAnfqTa90n7hs3sC5UGMY0iFnVAVRNTDQCFG0z4KXYwQczQWbPBg0BAYyqwdzD805gTh6mb/nCwPzPHTvTQhBFy38/py88680YaA/woxW9k3dBYsY2sRjAZQTjTiOA1ZlaPmbWNrJsrja0yOxTamVPkYa86993eUFNktytwE0rMLv8h2IviEhZ1Mms3WzdDKvObGQVuXLGZdqNUuJF8ZhOdOFCmEMTc1u+EIB0xB5k0+j37eIx8foGbkkv+p1hPvTt0yWG2E8NwBJsK6d0iZ1ad1teLUkvMtGslz8+gLtaBNcWQsL4H5Glhgf8PbHwKhGXoh4odCmyDU3qC/qC//KeBvc2Vd/HTo7Qz8kmiD6deEj3nQ/dpnQWBXfUbI0+UtUS7kcDuFhI4OCGhOB5L1zGYo1ob2bcTQ8P9dvt8mlBqdbwjOGEv3QjKFFFbj6X1oosSc6yL9YeEqCsGmsKVlRD3EN06p3lcmdU+z23rNbMmhS/6mX3iADWDuQD2+/+pXF+rds4jcV6cNlW7eBdbh7gKdTxwjwAYhr8I8jjMXJuKGRKYqEG6axV+6vLwRcWOiGr1pOtCw9a6n5ochkwIKz17B1t7XcTntzP9VmZ95PTno7dt5p/OlGuK7PaFdmq13OMl/V6AMW6Ldh0FuiyYTlOLuZvohuvClRVGdqmVdU2o6Bvy6uP6tZVGzwKS4bdTZ8nFW+i3mFnHgv3MpurfevanUsZX+OHjevZgqvO9w63YoJETevb/bRkfdMkQiwHJDkz/9rNfbpHryq1sH04utTrcoYzfStdYTEHcPMS2/kO9otjolI+TS6zsy6WCn+iXYFTpAv+59TC/1QfK4eZa95NpoWFFKMXjJpbJXV63H4GaE9Tcf6OL/sobFWbySEgiwEteYD8w7AQXFx1ia2bK/hwnMwcnVTjZl4cv3MV+Ahs32Jxg14Q5tBmh1S9mZwjuh3hvRzggQg/EnBDb86RxS5XePQ8n5TtpEyPnfYZf1yDbgPkKR8G+Wx6L85DESwDsNzlcE8FurObkQHIPXS/w3EMQgBoWCYfZnq/dl6+Vc4ttEHz6rOTLQxeuw8sRi7oUuE6napAADeEjHfX/DuxFz56pn+BX6pX+Xtq2yIyV8Z8J8AMWV8G5HZgcpiumZ4Fb0dEFk4qYrTLpO/LWpMg5XqAgJNZpvZa7iyKtlPHzSPwovd8y9A+dB1zqYCDAwkQcCNABa09cBKY6YezGZi+JqRyCFfHbXTtpW2ExVkbI2onCmt+x/1kvn34xTrjITfBaSaO0bjdIha/ZizbTLw+wjc2sSWEqBgsmTIF8ByM5gOjowGURFWpo/IgKE5AJYBYOlPE/vypSAC0/GuvZ/95l/MiZ+U5WHk4aqfT9jr7+DXljWvQij5XsczInyud+676tMslgOqYYmL0iuiEMa1T9wlkxOfS3Miej0uj8d7n+W/ry3MbRJ4C92C6Qep105WIvCPoL0GAY5soa953J2vm5KDEXn1aiZz6iXtXEthBmCltqwdUXfKYWf5RoedoETk9rP9t4Y6S2yG5fQNr4jbTrgp5tbK3FLRNMgh2FH1jkzKzV+/pxGpD4gvmb6FcO00Vo7trCckpMIRLXH76FGTxi9pKLRDcBuKtgqAMfoonWmrSwxXf6R734J4K9/B5+sl49y+ek+lH6eOUvb7oP7mc/B9i+ZrbnmLW7mcEKsN0htqeZ7gnSw7IbAuKbqLVZUMSOfoqXjZX/6kdZfppWofV4Wp3bxPYRaLyJSy3KcEcuPWT6Is2PVXdjE1agyA8RWZjtf9G8s1zvkOvE51tZ9eqQT9ELNqQU9Biw75RP4zw0bYpx4S/sc4kf1HnYYrIJU/WiBuiOojKPakwxmBxhh/exn1bip2dI3nKtvR8nFZsp4yO9F4YvbWK7bBiyB8PxKEU72Jpr5AIfSi+A7GrAc9rsJr7pOXV+rdrXjzJK7OxbQvXb2VoHzncYT+e6BmHIJm6URz/AL4+Vh5ZY6TVyz0XarVvZ18/qN1RrPQtIls9OnxkFsHf/vwT2ouctWpgOJxoLfY1fmxA5xw+s+8RRysCX7IdCrAmJ7F/jgXfsx8bKZ3pRmg9ljFRPf8G8R+aHgNsMtgSnlpWKfg36wf34UmmYz0nKJQnlWq8n7Tmb2NrDsA/3BI5fYqPuCrBdEt0fonsl2oBhpBuyOWKU2czewb6dJA3JcVNycHyl1XmeXN/IdlGucq6L1DB2csdIJMfyzGONYtizoueHVd7wjr1whDzA66b5cMpoefCL9v3CwIC43Dke7BMmBIfu5GsjvEFhEYNpJnjSyaaY9GhS0LlJvDHM9u+laz5zl1zXXFqr9y5EyX6UUhvtuTAyrYFucMHYH4bgiYfl1E6f3w3so/29OL7QShktDVji3PEVe2Md+2gz/XoL/eon9sWGFtaXG9n369nHr9P7x2mn+51kL46v0XqscB8DRznhTn1Cz77ATanT+z/rzt3B1hxgW/ezTfvYz/vYlr1s40G26dBJ6yDbvJNsPUj3RpisUxiPKW6QKK+00i0SlvgOCGHA7BdtpevvUadVyb0LUbrfaVvgxvlRVpXa/7LARXODYxYrd35El29kXx9iW2Xo9TTZXLW4YwEJyIFQQ8zoEv8qtI2FBuSPB3vprAKnfS5OqlP7fM9eb+C/zA6OLjE7eFB6tdZzib2gke/TuOowJAzLwX8TczvADi81H6pW+hdaaePlM19z7t1OP57XMKbIyj6a2U8L8T2Cj/hvwB4CSMoMHl6Fnx6tnJ6HE/Nw2xq162vW/VF+CHNDdNMdF0bSWa3pR0ThB4nJk6iZbX9Eu7Hc6AquiFb6JcFz1rEPheTVodyR+f6Fzowqoye4vTlpU+WLPyVL97MNjWzXYXbwMNvfCIcAQNKxq5ntbmJ7mliDJUaUEgxmxoA8kHGeWjPx1J63//hv/4lgH3kPPzk2OtSP0j04ucTodL1a+KA0fZE085HgjEcCsXXdwkBszVjYfP2iwI2PNF//eMNtnynLZN4I8lbAfKRzaYX+zMjoGR4g0qdVq33fd5+TQLoaI/1CcVUsKLjBlYcoEgyZY5VS8RlSd8JRlAc+os9Wa509TmK+kz5CG/y2tkgXZPKjYH9dndYpByw2k8YZ5yxnj33N3vqBvb+OrVzHVv3AVv7AVq5hH33LPvmKffCBteRx+e8zpZH10bOLrfb5bkI+Sq5Re844WPi984ZO5ZhADwiDgAo/XBXN92Jw26jT+jyp3RLmu9fRVeOCQwrt7DwzeVz4wu/ouwZrgtYRqJSALIaY08T3PBi9tlLrWmKljQuc+779ymG+/TltVi00pTI9qN2N0dKtAPZGLOqOlfFPyuyPZ+PDMdYyQa+VzN78XTN7oCJAiiwqOGG+/1Hluppo93wnvshKmx7wfud+pDMDOy6B0WHRjeTzm0OVxWZWgZtWZnab1Vy1h30PvgLcgbmCp/bBENe/c9+bFLnIg5NzaJzf6nB11LMgPPWh0HWPBK9beHQ9EoRvxbpmUfCaxYEbHg3c+OohKIBj5loMEcINbm1gn40IDSwAaXJchd75CXlWkO11ucG4JUhqkBMKhhcU5GOiMqHsiPH7j5SICXV1FvnUfWl8dGi+neLHCTVq10eVa1XeRAXhVID9rWVqLLOPr5dO/4A9/jV7YzV7fy3szA/Xsg/Wsg/WsZXr2YffseUr3CcXK7fcHhg5PnBeod4tFyd7cEqJ3vnKRu9qe5kj0lyoR8akx6d2AX+/zD46qMBNzkXxXiu5RutTGzmjUho4Kjy4Ptx/lDT45DVSGjxCG1gR6VNh9B7uJOeyhBwaX2Z0WkEeikLwB+StE8A+140rcjIv1y6YE6ybHx5/Z3DsnYFxdzZPmBMaPT9wyfFr4vzAxPmByXc2XfHQgZu/NlaFuQRGhkI/AWS6VhSB0NChyIUmLhRyokxahz+c1zhxZGhgkZ3hcVNzcPwwMBJOq9Q7VKm966QzJoXPu0Ma83zk9u/Jsp3s+wNsmwxBm+yCVDj2EWtdAL0AM2sT++KPzOzfHBM504Mzct2EWq3P9+wtmR98xXpgpDLYB1XurJtDdZvoWgOKIkJaLloWwq5n9WxpfLHRuchqd3XIs568v4+uvaNxvAD7RFHGPwr2kLi3+pzGauCEEYU3v2TdW68OykdJBTh5vDr4Q/SsBsOgQffCwG1FBYPzVgr5TEj/KZC0nAA7+LQ6v0bt6UPJeTixLjjgM/yCwSMIzLYdmR9c6FxdYXTPx4k5OKFc7X6rVPmP0KSHQlc/ELzp4eCsRYHrFwVmnLAebZ7xdMPsNfrKKFWRhaljCj2LIHW0LtY4xWfr/9Vf/9PA3uLSu86TY+W/epyMYTTuItLWZ2ZU6j3K9e6VWteTV5XavU7uXRfuObHp7EcjMw7yTVAqt4E6a/DICvXp2mj/HLdtgZ1Upwz8ir4lcwnDHBSI1MSCFpdI9AXZBp7MY8BeMCvEbQ59Q18boXTzY/BwrtMGvqE+HGVhEGuKnv1iZUa10iGftc0lCRVKr2ql94hov1HhAWNCg+uDg0YFB40MDR4ZPKM2MqhW7jdC6lel9PZYHXKdlCKcVmillFgdp0ZyXjMXNvF9MJpP0M8otymztx8F+4tZfK3R+5/qTRLf38C33BgpK9I75qOUKmXAS8Y/NLYfZt1S+I9tx7GYtZV+O1MqKTRSSvTM68M16+m3zXz/s/qtdVrnXJzqQdk3Riu20u/IEYIei4H9LFHG9wq9zTxzIswPjEnLfpPexZLL2GUSalWopDlR3jAnNAbcAEk8SO9CY0B6x81Y4eR3KuNDuO/G1NjUAQeCgK9cbed1EyvUzg8bM3fQTYhZULvDjsO0Jrb7eX1OudIxHycXo+xpkQs+w0sMHsbCTUGci//5Q8JsLn9D3pwoX1jgpOaytrlOQoWWXhvtUK12rdRPXl2q9M61WpeR0V6j5P63HBgd4gdEXxf8y01urmEfjYgM9OA0j5VUrnVaKs8LsgOxuj0wsI8k8EDgEoJSeJ8iGj3C/D/KVWYGM78iyydHLvSCZVibKqvdw8okHcAeSs0A9spt5WrXPBaXT+MqtC4V0S61Uu9R4dPHhs4eHTx9dHDwqNDgUcHTRwb7jYr0H6X0rTE6Vzudy1EXr5GZZycX2h3r5fOWWveH6Q7GLAzushCHwFNzih+nnNmLYidIWI6w8YnBlE/wK6OUQTkk6WK3zcXkNI+bku+mXoTjCnFSKUr0oSSfk3zC8jrJ+SQ1B6r3aQUszssScty4IqPz2+QxucXMHqfl0oRclui30quUjuV6lzK9a4Xao1LpXmpklRnZJ69yo2Od1uvShnNfkO89yHa71AFSBDw5zrFlmeMumKBFYjCvBXqXQzSTN29wP10gXzlaOqdE65mPMi7ECcOcJDEUI95LkoutpEq16wi579jI2dOCw++Rpn7tvnOIbdVgyL3jwqkHw1VADkwdTN1NYKojyvgkqUzr+gK6K8j3i9EGrZW1YtVlcM7eQX+c2VRTarXzAhu/wzxjXIDvhQGWAFKuzfVvyJtjpDM9blIuaVujDljN3tN4eDX9cKo03GclF1kpE0JDP8FvG9BxgJlMsczKBjeeVycHzy+22pXpXeZGLmngmw7S7XOCU08V7EXsSwlFUd74nHXniMgAP073OOlToud8il+OUg1B8QSsLzkzgYjVyi8NNVzKoTdC3WYeWIYerZH7+nHKxfS06nCfd+1FGgsiaOU4EQD76eVmVy9LupielusmVeoda9Xsaq1rldqvBobpdatSu8ZWtdq1WutWrXWrUbtfHjj/I+vpMAuISSamuDvA1xcM2eM2xZ/yzZ8D9mLcSOh95/Gx8l/y3NThLC7HjcvHaT6clY9TPKTl5UfJFXrWSLnXfdplh/h28XyBg5XB5LeMxXXqgHw3wecmjg0P/IosU7gqrFaPaHL+gxMfuHsKD39P3h4d7Od1kwuctjVqn1fUew0mJEycRnnj48rN1dGueey04fS0IjvbQ1KHO208bpzfjSvE8R4UDwOXcEYeScpnCV6aku+mDCepBTirXOk0PnLGNc1Fy52nQ7zJ5tgC/xDwhxJSOmM7+/46pbgIZ3pwQrXS5yl1foQ3a7z5RW1edbSvz0krttrPlsccZpttpkB7TNALda6tcJ8eL5/ttZNqtd7P6H9vZntkHnjWmFutdfO4SV6UdkO0fAv93gEZGxBGELd20vU3N1YWo8xcEl9st59nXNLEd7pgDUSFN36sQRgjIcD0CQ6eoLpNDYvbEj98R3hsqdnBQxJLrOzZwbHbyFor5vMP7KfjdPb/dc9ejDWC819mTcvxYxOUIV47pRCnXSINfd96QeWSRXVEbDG+3FK49ClaNj58jgelFrvpo4ye90SvPMz3OMSikEOfVGBt4aVfnz5mcvVb8uZkaZgHp+bBo9620EkqsjO8TlqLO9MLpnWJRXZyqZl9bVNpiB8SEwxA1ImY/AP7oDbSLx+neqz0Wr3bc8rfZd4szq9f/0WB7ye9R/Guj5xbhLka038gn1wdKiiyU4eTuBLU/qHoJI03E45AJ8L2PxP9e5UA++G8jc9JzSfxBTjRi1IKAcgTfAi+zSXJF9O44TjO68T7SMIwlJCHM4uNbiPDg69oKl5uPxti+x2qCJI/FdJpUJQf+0b/k69PCezFT49FFaLsJqxIdC5/gl8ZqQwehhNzWcLfSBsfzfDj9Fw3oQinlcNUkrRi5+iC8ZVHli82ocROLaAJ+SzxIhLvM7q+TRZHeaNogUNm73D1K/fVSyMXenF6HknIJQl5brzXSQJ3L5TpsTsWmZle3MaL47044cTlJBba7cZGBz2lzDvMGxzwtULcAcZga5dJiLQgVRAzGJHIxZHB1QNsy3vGk/cEpk1tuLhO6VtqZvusFA9KLEBxHvc0L4734LRhbrLHTqvUOo8KnH5vePIP5P0GftCmMgx4pJhBMgN+iz+xry+P+ArsrAKcXqF2eRHNCfE9MHu3FUEgtDYZcEQIQXvohplNtWVWZo4TV2R1mqeNa+Q7wF8LROWuyaNfkTfqw2dB+YHEj5bP/pl+rvHwfr5ldnBsld61CCdVKNlPmnMD7BAYQ3FQoCCmhdmhJ807K7VeFWbWJeGz38VPyPzgfrp1TsPUUvNIGX++NS1ytIwvwt4WNpewywXvKEaRxpuetefVqoO9bjsPTh8fGbIKL1V5NOZZBDVb2EEt/JDYSwwUVRzif4oiLLzcfaZC6e91MofjtrXhfsvRoxEw6gcXaonvf8ieXmF1udhtM4y1uZi08TpJRU5KkZPlc9v7YWV63VTP8cuL0+q1QW87D+tMgoaGi8QBCqWff/GuWn27f8Af/Dlgz8GnTF6JnhkvDSnAyTnkNK8TV2q0r1N7VSs9atSeJ69qtWe10WtUeNDE5nMflm9o5HtBF8QwB7APvGU8WqcNyHNT852k+sigb8nrOlNanYTZynWk3DV4eB19p14a5HHT853EWq3fK+o9wNQVJbgIb1gcvakq2hWM60mbIjE/tFDLKjaySmD+aXqRk+51M/LdlDwa5yHxBRQKiT4na6R85m2RMa+pD22mX4TZIcfByIGBrCKxAw20y41tAPalxTDpMqFG6fuUukDmQZNLP9D3xoXP9aN2HjttavNFP9GPDBYCUyAOisFmvv8B+dpapbffyRwfPn+l/UKUB6I8+Kwxt0rr7nETfUfAfjUS3SwGAbC1i66/pbGqGLXLJfElVvv52sRmvlPYZcObAdErHNhir4J0VrgRQLZnWxyF+aE7wmNiYF9qZs8OjNtOfrSYAWw4cCz5HcAeJppwBLU5RJvZ3tujE4qtbjkopdjufEOofAP51ISCm0YY4i6iTDd5eAv9+lZ1hA+l+XHbCjVzerNnLf0MFEHgrHMSkLbw0q97gjlcW+O+OzWU50eZeeS0PPe0KjtztNKtLtrKzlR6V0f71kb71YfPuvnAGIk3CnYepRQjHl3NVtVKgwtw+xycWq11XhK5PcoOnmojnDI4dteSD68K5BbaacNpQond+b7IZSoPCgNRp5kdeCY6u0rrksfihvM2fifdh9oV2x3KrM4VZodyK6sEpXmteJ+blOfG54MmrV2Om5Rrx9VFu90qVSxVF6yjn4TZIewamBgEZi3Fzk4Rjv56bf6zL04V7EX9QGT3Ipuk3ImB/ShlcAFK8uAkD0ofpQ+eJJ87Xj5vYuSCS8PnT4F1wQlrcviCyfK5E5Wh9cbgPJxyMY/7G21TrHd9lzym8AYGOd2JYJ9D2+SQNkV2em20+6ho/zp5YF3krHpp0Ihoz9pov9po/xPWCHng2OZzrjiQu0x6NAi6f8TF7GkEVZCWP4QuQ0gToGYG1moUOmTU4nqUNwb5ro3ksxeVBXPVsZeG/zZWHjIi0r/a6FDqZHtQ+2EwI6ONH6fnW5mVWq/LDuWtsJaG2X7gewODD0TlJlc3sC+nyZ4CmKGVVg5gf4cA+1b5FsDYBPI6IxTtohuub64qNtKGOwkVuOudGsT9Auxd6hKTy18KsM/D8TkA9mf9RD/TeSTMD7/s3FuvDvajlGIjc1awbgdZi8ELErngGm7uJD/eEqovMbpWmh2vk4p/Il+oPLCbbJhz+JJSMztfsPGPA/tW8RD8hbgLqn2VNz6H7hhh9Mt3U/Nx6tjIWaucF3SmAAv1CO8dyiuiYNvCvYABeqJjxmBiXvh9+nK50teLU3NJ2+pI3zetxTJrItRxCQrzfQ+i6ZWbIVtsAAAgAElEQVRWlzwSD/I8lF4V7TYy0qcu0rdS7VWh9ahWe9YovU5YtdE+U5sv/tB43qQyQTCiVDwIQqDZegjSwhv9w176c8BeZPbqe87zY2BeRYYHp9ZqPW4xah9Tb35Omfdi5K6T1xJ5/hPavCXK/a8oCz9T31FZFJxvxeQLgx9621hYpw3Mx5k5OGW0NnANXW7yaGt3vbWLybhr8eD39PWR8oA8Nz3PTa7V+r2pPQhWqeCFhCP80OLorCqlax5tk0viq83eM7SiW7XaW9WaW/SaG7SS6Ub+JdGhIyMDy7TsQivZ48YXuqlTzSGv0wU7+GoJDKsjwjFaKK5i1A1QZWMHdPZHwR4n1Kr9YmBvM/UA33FLaFSx2bkAp46W+y8z7ouwg5irnBo2i2xiX80IF5fq7UvtzrOC9b+QHwymtQj2MepKDOx30x9vaaiOgX2plb1AnxLku0T9DVr1wAdgYDYkHKKE6Sb04RyXujZH/8fza7ZUX2pme92EUjP7jsCEnWQD4kZMhvS7gL0w0tARZDDqGvL+lOjFfqtDkZNdbHZ+AE3fwr9u5rsa+e4gPxDhB4J8dwPfsp1//Ti+qQp1KaXxZVbSOHnQ88b9Mg9BN+AUwd7i2mr3g6nhXD8SrkROxk1W4WJ1xvORuS9G7loqNudS+GLB0siCFyMLlsh3PxO95xllwRL5/nfDL1hUAUaIyEVsrq5ln48AS/xOF+KEarPLUvk2me1qLeVqbWdy2JnSt+T1y0Ln+1BqHk0sM3veJ1+j8IAYNngU7NUueTQBRp+ZnacbRTcYtTfro25W626Qi2bo+VPDQ+ub+lep7UvNTBgva7a/FJ3zMrtjM/u8mR3SmeY6jrjJYPsFuiL4EOanrb+tFv/k9wP7QbDHUNroSP8X8dyN/JNdfP1+vuUQ37Sf/7SPbzhm/bSP/7Sf/9zAt+/lP65kj0+Qz/BimENdoXVf4T76f4gmLYK9ByfWmJ3vwFWvOXe+bT3yhvXP161nlptPv23+8y3j17V4ufl4bL1jPLlSe+4z5YX9aCPGrnD8syi4WrVWPIYHyuVH9FogygTbJIZhOp+NGDKpFiVBmTc28R1b+XefOq88G71rdqR+cuOFI6UzCvXsQie9CGXnOpnDUILPyprSXLDKfkGjUVG6BqsEm2k/s88vl/MK7PR8N7VM6/ICTL3bL0KBliMQ0ciEnqZLYaDG9eHKEjNzmB1fZndZoE5p5rsdoAGCKZjJo1+SN+ulMzxuYj5JGBk9fR1dZXBV4eHv6LuXR3ILrSywsQuf8y1eZlOJUAtYw9z43Fk2Wfpbqd25Rut1T+SqJn5AY9Iuum5e07hTBHvB3YOGJ1Z48wv27FF6jwI3yUNTJmhnfe6+alEdDi5QsoKjLjCXW6lnCC8+UPiI+Qjht63nKrQ+Xjchn7StjPZ+x3lBozLDNiUoxPc/gK6oNLv6SUYRaj8iMvBeZdrT8txn5flPRec8rcx9Xp4fe/yPHgIAWEsjC96QFm131mJqEUpt0GPDlf6X/ZQWH6A/6sU/DewNHn0HPzVK+UsezvLbHSZGLnjVfWw33xHkzSoPnLwUHgjzoEpkncqQR4KIkVJuMaobvOldffEo5cwCJzOHJFSqXT4nLxggMm55r7d2LRknGm9cRZ6sUnvk4KQ8kjwiOvAD7akoayQgaEYRfuAxZWa11j3PbetxUydYf/2BvX2A/3gADpqNe/mG7fy7TfyTj81nZwWqK7XeeU4qTFKxO1wT8a60XwyygwZTTGo6xAE3AeiKgvSXckc46B0H9k+rd0d5yKG6xsMvaHdXab08OKnC6HRr88iDdAsCCwHT4OH38FNjI2f5zJRqpfez+oImdtCmdotgLzy5wFQLcbSb/nhrQ+1vYK9NCfI9IjoGCwMgx4HjOgT/rnCGi3VvCWUWh9l6t0VGFlvtvW5imdFpbvOk3eRnkN6BVvx3KuMzTizEiGmwpufQnBq9byHOKLTSC52MK8y/LdDH3adNuUu99F7tivvVy+/WLr1Lm3iXPvY6u6DQSc8l/5PrtCnRs29qHrUDLI9UJjRtx930FvD/1z9nJpdWuyumhi8qROl5OK5M7/I8mr+Xb5R5k9iWQZUfv1goykIyD6osrDMZSNMUjF4gHWfqL+zbMfJffFb2RW58mZH9pDJTZPZHyI+//qv/7gticmmV8/z4yJlelFLgJlfpfR5RbwLLdzDpi5Xxb69Su3hIYj5NHB0dvJ6v2sU37Odb9vHN+/lPu/nqbfzLz82Xb5Iqq6Ld/CjJTxKL7awp0rD3yXPNfK9FdRhwQITdPqSekJGKT6eclfxeYD9SHegh8SV26gRpyDvoSQVKJtCfFYRWoFm1tLDNlJ/YqsmR8wqclHw3qUrrsZw8LPODLZbxfTh1jDZ4iTO3gW9UeUOEN0k8FOURlYcNHvl16Uz6ddk8YrEmQkxqwahYDj6J4IXe6lkDQjl4oI7UmYFXDoMKQZIHvXEC/BviuBTZ4O8mh3nDQb59O/t2pbPkvuj0q6S8umgfL8m4gPyPlyb79Q43RCo2k3WG0JhR7mJibKKfXyHnFqDUPJJcqndaApn9fqHQa3lbiVIK1PIdBgMwrw77SuysPCe5wu56b3RakO+DWZwA9szgypfQsz/djxM9bnydMmANfc+CsYTWQb797+FLyoyuOVZild7jBXtOmO2DkQHMCfNDT+mzK5XepXbHS5Rz3kJP6FyxmbaXbJjbNKbUBKpyidnlP8vsxXgLMWQ8yoNv4nvGaz0LcEIujh+l9fsIP2/SKNR3wVpMID11sZiJcfJvzoStWiwoUFjgGWlBpdHLRxILcJvqSL9P2Hs2sTlGlFhBAfZVZjefm1Rsp18WPP8r+loz3xNljQpvUHizykLaCYeA+FbhMM+JEIwZtmDiXcyg3flfUsf/c8Ceg4NNZIX7zzHqYA9OKkJpUyJD38NPq0wGIw8wuTsiYTzmCwdzMWaKCKE9FJrhsYdCFpO/c96eEDzXY6bn0NNKzMzn1Tua2QGYO9lqde3EzSD4oLiB7vxnZGap2SGPxuVa8ROkIWvwB6BmFiW4CN//mHJDjd6jgCR6UPoU8+Kt7DuDSw6wb4CcgpmJQIPX9DP9dG5kcpXaJx8n5rnxpXqnaxt9n5lLQ/yAwaMOtV1HjHWAZh/8sieAfY3a9yllgQQdWYNw7Uf24fjgWcU4pRBlTZaHr6WfKExxmN3M9y9QrqzSexZaqZOkc79wXtOo5DInyoNPG3MqtW5eqEEd6dljbglGGJj876W/zG4aUWy3y3Pji812C/RJQb4LtKFQvIVDSRincTGc0cWQ48GuJS61uHWA/3JDqKzQyvS6CeV65/ujV+2nW8DiCuIvF0Tqx3jj/7c9exDXu9TdyzZdFS7JN9PySFuPneC3UsuNdtV6uwqzXYnVsczoXG50KTW7lJmdy/XOJWZHL04ZTk4bTk7z4NSJ4b++bz8Lc1GFpaUgSx/FrX8J9ogH17nLL5cuKkZZeU5CqdL1DfshlTUB0sDOPHEdZV2Ah7y4qTDnDkIlGFJk7WLrLoucW2xm5jmJRXbWHGViMzlEYwQrKJ38e/qbsGBzZR56xX6kVu3tsZO9OG2MOmgZvj8CrqgwMryZ7X0menu12sXrJnndlPHhvxzmP5k8LCznwLgCM8uEkk94I/vu3uj0Wr1fHk7IIfGlduermn1foleCdI9FozCZBkP/RIB9TM999KKd+MS0+v2xYH+Y77tWKi5yWjXVEbdCFBFExzXmOX+kZ68OysVxhXbK+PCQD9GLJpehjwxXFbTmLS3XhXTZ+JGumhI+rwClFbjpFUq3Ze4/pF/BHsznf+vZ5+PkOm3wUuchlQcZJGS6Cw+7ypguRPYtnEIW1yweQTBXLcb8RSDabf02Qt2OghoTUcuims2iiCkOPUJnE7wdMOEVZFIHfi1o7zuE6iaVgmzfz2zlU9otlwSHeu3UIjvZQ1Iqg31XOM81syZgmsEZqG4ln08P5XhQai5JKjE7Po/uiJHsQPjV0gfsKDCmhKbbL+yrKyM5hXZGrpNSaXVZZN4YIzPC/gW1m/oleWOMdLrXSfTg+Fq13w90BWKWQx2VRZbhhfW6mExotJ8ZrNpEvnOYiZm5hX49K1rtNzuWap1mSqUb6CcW0zBF++nmuc3jTy2zh+I7NO4Jp1EmfeY8PU050+8kF9D4ar3rq/Z9Em/AROjsQT1CxJCzVon9IizDiFmNbPcCaVq53q0AJ/ndhPGhoT+wbxwXRhMwikL8wEPO9EqjmxcnFNop08PDfwFTHVMYmELLQFiAEJEIHfdZ7AT4cwz5G1Se4REHhnjr+6OlG/QHvfangb3Jw8vdRfXaAK+bUOgkTJIHv4//abMwyDcEBfmkz4QynVETTA0hqnXFxAPQUTsM7eLrZjSVlhodPDSuyE6eHRyxmf5gg9NLy9v95KspmGvmZvr9rKYqv5WWT9oUWRlXN+Xt4uuBbAu+eFji+x5VZlTr3b1ukt/KmqrnbGE/6DwqLGUEGxe6gkAAMbm8gX5xW3hMldbLb7cvQZ2q5Z43hMq/I++aLAIJvXDgEeb8gBD/Auwp18N85xyprlzJ8qKMSm3gEvOBZtakcfUn+t1lYV+J0aFK7zQ7VLeNfIeoQhhuBezN2AOMmbuXbrq9cWSx1Q4mZ6D28/SxjXwb4Rgmt4jmQqxnD2bd3AWzglhU7DKdq3v4mhnhQr+d7sWJlVqXByJXH6TbsBghyOAv/z5gb8FUiugKvKReGQJEGNq2gLbxuvFCDp7kwcmxvl2Bk17gZHicDA/KyLdSfSQzn6YKe7I2VWbnO6VJjYJ4KMbUCDlGrDX4L8FeTL374NLIsCIEVl+Vao937ccQDQs75FgbThDKjjLoRH4HbtgiXgSfRzGyDExwEbMb2Ja/R8pqrA4FTpLXSZ8s52xm6xHMDcLg8Apg/2/QFDoozN7Ltv3DvL7Y6ODFST4zc5p0wXd4mQJsfBgEJcD+tmqliw+n+JyMS4JDD/MfLQh0LOBcCkYWZgQxRxOtn9nS2HK1RyHO8qGsSrXXjEDJGneFDcZBSNRCAXiFSFWYpJz8tPzLV34vsB+hDrqYtPXihDGRv7yHXtRAAQsPvs2geHKyfxmBIT+WxfUf6QdTpHMKoASSWq53fZU8EG4F7HPdpGpj0At4ocJVIQVAjBkMHPiFuhWy8BOXTRFmhg1jiJGo0MIEI6gct3LSCCc1lxCqE62R793J12whX241vgu7BzATpqoxGz549ihU1inMzSLEFguZVGpkO9/QF42WBhRZqX6cVK30ur/pWtACwIg8inh0O/3y6kCez07LJYnFVocn0C0NfDeMx2ztPUH4Dr8ZEEHoR1Mj5/ntrDycXmV0XaTOkgWZEcYugNOiBmAPcpIED06oVQb8QN+xuSmchewfycdXRnKKraxCK6teGvI+WIJKBg9+gJ8YFx3itbJrIr3/KV/XxLcjprkUH6A75jVPODWwFy09Bt0PonN9k/vJjGB+id3OQ+LLzKy7talb2VqbKeAaDJm9MLJt/YESMhlbYdIW9s1V0fxSs5MPZxZZaTOay7axnxwMQwkocyR+6GHnmkqjO/QLnNRpUv5G+g2ovI90NgFUjl2iWn9E0y3CZPDTglhJuJrH5An/8on5v/SHfw7YM850Lr1JHhulDfbgVJ+TMl4+fQV+3KQyRO1HTtQTv4CxVUIleVRKJ0hkYJqLg3z3vaHLa7R+XpRc5CRNlc//gr4u/DWF/8S/u5ixva9z+XOybFL4fD8w6hOq9B7zQxOa+A6YOA8EEBzm+xcB2HfzukmFVtblat4OttYEoacpTMhhLwAywvh1rNKmj90lV0QKys1ufiurxGpXrXSfFxm/m66FyblQxwOWDDChhM3nsT37XzN7lxsutywWfl25b6w00O9m+swOM6VRu9lPEX7oLbx4VPTsMrvDiHDvF835DWw3poiAzU6LmT2AvejJu/voljsC44qt9rk4rtTOmhWpPMg3WswU47YENQtuAaCbC8k6AWca4f8a5aHN9NOrwvl+lAZgr3ZbpN3YwHZiYkNm/7uBPXiLhvmBB4xrq9U+fpxSSJLK7KxqpVt9ZOBY6Ywx0pDR0pDRkTPrw38ZFz57XPjsMeGzRoT718j9i5VeeU67XJJQgtKmRf72HXnHpirsEeFeeQRZ/xXYgzj+W/eDCdGLfE66hyTUqH3etx63qCTi+qN7Eg6UY5YY0hc7C8CWFeaTQkUEM1dljUsiM2uVbh6aVuiml0d6rCBPaiwoHPHF7W/9bIptWzGIT1lLPrw6UuhxUvPdtsV6h5tCNXvojxYDyYkA+z3PRG+pUTr7cIofZU0KnH+I/2zyELSfxMAnASRAaXUcrFP5e/LuVYHCSquXz8kqdNqVq13mNtdvcb8wecSFjAQYhLEkW8D+v3t+jv/z3w/sBw93EwpR8vjwkPfRiyoMSragzxQzIT1SDvjt/yjcoRjYr7w0dH4BxLIZFUaXN8k/fivjn5DZu/E1Zp/n3QclLoOzO8yIBzn+kVjn11P8mC9gppqYYApdREFpEH8f6l/HX4Yj3wEEYYYo2oLW3rNn+mUHL54cOP+qQ4Ur0YsWk11ISIQNDIwEEcb7wEOiBLyiEbTNwcfQ2s023BgqLUHt/TihQukwJzJ+P9sqeO8u4upBvm4meM5n5ZKkQiv7H9Hp++hmxM1WeaBAxiCEuhqPrKYfTAyf6UOZBW5mtd71Cf3vCm9iHGNi0xjY09fHREDo5HGSapXBa+m7dsxDHhw+tt0ZmlCt9vCj9mVGt8XWrc1sVxPfulC7tkrv7TezJ4WGfoSe0nnIpTZmzn667c6mUwd7oRtwOISqTWzn7Mb6MrVzgRNXhFIuC+d87r6l0RCo54UBdSy0bfFGCGtHeDZDvOEj8uyIaN9ClFXktC/ROyyUrg+wfRgjmKHFXYk3PGJfX2l29+KEApw4LZKzkX4hrHsEXxWILMfd61+3oNiBELIJMgfsC5EWEDCvbDXwauXN/gEv/zlgL6beyW+7i+uVs32onRdljFbOfMN9IsIlmFF47DH669cib4K4VxT5xRMSM71nlGCVN75mPTQq+hevnul3kmu17o9HbwrTQ2KosCBownU/elL/9kXsbkDdmjASoocelW6qU/oWOGkFVspo5ayl5jyJ7SUOUC0oc0N8/0Ll+hjYF5lZVyr5u9gGMCVlJucikYNgH3TPMMacaofZlhfNe8ZEzvKgVB9KL7WzxskDl2jzmvlOm5vimYYfLMpBNoB9tLTYyfQ6CbVKrIwfwNwyqe0Q/Rfy8eTmC7xihPNYaeh6+v5hvmF+ZFK11rvYzJwcHvqF+5rEAphCDhHlwWeMOVXqCWV8E64XlAnd/XTrncGJxVZ2rhNXbGdc2ZS/k602YbCbIN/DdRK5PYA9FqLw/4e9rwCXqlr/PlOni+4Q4wJ2XYM63ZSAlIqIgX3tjmvz2WBcwcakEUxAFMEmpJSG09O1c+X3f9eemTMczqB4vVJ7nv2cs2fP3muv9VvxvutNWPkJhmnwPZpzufPcQi2jAKUMCXZ5VblXyAz1OGL/sUhxmz2IpA4Jd/uPdpc/ks8+nhuOp7fR8+gMYrBFC64jy69yFpVI7fNQWrHc+t7gqC/pu6vZZ2vpsl/ot7/Qb9ayZb/Q5Zvo0k106Wa6aj1dvoJ9ME298YJgz1I9uVxJGxn8x8vKw0HqgViLoGUwyHOULW95OjGFBVbhWRf5zwDtOLEPhhS3z7j5do1LLY9MENXBFl1s0kVqboh3ZEj1mUqCP5JZY3x9+pO0ApRWJuf823ehk25DVBLDNxrfqakyTSgYFWWcBnj9rPCUUZ5jB5BUSIwkdXsmeIsHrPNAaYxgZx8h9kV6eona6tKGf+7mm8M8iLiR0xsGOCjghVGWzrR6tnMOemGc5/RBMtSqEGWM9B/zqnRPDftVZSoWHu+YKUJgE61PUw1/56w5sXcLMT5xlIfaPNoYn/UOKi/6Pup6B0+CCUvUGr/3QD2lXMm42HnaYu0tyK7GJdDJQNopIzR180wkIqeU/D1dNMF76gA1YwBNGyx3mAcpbqtb1NkX6CmjQj3exFO83C2yzBnxJCD6lODv9ykfUtOACBw0XCCSgwYAyJDfoGUJjdDXM5Vqa/QVt+4ZPjjQqVTJHuHv9UroHj+v18GNBdgGodGhIl06BoMOmHcqpNcTsdZr2aYpgSsr5Q752F6iZN7iLd/F1mJQGkKugDq+7tb6slK59QCSVqS2uqduzG/kJ5kHwI498gGYDYdP0Z1wign2M9fXZM5Y97GFWnYByhke6jJTeUJwomCUTqnY2QtiPwB02+nD/X1+oB/JEAVcR1QOsbp3tSlj/H3zlOxilHunZ9g2snIDWXKbb1ip3L4s3O5WX+l6+gWG2NWQWXkn3fBwPYjx88C2t5nOPqGgm4KfD/iHYE6DzDtdfuBC+YQCLaUIpw5zH/dGeIqH7SEEcuLB2tY8Dn3T6BWbF13h+h7265Oeq8rCrQpRRqnaenCw+2L0SoDXYKJBFC8O6cKfU28eLHcBOaKaeZU7bwP9UocgXcDBG3GtW1wKKOx2RDxj8GASq4KwjwCG/Kgl9iKRqO8j/NJ4/4nFWma+mjnOf+pH+D8hoAoJez3qjwyjFsawQSPALwzpRFlNv7qqNr9KaZ+P00qUjEmus38kn/u4R2KyDnazIgYFZKzSVKrpVAUvaOEWgTGRqORjru/wpxMazy+QYM6UotyJ9ed+Tz/VSQjLSLjOqG6+54XgbcNCXQtRarGac42/eCtbo/GwWH6MxRQLS1fKwNBD0khgN/3lKf+1QwNdC7X0QpxerrS51pu/FNxD3SpsmhE4qxBFZaFf2Q83+isrtJxi3T4i2HNG8BEPhIUhCuRWUOv4b/d5J1SpHQuUtKFSz1fl+76gr1/uPK8s3Ko83OlB99htdJXGAmCQSliQO2eE7xsS6pSP7YVa5i3+qs30Oww5HnQOzvTIx+re0Z+qDHU6T0/OR5kXeU5eprypMA+mWOE6BO7gSCMKJrImRHaQoJMEsK74WO376pRh7l4FKLNIzxrhPW4hWN84EZVg9wJJw0I/ks8mewYW47RBJHWoesx/1LsC3Ckc84w4hnF/YR5zQjUILCvyljFYTCHJlZvXfCA/MybQtxBlD9TTLpBOWIBedvFqmYd0rujCvFnESFcwhO6SEaQYCIRZzUo067L6f5bLOZBYTG0/uaF8I/1ZIRL4b8PiDFIKwfcJL4PoWhj3nxEu/YQ/uixwbiFOG4htQ0PdZivPBEG2GVs6426PO42sKxHWBVQfOiUUqTVs7V0QXrT9AJxSoGZc6O75BXqpjv0GWU9E5C9GIf4GmBiJCLUQGjWSY0HDIC4OryfLb3dXFIdbnYcdxWr2Vc7zvtbnhFEQ4gFTrDOtgW2Z4b9jqL9zsZ5WomZPrD+3mm9UIGobMG4QCzoyW6BcyNzAtWq2+fG6K0d4uhWqaQOIvUDNvtR19hL9LYm7RaZQSLFKRKDvuCb+oVNBJiGWOeJqA99xk7O0QmmVj1IqQu0ebZy8h/4G+XsATCOKpcgLDfGFhGgZojpAyukl+vtjvX0L1fQyNXu8++TF2gyFe6iR1wdyJjQt4vF1opzKXILdqv+0PJw5CKUMC3Sej5/28mqQWIDcjag8sAy/N9FzTqHWKl9PGxnu9h55ROYeBh4USBceekDFRfRA4y8Ebo4cIJ0Vh0h3BDtvSMUJxCgRsedUo1ijaCtZf7fzwnKldYGSWiW3v80/ZBP9KsBcmGAEixHEboNouEDfI95mhGIdSYxoDXzjQ4FLKuS2hSijONz2FufQHewnyhVdZAby85rH/ZcNljr005KL9KxLnWctwXN8zCmGhxhJoPcGmzvEqQru+eAOgBhqILX/CdxRERa9I2WPa+y9Up0HnsbA8IGIVebBFWT2OE+ffJRaiDJGe/v+RD8GmQEsJqrOg6vJ0mtdhcVKmzyUNsHfZwl+eT5+9qLAqeVKu1H+414I3NLAtuhIFhwa2UY3PFg/tlJqW6ilVYa7PCpd+X8KSibWDWHF0nKfgsxEbD0wBAwNf0cWX+POA42tml4mt51cn7dCnxWkLoSEbhTMGCK5fWEcQiI0cAmGoBcU+1nQzdyf4JljvacUoNQ81VYld7zcnb+F/aByvwZEAXY5Pl43Tbt5WLhboZ5RKude5yr4hS7XuCxcFhEB/UjLjJ1QfYk0VpFFIDY2E90fu+HvODk4O3vGWJh7P8Ivjg/0KYTEHqljA6cswi+FufOPmCztDQwjTNGJ5OL1b4UeG+/rnSen5yvpFVKHO+vGriSLPbxOJwrGEmVAlUHEAnlnKWzBqaTrsqbLfl7/Hfn4rppxZb7Og9Tsfnr6hdKx08N31dJthIN/ORPhYlx89wvB24YGu+bj5AI96+pg4Ra2WuWS8E3fOzAfJOFFlGoB1vA1/fBfvpKycNt8klGIM4cEOt/rHvUrWyVTWYWs1ZoIAydvZt/eEKgo1XMKddsFwe7Tgw95uBM8TCHdje7ljTPlp4YGuhajzGKpzb88pVO1q8cH+hQpOcNCJ3ygT3FCGA0dDKgpDfKG6dI9VeGOg4itQMu8OVC5mX5rEHsGmaFVmftW0I9Ge/v0w6kDaHqV3H1K8JrdfD1Gik50lYMDCgTtgCg8YtsKUehDGg1tZT/f5b2wNNxmoJ5epOde5j1rBZql8SCiishWQHUeXoOXXN9QVKbnDGLpVVr3F9BtfrB+EhMkTvIN80XkHxJxf2XIlAVSCaIThpi+m2+41zm2Ktw2X7fnofTLPQN+pp9BlskE2lHhvow1Gt5Of3rAddFgufNAlFyo54z2nLpAfS3AGyFnKJjNRdpj7Mb3HkiRb5hLP+DFl/nPL8DpA7FjaLD7LOXZIG9MPMNbLAaSsCHIWqSGmGuR/vpY92kD1NQ8PaVKzr3ZmW7/H+kAACAASURBVPclmelhLh0rmAUQC4I9Noj9QCQgDItBhqVjKcDrN9GVz4ZuGO7rma9ngDuov+vTnivr6Vakg7iCUqxxVUTQu2NwoEshTinW0yY0nF3NN4BuFRZK8A2IcsfCWQuyqeoy960ln9/sKilTcgcQ2yCaVqF0vMd/4XryFWimqEwQ6O8x8AoH9hFLM2wdda7W853/cpaWK63yIsT+KkHsRfZP4RMtlO/A6Am2hNEmYv/BOEijnlKiZ471nrhYn65wr9CkAEObqEKUE5mHv6UfX+I/JR9lFOiO4f4ugtjvMYg9o0jh/qX4nYmefxZqOQVaxujQMe/jx2Xuo2BUr0A4CgjLCTu42AFjNXrAKAJhP8RvBEcvIfwXZvktV4qAko5iSpx099PBayqltqUoq1jLHRE8brp23x62RdcQAu8cBOsMWOvCJhz4UdioIhCAI+n/3E2v8uWXKNkDcWpVqNvjjZNr2WZwJhQZV4Pc/Z7+zOjwSYNg4+QYFzrmDfnfjWQbZDPGRHgtgFmjYSEEY4zpCgrLPLiefHdDXV6xmp6HMoYoba9q/Oc29j2ocpiKIQcyDfPQCjJnnKf3IOwowCmjfb1/BGKvcDBORISjOrbtYe/EMhFffFi43dPqxAfkMRXhjhVKm0nucz5Fb3p4LbDywgRgK11/f/3oMqVNvp5eLnV9VLrSxbcCgwuzsuU9nvCXE9Qe9kUq4moN2/pS8I7R/t7FemaRnj7c1/3f3ovX0GUS9cOMwGDwADy0keUaMjcKrw2sUaqFmXctXXmz/8KSYLsKrVWlkjm68bhXQ0808l1izwD5Vijs7GumqjcNk7rk49QSJfNaV57IoaoINg8D99wyW9LyADh0rh5MYr8Qvzgu0LsApwxAKWMCp3yEX5KAKrTc64khY5gohEqE6jvpTzfWVZarPQao2fly2rhA3/ucY1aQ2Q18m0oCmKig7xOyGJG8DEHAWRpy850ryewHG8Ze5D6xCkEq0rxwm6vrB22ky3UeFrtGiMKocsXF90wL3A7Baoi9QM+YHMz/rYnYC67O4PhAYIQRRjrVJB6o5799qDw51nNKnpY9CKfmq6mjgsfNVB/3Qhw9mWCdawwxEONfFygvQbn5yDEs2OOVwENekFuCuwEhRGLS9/TTca4+pXpmMcq5INzjcnRqldSxSGs93vnPb/BsiftATg3UDAd53XTpnspwZ4jto2fc7K/YRFeCpBH8f1QMLLm8hf50fX0JWCyztGItd7T3xHe1KW62S9cknWoqVsD8Xmc6QVjk1dZxsI5veld74gLPccUoI4+kFUqt7nQO/ZWsRFyFhIRUF1NaXo2XXFdfVKjlnk8cVWrnV/Tbg9wNW2qRBnjvvxjcvSDTVAj2CrAyYZ1hP29cjt6/xHlGsZ5RSBwlau6U4NW17FedSIl4QRGsgOoMu1jtfP0lCFqnp+Rp6RXhLg+4J+zha3QjCyds6wkwZ7ClbnnK6lz5Di++zNevAGUOAnuonh8qz0PKGaNzEw/EZr8YxB5BfFNtJ1v7b+fEoaGu+WpKqZI1KtT1JlfVMjLbyXYhCAEGFk8gOxebRiG61REOeVjN9/SzpwM3jnGeXK50KFAzi+WsK13nLUFve1kjpoiA4QfD1AiXe0dVoHM+cRTilItBZ5+A2HMkM0kT2ykvq5mjPTM20KcAQcDHQTh5lHTcW8qj1WyLRiSQ1FIs7Eqatez3vkaST4HZaS3fcb27uETEatxbjC9i8wkvD0gM3xKxH+PrPQjZCyG8RJ9FQOz9Ykst1BEJqgA+mzwEYnz/KYUoPV8Q+3lYZCsHc0jOqa5w71L89kTvGYV6Rj5KHhHu9hZ+2C/2wToLKtynMBWmXAvDFUwzxOYbcm4aiRtUEfAlAQsKtSRgXwmkJ0idC0F10rtIyeyvJw/UM8eFzv4AT6tjv8nYh0BYJYvAVgwTTcTEVQmTdearZr9M9d4xOHRsgZJ6PrKP8vSdL0M2cCiVghJa5YEVZP5E17llaqtilFIhZU3ynP8peaee7gqxIARPgIkFhmLAUoPoQlaoextbPR09NNzXpQA78nD2EH/Xh9wX14JBqwLObMIzOMTDX5E5YzwnDKC2QdQx0n/C9/RjGfyQYbtMGfNx53vqUyMDvQvU9HItc7x24kjtH4V6VmW47T2eC9fT7yBsOQ1zcDHAW+i6B+pHl6qtBuG0MrnLI/IVLr7NCO+xH0tqERZP2GFzVeNSmHt/Jl/cVF9ZGWpXqGYUKjnDA8c9GJzwM/3ER2s0FIbshSKWHyQK4lSnWKWQmMrLnT/QRXc0jBoS6lagZZcpbUaGOt9RX7WZ/SyCsiChSwFi7+HVz2s3DpY6DyCOQiX9avfANXSpyhVD2wLcb8srR4JBechcPmjEXuJCjC8WmoF62tjAqYvwKxJ3i/jFBwYP2K9ijWk4hOs/1d+5sL5/kdKpkuSWyVmDfZ3/5StbgKftZGtC3KlzSWGyxGQV1F1SiHl2s18+Qi/e5Csd4utYGoao1EVS7ljnWQu1F32smlIVUxX2ThBVR3fy2mmBO4YFuxZArqqMa4L5cTv7vYi9YM2ZDjEaZJ2GttEfHvZPrAr3yCc5A0hqidbmBm/5t3ixxHxgbgSRteXN7PvrfZXFWqt8SHPSY3rgYdgQQ3brEGVEZXg333ivb/gwtW2Rnl5AMgpRRj7OLFTa3uebsIP+jKgECZ3AFwCHecOM8H1Voc4DiSNfy7zZDzt7cKEGlyoQ0ROOvKz6Df9DF/h7FOD0/sRRqOZM8J77duip3XRzgDeGuUtlAZXKEgv6eYOH795Of35bnTLee/YgOasAtvWZY4O956rPutgeIR5UISknEfa9eNHVzoH5Wub5umOw0uU5/bqdfI2X1/h47b6Hh9f6eV2Q7wnwOherF+k0cAPfPl25bXiwVz7NLiAZw/w9FuNXwsxNIDJBy7s6JnRkOsMKD68jyyY1nFcIJoTphXruZa5zvsIfKDyAQaYnXAjBwiqh5Sbm6g/440ne/oV65iA9dVjgmFnK1CB3H/jOnuvUEMwoMnX+TD+/tq50SLhTudK6WMmpVLpe5Oo3Ez21k63289ow92mQYVMKc3+YuYOssYZt/ozMvMt34VjfiRXh9sVKbrnafoy/72vKfdVsc5iFFKaJ5M8cE+Rk22b47xrs75JPYAcmUty2TOyNDRlse8BkAO9k6x5xTxgW6lyE0guQo1TKnuzKW47mhpiHYUSJjkBAfYCfSA4KrHGlhm+7zl1YhDLOp9bycJvHIzp72GZGlkxYOg0Jj5DWxu3sx/h6D8DJ+SRjlL/PQv0VmXsjCoL97OwZVXjoO/rRpT7Y2Q/SU4YEus/Gz/sggl6M2LuX4jcv855WpKcV66mjwz1fJXdX8w0+vifId/n5Dh+v9oLPfU3cUSuuwEUPr/bwah/8rdUhwyEY9UELEhAAENeAvhBrLLSNff9E4NLBoU79MCS/KVLbT3CfN81/22ryiYtvkXiDzgM6l2UeDHOfh9fV8m3ryFdPuv41OnjqAC0zX0stUXJvahi8lf4I9mJGtiima1TewTY8EZg0NNA+T00ehB2FWusJgfNnac9uo982QskeFRRtqspCYe508e3ryJKXA7eN855aoEDQ+/5qxiWesz9VZwJTC25u0CTMWJDLX5I5o73H96P2AdQx3H/8KrpIghDUBgNDVS79SD6d7CkoDeUUodQ8nDmAZObh9BH+Hq+F7nfymjBXNCpzDIlMttG199ePKVFzjKx3j8pXuPk2MBMSArcEgwzy10AUT5AXUURlRMNuVr0IzZjkO6dUygGeXk0bFup+s69iEX55B13t59VBXqswL3g8UhRgoRq+axP7YSGafp134MhwjwIFAjAUyzmTG//5JX7DxRsw18BTH14CxN7Fdz+n31Ald+pPHflq+mR3/zX0C5DgArNpDO4ElT20Lx80Yh/mvoXopfH+PoV6Wp6WPtZ/eoTYH+D+SWQ/BB2nSCKpuGCzMv0S1/mVUtsyklaspA4OdxznOeUO98i3tEe/wO+sIgvW0c+/Jx8txe+9rT5xp/vC8Z5Th8odi9WUEuwYLOeMdZ78lvJYPf0NQwJjkdcBdHJcBTPOuqn+24cCsXcUaZnXBAsEsQ+DFa2RjDy6swezAvDLEdtijCTmWorfvdKVXyy1FxnGskcoJzwSuGI3Ww/2nwRI1Gb247W+ymI9Nw/ZhwW6zwg+7OcuIX1TRBh84uE1s+UpY/w9S1DGecR6NrIOgJQn3eahFwKsBnaHoK2CMRvkDa+G768KdRpE7SI2ftUm+h3kcQZiD7bWlFKJuDeRr2+tq6oMtu+PrQO15Aq17VjPP+5sGDIjeOci9NLn+PXleOZy/YNZ2tNPea64ub5stO+UAr1NAUovCmdf4D/mPufo38gqjUoYOGgk4vAgmfu+w4uvaRxUYniWk5yL9ZPuCY581DfpUW/z4xHf5Q/7Ln/cN+FR/8WPeS9/uvGmT53vB1j9LvrtvxoHlcpt+6GMfD33alfeL3SJgoPAyiQi9lAHTDjBTG1gm19Qbhgstc/XU/JQyqjQMS8ot3h5DWLAvIvbwHU30cREkM/+k8u85+ejtKgY/7kAdx4osRdEDAiBITj1Mufn6N2rGvoP9XYrldv011Lz1JzRgRPvcI+YId//GX5zBZn/A/3sZ/rZ13j2h/qz97jHTfCfOUTqWKhkDlAchWrWmMApzwRu3SYYOxFrghgRBAgjjWz7dP9dg4Nd80lyAUq92HlWLd+ogB0DdHa8GB+YSwziMwR5VJjMgt/jBdc2DKySWherjjItvdLX5eHQZPBcpSGENRgyB/oRiyJlmsalWr71Ok9BoZbWn1rKQ60fa7gSxPgMgvQJkzFBI5sTe13i/qX6B2N8vQciRwHOhJ299h+hVkfCsSJRlUC0JPPg93TxJd6T8/TMgSh1MBD7qfHEXuWeL/HbkzynQdYALXWw3Pry8FkP+sY+6p/waGDCI/6LH/Fd+rDv0n2H66PeSY/4Jj3kn/hQYMKj3sueq7t1K1kj8xAEbQP7x5ZHlDD+hf03YZrEnd+iudc5C0vDbfvpyQNwaoXadkzg2Gu85z/kG/O29uDn6PWv0Ycr0JwvtQ/e0554yHvJ9e6i4f5eA1HaAJxaFm59aeMZC7WXnGQ34ZAOB/wkmU6IHsL+b/HsqxrPLZHb9McpeSQjP5wz3nviXY2VM6Q7lqJ3VqHF36BFX6B33tOmPOa76mpP0WjPcRVK6zzsGKCnDAn1eth11Q5hngkqaZABYExZgEvLydyxnt4DSPIgmnKB//hv6UcSpB1RhPs4mGXsZpsedU8e7u9eqCefR+zn0uT+asol7rOWow9lFtRATgWR7TEP76a/3F8/rkTNzsN2kfXucjcE7oS87wl5JYBVjqSMAnE/YlRVqbSbbX5Dfni857QCOSNPd5ToWVVyh3GeE+9xj5ytP70Czf2ZLl3LVv5Ev1yKP3xNue9OZ9UV3lOHQlDznEI9s0DJGO8+aZ78jIvvCLMgBJESnjFg1sMEsRc7+4E0uVDLvNozYC39TIXoC4gx0MmA19Vh+DloxD7IPfPRC+P8fYq09Hw1c7zvjEV4egiW1EQzORG6EMNAWNoRCExBFRfbNVd5+cqG8weH25VqGUVqajHKrEDtRii9Lgmdfk2o/42hAVcHz70ocMrw0DHlattCNaMY4q6nDw63ntR45nvK/6tm63UWRlwC7SAYcmmEEYnLLl77nP/WocFuBTilSMu+1l+0ha1ReQvEHog+LHkiIziEyFBq2MYZoQfA/VTNzENphSTrQl/vOWhqkLl0pikstJH9eK2/skRvDYpGQex93EmE8hC4SUiF4vqFLr2i/hyIbUmT+5HUQpwywXPaz+QTjQcoOAcDacGc+Hg9BNUBa3wgEjf5qzbSbzHVDHs4KI1QzEJ+Vr9Ee+vK2oGVoU5FWnY+SSvAKaVy9kjpmLGhky6STr/Ud/pEzz9HB/sOVTpUam0G6rn9aU6J1mqU6/hbG0eswvN9+h5CEfhiC8tASlWZe1aJnX2ZkjMIpfSjtvOJo0DLqFLaV8kdmh2VSocyteMQJbdCbVMpdbvQ2ff5+tt2s7VL5enjvScUSukDUEppqON/5Ltr2RZNV8ASCvT8LXyEyA5TCEWqS7z+GzxzovfkEiW9CKeUS60muwb+yr5RaECYKQEDl3hx4Tro7Bdd6js3H0NApKHBbh8qz/h5gzAXaOHViS9RDvpRwZ9AflNwHJqHpl1XXz7M36sMrMMcxTizQukwNNRjdKj3JPmca/0DrvXmTfKdf2Gob4XavkBLLSTJeZq9TM0e6zrpWc/tm+lPCgtC+CNQpkNHChdkVMe2vBK4ezCMzNQiPePShnNq+SaFhUHjDuxRTGcvYv3ARgnSB0Osdqo52Y6ZoYfH+/qW6hlFkBImc7jvxJna0418J1DlxFxRoobDjhNqpupcqufbbnQWlSlZeSS5ItD+sfqrqulWkGU1EXuR62QvMX6E2I8VOvtiLWuct+/H2isq94hNMsSdafHVgsFWFO77gS6e4Dm1QMvO1yCy5Gz8nI9Xi80ooKVy33L03pWus8uk7GI9tQAnF+rp5XKrCrlNpRilg6X2FXK7ZmM19rVC7lShtB0S7jSx5qzVbInEQTgH5hkJdikEvIc0sOODiEWSi+5YrE6/1lk4ONwtT00r0JOL1NRyPbtKbX2B1H184ORJ3rOvdJ5zhfOcceHeg7XOZXKbAsgAlFKqtr3Udear/vur2S86DRFKEATyEnF4IDoC9rHqOepzE50DCkJtCnBWHsos0HIrlI7DQ8eO9Z16qffcib7zLgmcNTrQp0ruNkDPGKQl5yHHIN0xXDnmjroxq8nXEnCHGKx4IT8GODoHIevdgotcJxXoKYU4bZTvH9/TxcDfCBNLCu7vup+7FqgzJnjOKNEz+5PkgTSjSGlzT2jcFvoTYjICAylGmUZ4oIauf6Du4jKlTQFKq5A6PwI7+60QO0EM5Rb7VHDMqthxC2YbDKAh7LzMgtvZ6reUhyZ5zhgstynRMyFtlZZRrrQbJ50y0TvwCn/hZF/Rlb6BF7lPG+3vNcTfukrJLNIc+VpOWbDDVZ5z3lOeqGNbkQ5m/CBOFjEtDZ29h1dPVW8eFupRgNJLlazrXQN/oZ9pPADDT4g0DnxOJGjc33v5oBH7EPcsRC9e7DulTM4tldpe6jnvE/SaBMLSlmfyfmCBhQ9zQqnOVY2FEZNq2c4v9Lduaagc7e1THmxdhrKKUGYRyi1Rc8uUnAo1u1zNKlGzi1BuEcouQ7mVobaj3f+4qbFskfafGrYFsZDOZIWHwfoGSBkikIlEdvO6af47RviPKVGzyqR2N3qqtrJ1Kg8Lm/KYgZ6gI4LYi2i4YPpKCJaZfy358n7nuAv8PQrl7HwtbXCo/S31gzeQlWEalFloM/vpRu/QCqVjmZw1ynvCG4En/NwDxB7oGPjdqjzYyHc90HjZCH+vPCW7SGk1JNThAc+43fQXxBQROhQcpCmHxM+vhx+6wH9MqZZTFm57q2fYJgLW+ACRiJ0F5kVUUqnkZDsWKtP/5awY4T+2UM3KJxlFJLNEzS3WcvqjtEI1q1huna9m5mmOIpzRX8ssVDpc6P3HvbVjv0CzXKwG0zCodSEnK3juMlCIBlbhxZOdeaVy23zQiaYNwml5JDW/pSOPpgykjmJkh7gFWquh3u5POCevZoufdE8aEehRKmUXSRnjnad/TeZJPCByrgoHipaGgljoIe61SEMW2km+v6d2+JBApxIlt1RuNdZz0gLlBZm7GOg4NZGIJCFvDuH98ceT3P1LlNxiNXuk9/g5yjQ/BKg54JFpiEOFToeAawMN1PBty9CC+52XTXSdNSTYLl9JGUTSB6HUQjWjQm0zVGpXHmhdLLcpRrkFelqRnlkutxke7HKts/9s9fkdZLOMgzpVVEjdpYHhF6w+4IzawLa96rt3uK9XqZJTIbe5omZAHd+kctjZ70PsIXqrMPyGVIaE4TD3/kpX3dc4bpi/W5GeWYhyyqVuN7uG/oQ/lqh7f8HhWuoIYV1mGELqmKv/FzLy1vrKwaF2pWrOYH+nx+uvrabbQN8dJfaCFWqms48Q+4vcJ5VJOZVS24vBXft1sdqCyAzcKlr+UMpknftXk88nOf9ZIrUrlnNHeHrNR1N9fA/o2sHSC6s8+DWaPblxQGWofZGWMYDa+1H7IJxcgNKL9UwwE0Gp/SGRVUpLgzatUM8pQmllatb4xr4/s8/D3EdgW58w/rGw80PA/4Cpt67gQCPb+on+5s2Nw0b4jyuVs0r0zDItp0jL6K+nDNDSipSMcimnSm5domQU44xiLatMbVsZ6DbRfe5r4Qe30R9l7AUnCRAnGkFFARIwBiZKA92xUHl1cmP+sGC3IrlVIcrMxzABB+HUgSh1gJYySE8pwKl5Wmqenpkvp1RIrUf7+9zvvnQNXq6wIKYahlINCwrgJMI8tAovmthwRpmUU67mjnefvJp+rkS29SDr10AlKm0k39/UUFEltStGrYvkNiP9fV+TnnCxakwVEZQTLBwIC9WQ9Y9UTxwS7Foqtx4S7PV4+FoP3wlJN0AwArE89v1EJKTCExgMFomQOkD8IyyxQDXbsER7/Y7aIePcfctC7fO0rAI9s0TJLlWyS9WcEjWnRMsuhqRQqYVacpGWWi61HhE46U7nhcvQm7Vss0wD1MjKC1pAwyzSMNCrfVG+faT/+FKldVWo3U0NRRvJMuFnD3JBIbfat6aHwZWDRuwlyHr36pWN517g6z7c0+uauuJl6nsqCySS0ybGEoznsBgIYM+Nwf5ZxaqL1a/FX82Rp97tHTned3JVsGtZuHNpuGO53K5ShUzVZcEOZcEulcFuY30n3e4a9oH0zGq81MWqIS6NrumqigkYqAnOWViTcj3AXdPdD45vPHlooPMFnmPvqBsrgldIgnjspbM3dvYg9hFul7ClpsjDapaqM6+vKx7iObbC33mEp8cVdf1mOp8JMI9Ole10zZ0NY0b5TrjA22NC3T/f9U6TeICBTzFRmaZzlXAlwH0fSK9MrO8/zNdjmKf7hIYzZmvTXGwPBg8cUA0KvRORuPtd/5PjG04d7u8x3HPsvQ3jt5LVBAx3KaTGBHYcthkyVXSq1mu7vtM+edl/3xWuAZXezpXBjlX+zmVSxzy9VYHWulTqUB7uUC61gy2C/4QbXZVvBx/+hXxTR3arQOkRRIgUpsNCjk41pvyElt5UPXS4t3dVsNvgYMfBgS5Vga6DExxVgU4jPN0G+7sP9vUY6zztqcabV6JZN+ysGuPtO8zd9QJPrztrx28kP6kQOVGISRLs6sASSmS01sDyGXvonvdDT453nTHEf+xgf/fxztOn1FwrsQYG/r4qhERseW2BUYa4slpfel1d5Qhvr+HeYybU//Oj8OuhA8+rBGUBrQW7Zcoxwbqm6jrBXuLZSNZ+rL7xsHv8Re5TBod6lIc6VgbbDg63LQ+1gkNqXa60Kw90Gu055eb6wTOlf3+P59fT7QqSGdBnLLwWhMcXkHwgfh66523XI+MaTr7A33WU55jrt5fX899ULu9L7MVGS7hjGSHHCJJY0Mcaluuzr60vG+rrNSTQc4Sn9+U1/V6rf6ARb020jU48Hw2rCBGTh4GQ6e6akaO8vYaGoDf/X92NNXSnWNkNMb6wHDDc8Jpc73SJB5Zpsy9tOGuYt/sIX69Jdf2WKO8hLsN6DDKDlqU7gs/QMZfX4RXX1BYO8R0HXd9wyifqdPCihhgYIIDSuPyNvvC6upLh3mOG+rtWBbqVhrpWhLoMCXS/wNttuK/LEF+nklCnIYGu+x6DA92q/F2H+jsM93aZuPvMNfSrIA8YliCJAIEaC7kXUGiEEFJVGnTS6l/IV+/Kj93UWDzO13dYsGdFuEOh3LZYaVeutS5SMyvC7cr9bUtDbYYEu09ynf+U+/rl6IPdbIPE3BTpwK8KYq9zEGqCrSAIaWRE5Ua682t9zhTP5KvcA0YEjqmQ2lRIrSqkVuXhVmVy61K5danatizcfkSwx0Xu42+tLZkdfmED+cHH6jANE6ZiCNEkImiBplyTeegH/ZOrqvsN93YfHugxse68deQrTWQFE1GomcpDiClOtudZ9w2jvccOC3Yf4fvHdXVVK/RPwsyLsALJH43YBFStJhuf3HnVWGfv4b5uo10nP+u9OcirYSsjLCcTAAiqGU4gj4AmQpiAQSTWNbDkJSpVPbR2A/56lvz0bZ6q8YETh/i7VgTaV4ZbVcpGq3Mr5LblofZD5B6jQ33v8oz8UJ62Ga8KsTqNhkHNSnSki9j1Qlsv+HLq5w2vhO4b5z5VzIVjb68Z9itehaDVIO4XfiMJKntoXz5IxB70hfIOvPaL8NvzpefnSc9/EZq5E63TeViw/AeEGQSrFJGshOoH5JoicCKjGpX9rG4z/WaRPn2Get/D3kk31Q27oaHs+saSG+oqb64Z8ZDrylfkBz/SXt1IVvpYjU4hwIXYpALvAE7ZIpIDGG8LE26NBzfIqxaHZ8yTn58nvbg8NCfAXKCaN9IqAmsaZU+jztYcDD+EkTwMFK2B7vwyPHeO9Mps+cX58osLAtNX+T8PMK/GFC+t/Sa8cKH08jzpuY9Dr21QvlNYUBB74ToqvH41ru4gmz4PvbdAmjY/PPWz0Js76XqZB4RwFt4trLnB2X2jtmpRaPoc+dm50rRvpAVuWic83YVPSiSVNRYeiIxirJJQA92+Cn/0njxlavim+xsvurlh6NWNxVe7i66tK72tbvi/XZe+rNw1T31xPVnmoTtUFkJAw4TVjNFmY0ljTOVaNdm+LDh/rjT9Q3nqh/LTH8rPzJKfmyNNFce0OVKzY+q88AuzpRdmSVMXSq99J3+2Ff/4WeCd+dKLc6Xn50svrZI+cbM6RA3RBd6PVFlw50DyKaMqpIhekgAAIABJREFUC+6kGz4Oz5wLUE9bGJrxTWCRRL0g1wD7xMSbQyD2Wh3ZsSQ8ax7kPXt+cej1LfoaBaIpJNpQ7me4GiJ0IfsgwiVbMEeIowB3bqE/fKG/+6Y05THX1XfVX3hLQ9X1zuLrG4pubaj6t+eS/4TvWahM30i+9rFdGguAz7TQKEbS+oBdGxVJO8FFS2G+X+XvFodmLJCnLpSmLfW/J3FvNN1WvELUKAJ8EoSdOCxuEO+PqfVk59fywvnSK3PlF+eHX/44+Or3wY+9pAb8OQ/wI1ZMmAuMkzDzfRNasEB6abby/ALp5Z/CS4LUHZGZQrFG3YRbmzgV8jGiM3UP3vJF6J258tT58gufht7apq8mEBIOC519QmJPwKZdqqNbvwi9O1t+YY48bXHota3oZ42FRMnAloL7Fvnty/CHYoxNnSO98KE8bZY8dbY0da445kjPfyjDcJ0rTWt2iNH73Fzp2XnS1E/8rzfSXcK/MaEpidFEAbeRVQhcvg2vE8QlH9u9kXy5WH3lDfmhR7yTbq4femND+XWNhZNd+dfXlt9Vd+FjnivfUh79Gs2pJZtU5kEM4hMIIYHQEgqHP8M8iIOBKihHCNdC3L2Trv8BfTpLffbJwNX31l14Z+3wW6orb66puqVu2O2Nox9yTno7+O9PlZfX4c+dbI/CwzoNC6cYIXER1uaAM0c6U+rw1qXB9+dKL8yTX/ws9E493SG8A0W4CjBM0ijXFebfoC1fHH5pvjJtofTyV+E59WQXAj9nUIKCzhBYUhKknrWBpR+FX5wnPf9R+JUf5c807gXJFIzkhJMLFmJhTStM4zBIy8BSF0Ljgh6B6QoLOtmOtXTJx9qMN0OPPFY/6bbaylvrym+tr7itbvAdtSMfdV05Q3lwIZmxhfzsZw2Yq0aILbF+ibhJYgEX3QSDVuaBddqKj6U3ZssvzJdeWhGa56YgGTJYASAz0WX+AGfGQb794BB74ZECXq0qDyjcI3OXyC0RBuVWQrb9gJGiBDxKdR4O8IYGtnU7Xb0Rr/gFL1uLl67DX27E3+4g6+vZziB36WBpqYMWrOWPIacGWboGQU4CMmTE8sjc+7uBVuLLE8pJpHDwcJW5X+Y+mfsVHlK5DNtNpqo8rMBFl8zdKoQ/U2BZjK7VINGC5kgqPOVRuFvjPsTD4ChgaLKN5RIsYqDVCvfK3C1zDxQFMvy9l8gIhyIYBBDFqzL3e3ntHrZpC/5hPV6+Bn/xM/l8DV66EX+zjaxpYNuD3KnxIKZKIoaMRKTomsIliQfC3B2CBIYNId4oQdDs3znCUFufwv3iTrcEX71RHMDV53fsYiJAwXQlXEPgqBNWoBoemfuMciJG4FFI43sndo4ZpMpQoJehDgrYyYdh5Uq8HsWe/SMnsPyBb7GucTnEfW5Ws5ts+hUw/2oNWbIWf7kJr9xO1tRHAA+DO1azvot7jRiaYCCpc1nUGTpd5d7IkIi7cz+nYmRqKqR48Svcq8CYAcQ0UAQcMLGPjljgwhFXVBjt3jB3ayyImUxhh5RQ6C0qCSQZU4igIsaARwUbdUkkoxK2UQnNoxhmGuKyDmnZAgo0ISD6TgHtlligYWwwFfGwJloq/96YbGnQGqPCq/IA4qrgsxNa5+0HcxEFUNdYKMRdTrZrO127Ga+CMYCX/ky+WIeXb8bf7yDr3WDQ7kMQoTbR6tT0EkGujMEACYF8vK6abtyKf9yEv/kFL1+Ll63DyzcSGF1utiMAPiBekflauAswSL4bR8ZAMwe+G0xDTDZWPAXygIiwIgae8D7gNUX+oZAKk9ejwJwNYK427XyEyAU6FcIOKkafyjCtQpHB8OfIp3DEhEqKAAlh7vPy2ga2fRdeuxl/tQEau2QtXrYJr9pJ1rvY7iBzIzCfShRNC2AUswljCHetaLBQe8X66Qf7LeB6xSja7+rR1BmH3tlBI/ZiyYPMzkisy0KJCDnAE9i0/hnkwAMZVCwIE01FMiIKIoqOJUQknYR0EoaAFRA1CfLcgKwVIhgn+ICHrmGHBmNLBILQMVDZhAxpiwUZSzOw9iAAh/gxYFIrAkAQYXoAMfPBbV3FQA9E4LMoFymqAIn+MASXkJEImw/skSFaMN4HAzESn18ULuKyiZCbYjPXYqVE9DLBMGOKdKIhompIQkTWmaxT+ItF5EGIWwe+RhApr8WCIi8HYgbpp4QZgUoYxGITwVJEd8COYe8D8Iw/xNYHhK5g7mCA0xSTJ4pGCxWI/gTtFzGVMSg1NcxlSP4G1suaiOPTwqPxl8QaAooXAoaZkLIT5DwiLlb8bX/6nIG6QUXQjxgTjJGuawqhmhiWkk4UnSigS4J0L+AniaF/WwYc6mBsGwUrJPIugpOx2AJG4fhjFRUyIRjYoPwFKYIAH2JDHdgIj3+boKwwXAlXMFfE3hEiSYteaNlbWWye4A+HCYchZKzIN2MYykJd9rvUAhhAfiDqjThg+wcSkehTYmyAgBpzBcHA0JqPxmaDs/lXCHkp2GsQ/QFosWhR8S3/Q+dg/Qv9C2kyNPhLVQ1LCBzGQL8GF4WXrM408JUHqcbv9KmY+eBuAaplLjwndQXBFA7LNCC4txDiks4lmRl7DE2n4KIiegT0AXEUGoi94TYIURdFD4q/apPbJBexCMQOW1jIQhBAMBuEajcfsUbPivx+KiTJhHtEi4yu+Z2WtQQoKDCEuj/iKIg0LsssqNCATsMqC8osILGARIMqUzSsgfJLqBxbKityTQwPw68Hi9kH45YASxfnLLqf5w/tnw4msRdWFzBdIkE4ohP9r0JMzPNIoRQ6GrJKY4wRVhGWMXB5SAiahKBd0JuErzamtDEuhfEd0M4/tw6KBSnClcaaLJYowwwFhFZwRNmeuGlgABWZyWIhEN5Xe+90oGKxj7E4wgoYK2/fNkKOZ/EW4zGImwZ5toXNt8jDJSKGi8TbkF5qf35rhvQ28nroWBFuHyyYost03IkBoWFDZqzjxlAQNwt4m8O+b91buCK4InilME6jIPmEQ1iB/d5yCfU3ZIrQBqFGhr+/u8y2UI1ElxiELNYgoHrErlGEeiIIYVUQf3COg+BIgpIYtGp/rxd4ijpG4BTSzuZLbaLKNF2HckSLjSUenFnh6x8ArKmMfc6MSL0geze6QDDHBsWO0e248S2eNyi9cQp0JFoJMa6jo2ifNxkXmjpM9JngraGIuFaA4AdMKOBAgoeIlhk3MsUIbOm64VxhCJmMaRoZLQkqlPiyqBsUF/sAg4yI0K5FmF/w5wV5XsT1Yn+FRWocWzrETAJVt4iOTJEOoWZEUEyxF0dgbA+BnKK7K9A3iSPWHWI7JvR+sA2JTiIxj5r4P2OOCXhjw2+fRDHRehstjfQpfBE/xGCP3vZH/0eIPfQhsBaGAg9iFULiX0jIDe3DYuNBdYxFxtlEZccqESFGQooIe4bouDXioCd6/PC4ftCIvZhJUe5eLDR7XflL0BMjX9A5Iw8RNrY+sD2lCoaNtbBzj6wQgklP8F4QXBv00lhyhIr6d6TKLRVl7DzEmmqsYpEFQyyCRmAOmAHGrBB6rKZ5JXZxxpyOVQLmS2x2Gi8UXILh9R9/WxTqFmsl4nzDUi84IgK5BWF10EXUbwQmNoaGTNRrb9YivjzxarEQGms0TBwjBoXRoBb+GsQsRtJAr21w35FVSwgq4p6Lf91+zmNzVxBvATVwUnuBmehxg9MSL45He38AJioq0XURUR24L0gvBzFgMUQtpIouwqQLZaTg+AR+gvFLVFIEnzj2LjI0Ez/Q8i+i7wCoaF8Yk+e/pfaR8gRLH+tGUQPBksGecr/ARoawMSUMrkvUtOVGGGKOyDMxRiGe1BuvNgZq5G+sWn/sBPTUxvCGkW6sHfBkgholvizUchGGFKzdgMAbc00TXjNCdADXRVjM/bU6ulAAknFNE348HGLgaxRpFLK1iyBxYsRFWVnIER75CIIZt5wIoY7RO7G7jYxK0Sfgf1M/RvDbz65CLG2RcW/UNH6GxZf6B84jjCOUIyi9yD0jYuOAdAqWLkiFZ5ioiqSPcXuzffrLGIcGgEadxF9oEnSxscrGryp/oIKH3C0Hl9gL9IzeEjROYBobfP81WDAthagHTuCAdRUOQddj/Rt/kuCdsCZHGMhIx0dGRIL7E10W21WYcs0OwZpG5lV0rCUcWrEfWkRKTD5jJsU4CYNPSVQpIYyLRIYy6iXIvpEUQpBeIdCLgZnQSd3YjEc59+i+WggpBF2L1ef3T6CuonmweAlRaaRmiRux7y+RMRXF9Q92WfxyadTCuLJv+X/6CkAi4IkQu8g+XiwsEBUJTJAEn0QiopG4dWqfl8aGb/y4aHFo7PNo3AXRRqNfjMET42cPuKimUuNr1AKjZfwcnVBNj8WdNZUgdsIRKrufKjXr7Ngr4sqMnkbL/v3RGBu9UdYEHjVGpjBKB7+6aKl/+D/wClG5F3gYGAGxjDhuMb4DzMdgJBjrWIKyBdkzWrPXHUKGAdJyo4joKBOmglCgYMSjlCy69ibojihY+0wiQwWQ4Km9qhP90lTUH+zT6IN7/28qRlgrgukt4IkoaD0U0BSAKkfsX2DY7GfMQBqLaPNbekfctRZQjvv1ED89iMReIBPfY/vrjj8FIyyoME9imifh+C4yIQplm7HgwmiHQyx3Cd4Tm+3ixCBDCW79ncsGq2hM5siCIb5EF4t4QJoXFTfS4k6bDdO4XwymG2CNu9i8UPhuzHxDZAdwiW1GRAgGbmOGFTRoWyOLTgsrtyhH7DAji2f0rZF3x2hSs5OW6hNbSiPilEj9/+QAMSrwOxA0VaPpLbEHRVOa7vivz4BQGEMOsILdkiDvAHtsrEb5VAPzBIBDTeJq+V9X7K8vIFa7JlibvWS/HRMjxPtdrONKjKrn93rv/tFrNiB/56sxdQWrZsjVIrxRXB3+2KlB7GFCob3XKMHuCVuB6LyDG+BIsPC0sHKJ5kNVo5KaqDDC4JxFhnV4ryh5L+GK0fx9mrAXnvG/HgiZN56L9WliGWH8C/ZzDtDD4s2AoYH4mBAmioCBLdE5EQaHhisTbK4SDkCAdZ/hlbC9+6nOof7TQSP2Bphi+MZmlzF5/jLIjGkpqKuxkwbLC0gkJQxYRE6L6E4B/gsmOuHLDQbWkHQZfIEx0hI+kOAH40WGrs4QvkZeLcZik0wsKpGLFRP7SQzw2FiE3w0AI4M5DtgYsf8dYOOAMrh9yOUlgAIpWFT5LdhjcWusTs1PYnWMrABQl2h1Y73c7CRaRqxF4gRWqaj8I46e7WfCRsuJ/I+UImbx3kUnWDGbPS8qHtt9//H3Ni+mxe8CRYMThQWXidymwqwJi52iED3FlmcxWFosR5D6prUzOhIOfP01So/1VRNg/03Dm0qJ68FE7WjxepPaOCpKjZXZ4v0i2gIs/tFBB7cLIW9Tp8dKMFb4+CHbbGS2/BUELyJMsdjNx3aEfwIoQ0IckRILaX1smYoIdsQUiOnFEr7CaFITIrEmxnbd0TUmQvpBUR/l4EFVb7TUeMw4byos7ixWbtMLxeYnsrxE6xeDNO7RuFNjpRV/49GLPh135++cwntgJgkJCaxXwggD0pFDjB4j5IiIyiCUFxF3jBbLbGqP8XOkoc3a2/yuFos6lC8eXGJvDAuDgpLf2VwfOIow5fc+hGsFaNwEmY39akgsYfQnfkmskhF6H50hiZ9o6RcxN6I57yPvh7gi4jCkSbEXNRM1xKbQ3nsXg7WN483FkGw+TA0YWqoRXGuGEsxdY+cS3b/AlGqqbeJ9ErzWwDZ2v6FBaPoaLSd2BRrQwiF4r+iKEL8oJGpEs+tNRca/MfqqZjfv9VU82cLI3Oum/+4LDIOI2CkmYTWuGFQqimGM3jfRquYvjimY9j458KWzqRNir4hhGLtyQCfw+D7gH1gJ0akBUybad0atWiwHjO/EAds4cUTsIsRsjZeCRH/fu4bxtU1wLqwsooMzugjsh0C2WE+4KMpv0gdHK9LUSsERGgBG+LlEZe2FSKxlsMaJUuEPOMiBExB4HhpGMdGSI2L82GN7FRZ7Yzwa0SrGtSJ6KdIoUGokXCUOsE9jVdjnRPRtVMcntCDC0EXQfyHSEIH2sAhpFR0/+xQiLuzV5hgSTTMidkmc/Im51fJr/+6rB43Y/90NNd9nImAiYCJgImAicLQiYBL7o7XnzXabCJgImAiYCBw1CJjE/qjparOhJgImAiYCJgJHKwImsT9ae95st4mAiYCJgInAUYOASeyPmq42G2oiYCJgImAicLQiYBL7o7XnzXabCJgImAiYCBw1CJjE/qjparOhJgImAiYCJgJHKwImsT9ae95st4mAiYCJgInAUYOASeyPmq42G2oiYCJgImAicLQiYBL7o7XnzXabCJgImAiYCBw1CJjE/qjparOhJgImAiYCJgJHKwImsT9ae95st4mAiYCJgInAUYOASeyPmq42G2oiYCJgImAicLQiYBL7o7XnzXabCJgImAiYCBw1CJjE/qjparOhJgImAiYCJgJHKwImsT9ae95s98FEYK8M2gezIua7TQRMBI4OBExif3T0s9nKP4MA45xyToyDMSIOuldJDL4xThncGT2ipNz4L26J/mTcwxBjmHIWvRGK4IyKf3sVb34xETARMBH4SxAwif1fAqNZyJGKQBORNoi9oOiCfMdaDCS76Ta4HCXyUVoe/yucM44ZI5STpoKgjKZvsbLNExMBEwETgb8EAZPY/yUwmoUcgQhESXaUdsPOO3bEE+Z9iH0TGLH79zqhHCg9BZlB03UGTIP5MREwETAR+J8gYBL7/wmsZqGHMwIgqG9G6UVzDJG+QZ4Z3BH9xJ1yFvmAzD+elkfP4TkMB6MRSg/fGKeC9seXFC3d/G8iYCJgIvBfI2AS+/8aQrOAIw0BIOcGsaeMYYwpJZQgThHDmiqH3W5n9Z7d27dt37p1e01NbSAYVhEB0TwB0TxjjBBEiY50mYNuHqmK5HE7a2r27Nixfdu2rdu376htdAdlVaeUcoYIYiDPp5SRvTiIIw1Vsz0mAiYCBxMBk9gfTPTNdx+SCOxF7GGDjjWGZDXk3fHbprmz3r/r9lurKipO7Htiz569ysoqXn7l9V+3V4c1qiKKCWOUMKozqlIUDvncWzatnz/7g7vuvL2qsrJv377du3c/5dTTx108ceZ7s7bsrA6rSKcUc0YYRlg1if0hOR7MSpkIHAkImMT+SOhFsw1/KQJxxJ4SThHVQp7qLZ/Me3/k0KoeXTq1b52bkZaWbE+22ZLT07I7d+01+ca7127epWBOQYaPGVV1xbNn+4Z33phRUVLYvXOnNq1z09PSbDabxWK12ZMzM1t17NRz/ITJX/+wzicjhTBMCSaaMPv/S5tiFmYiYCJgIiAQMIm9ORBMBJohYBB7EORTgrAW2r1p9TMP3HruKSe0ykhLtlqSLRa7xWK32u22FIvFYXVkdex58pMvvOEO6WBkTzQp6Fz93dJrrxh3/DHdstJS7ZYkh8Nms1qtFovFYrNY7DZbms2WmZnbddykG1et/S2oU8wIpZpQ8zerjPnVRMBEwETgL0DAJPZ/AYhmEUcSAphgTgnDOmcI6cGNa769ZfLE3t07ZCTbrVaLzWq1JVlSLEkpFqvF4gCib01Jyely4ZW3/7S1ViO6FKhdsWT+6GHlHVrlOBwpVps9JSU1Mys7OdXhsCalWK0Oe5rVmgzP2jLbdP3HU6/NqQ9qGGQCpp/9kTSOzLaYCBxaCJjE/tDqD7M2Bx0BQimjlCFVlVw//bDsqonjurdvm2qzOxwp7Tp2PvGkk04/7bTePTq3TU+x2pItxhY/rU3eiCu++HlLSPIvXfzOiMr8VpmZdmtKem67bsed0H9gwdjxFxeV5Hdtm51rt9mtKTabw5JksVhSrCmtJt7+xIY9Th2o/UFvulkBEwETgSMWAZPYH7FdazbszyEANvWUUqRuXrty8sQRndvkJltTkh1ZPXv1uenWO5ct+3LNT9//59lHzj3leKvVZrVZHVarIzXrzMIR7y3+6qtln48ZWpSdmW5Lzm7XqdeQ0eOnz3xn9ep127fuWLP6u7tumHRCx9bJNofFYgVin5SSZMssn/Cvleu3qTqmZlCdP9dh5lMmAiYCfwABk9j/AZDMW44mBBgnhFGiKZ/Pe6vk3BOzU1IdjtZ9Tuo35amXf926S1VUrIY2/PDF6KpBViuI8pMtluS0tHMKBk955uVJ48e2z8m0pbXqfPxZN935yMqf17mCAYQww5jooS0/fTm2dGCa3Qa6e7GzT7Jnl1x0/VdrNqug7j+aUDbbaiJgIvD3ImAS+78Xb/NthzwCjCPKGEF6/da1j9913RknnnLamYXPvvDurmqPqhNGMUXB3ZtWXDqyyG4DYm+3WBypKSeceMaAfvnHdOiYmpLZpc959z4549ftdQoiOhjnM0owo2Hi333v1Re3TU+xAZdgtVpSkmxZxeOu/WrNZg0Rk9gf8kPDrKCJwGGMgEnsD+POM6v+v0CAQSQcRjGmqr/6tzWvv/LqB7M+31HtUxADUTvViOZdt3LBqLJz7LYkqyXJYbNZbPbU1Kys1Kw0e1qXnifd/f9e/bXGh4Q+ALzqKIGDhVmo+pEbL++YkWoDo3yb1ZqaZM0sGX/dinW/6Sax/1/0pVmmiYCJQBQBk9hHkTD/mwgIBCjVGaGguMcaQYrPG/AHVA1TRClmiBEZKa5l82eUnPMPuzXJZoWdvcVqtyQl223ZbToc/697pqzf2ShjRikICChH8BdM/mQS3HPnlePapiYLOb4Fdvb27AuuuvPHX3eZO3tz9JkImAj8TxEwif3/FF6z8MMQAQhnh+EPYTpkogWyjYmGmY6ZwkhIDdS9PfXBM49t57AYxD7JbrVZrOlpuccMm3DzqnXbFR1RhjEljGPKdZEuj1Gm+Go2TRxWkg4efFGdfXLu5Pue3VIPYgC6d+7cwxA4s8omAiYChy4CJrE/dPvGrNnBQQAy1ACBRpTpkKkeZPqM6gQOjRE5VL/14Zsu7ZoLfvc2ixX+Wh225NyT+g19feGKgEZEED0dhAMcE8hmizmUIP364+dDB56RareDKCDJCuF5MrvcM3VmQ1BDwFIcnOaabzURMBE4GhAwif3R0MtmG/8KBAThp7rWsOmHyaNKMx1Wm81us0JcHYs9M7fDsf968PmdHolAKhwuotxDGh2RGQdxpnLsXTb7xbxTeibbky1J9pQkq91iy+j+z2ff/ySgIAQh9U0Tvb+im8wyTARMBFpCwCT2LaFiXjMR2AcB2PBTRjT5py/mDht4ego4z1mtFkeSxe5IbZ1XPmbBsp8CBNLXisT3kP0uegCxZ2rDK4/f0rdzrs1itVmTkyFubnKfAaNmfbVagaB9ImPePi81L5gImAiYCPwlCJjE/i+B0SzkyEeAUcYo1SX/3Fef7Xdiz1TQuwPZttpTczr0uv3BF3a7whKmOofU9Bz26QSi4oHSHzOmat7tt04a3ibVZrdYbNaUZGuyxZpRNeH2rzftVgmkxjVj6hz5Y8hsoYnAwUPAJPYHD3vzzYcVAkbuWsVX9/Q9N/RolS7C4NmtFofNkdnnrIK3566QwKqP6ZwTSjnhlEOSe84QGORTqWHzyvEV56eC051wzk+yJ9lbXXPftI01Pp0SwggWvMFhBYlZWRMBE4HDBgGT2B82XWVW9CAjwDAjsmvn+usvGpLrsDosVoc12ZKU7MjoOHj8dSt/2QM+dgSDGJ8RThls1sG6DxGmMez9ZuEb+aefkCzS3lkhxm6yPbfXY9PnNQQNh3yRCoebUfQOciebrzcROFIRMIn9kdqzZrv+agQYoii48fvPx5afn2VLgkg6SQ5bUkpqdo8r73xye2NQJyC7F9nrwCdfuNmDOJ8wlaoNzz9ww3FtM1NA+J8ENn3W1E59895avNIng7k+o2CPb5L6v7rPzPJMBEwEIgiYxN4cCiYCfwwBhpDq/XzO9KIzj0uzJlmTbPYku92a1qrrGQ++ONerYQh4Sxmn4FuPmQ4OdzpVCcNMDjs3XTe+qrXNkpyUZLXabNYUizVtwLBrv1i9XUaUcXDto5T8sXqYd5kImAiYCBwwAiaxP2DIzAeOTgQoUZVA3X+m3Hlyt1apoHh3OJKSHfaME84ofXXBKhnk9RhM6ikiTEdcEHsN6YwTKm37+bORBWenWywpSUkWqy0pyZFky7rolqfW1vg0sOIjjGiUmMT+6BxZZqtNBP4OBExi/3egbL7j8EeAcaYGG367d/L4TlnJ1mSrzZ7hsGQlp+WUXjB+6Y8bFLDHo5SAMT5o7TmY7jOKIPyeHvzyvZfO790jGaLhg/Dfak2z5Bx729S3tgcCirDa50xjYO4f89YDbX/85/AH0GyBiYCJwMFEwCT2BxN9892HDwKUkfDO9d9cMawo12G12m1WW5o1KSMlvd2kG+/dXO1UYHtOOSOC2EOzgIhTHRLehRufu/vqHrmpdqvVkWSzJDmSrBnZx533woKlbl1HBpfAVAqU3qD3zSm9GW7n8BknZk1NBA5RBExif4h2jFmtQwYBJug3Iarvm0XvDDn/9CybiKZjT7ZY07JaH3f3lNcbQpomYuxSijno7eEDtvlU5wyHG7fdOK4805JktVrtSTaLxZFkzT6tbNyCH9crmDDY/BPCVcrBIB8OiMFn2uodMv1vVsRE4IhAwCT2R0Q3mo34XyFADUrPOdIl57tTHzm7V9d0q81uS7Y4HFZHevfj+7/4ztIQ4ToY00PGHCDzojKMEQxifKV207eXVJ6XFom4Z7NYUy2WNqOvf+C7XXUaZMUjFNT8CqNA7DFICIBfMKn9/6pLzXJNBI5KBExif1R2u9noP4SAyFEL6e0RY5rs2fnITZO652TYIdedw2K3OzJan1dw0ZwlvygcEtmCez1EzwMXOqFuJzpFVPdvWD5naP/oIb26AAAgAElEQVS+jiSwzYMjKdWe3O32KdO3eUM6JhQhQlRG5IDL1dDgCchIp1wjIlS+ub//Q91k3mQiYCLw+wiYxP73MTLvOFoRAOM6yHTHdErVum0/Th5dnm0HjzsjJH5yRrtRE+/64TcnmNzDVhzEAFFiTzklOtEo8iyd+VT/Pu1t4F5vE8Q+Lavdqc++vdCpIkIZQRojqqd65xP33z/+4stnL/zCHZR0CLELRZn7+6N17JntNhH4ixEwif1fDKhZ3BGEACVUA2LPdYRCP389d2TJOek2qxUy4NgtlpS0rK7X3PX0dpckMuEaAn8KnvbCFp9TgqlOtcZPX3nonF6tbEkWS5ItyWJLSsro0rd45icrgjoSBnnIW7P7qXvvPrlXr8ys9v0KquYs+twnqRCPzxTnH0GDyWyKicDBRcAk9gcXf/PthzICVGS0R4xriuKd+/ZT55/cXXjYW0RgnPS2nU565MX33RpBYFVn2OHvRewJRNWp/+zl+889Doi9NcmRlGRPSsrIPX7Qf2Z9GpRlORjaueW3R++47dRu3bIcyVZ7dvtuvZ+cOr3BGxDEnpi6+0N5fJh1MxE4jBAwif1h1Fn/ZVUjcuYWSok4jMHe1DAEBx8yRo3MLFREeCciFixIqsGjjIjoMSJtO5iPE0axOESaN9jXRo7ou2j05HD4L3bUEA2PY8yRTjRGdcVf/+Td1xzTLstusTgsVrs12ZaSdcLZZa/NW6HSlo3phOJeJ0r9R29OOev49vYki9WamWTJsFrSLeldxl523ceffDr3g3fHXFDVvWP7VHu61Z6b2+G4627/99rNO1QE4fgMWz9IpnM4wGbW0UTAROBQRsAk9ody7/y1dTOIfQtlGpZlEZWzIO3CvgyMy8HqjEC0mOhjEPpd/AraaQphZMBxTASQAX+xvY/Dk0g1EXuCmI4pZlh17dpw/fghrVLslqQkG6SxtzvSc4tHTV7y43YUhabZf8Y5phpF3h+XzS49/yQRKDfVak23WpKttsyc3A49exzTs1uXrPTU5OQUiy2zTad/3HLvE2t/2yMjomOAVHjxMUM90Kxw86uJgImAicABIWAS+wOC68i8Oc6rmxKCKMFGKDdKkKZpqqoq0Q+cq5qmI4Sw4AEijwoaDzwAmKeJw2AXDke8GEccuBxIXCcc4xDVQpt/XDqmrF+m3Qo29eBm70jJbD/xxoc3VgfA2a6lDxB7hhgOefZsvHL8sHSHzWqxWCw2W5LVYbHZrQ6rxWqzOyz2lOTM1h17nvjA4y9u2lYnI4KFD5/BgTEAEwz/zI+JgImAicB/g4BJ7P8b9A7fZw0KEvm7F7HHOtLlcMDrrKv+7ddN33278tNPFs+ePfvDDz/84MNZs2bPnTd/wWefL/l6xcq169Zv276rsdHtDwQlWdERxpRhDnbpsOcHd3FyOEqgGbjRgW2cEc+OYB3L/i/mv1Z0zkmpdqvFarXa7FabI6ftMfc+MaM2qGsJktUx8MfDjGpE9n8y9538/mempjrsNovNkpRsSUqxQyG2lIzMtp3zyi+YOeeTGmdYw6A6QQgRrDOKOGBoEvvDd5aZNTcROIQQMIn9IdQZf2NVYAcfiefKMcGIUYyxrsjhutrqr5YteeTB+/IH9jvh+ON69OjRrVu3LuLTuXPnzuKka9fuPXv26nXs8cef0KewqOyGm2597a13V33/867qerc/GNZ0nRJEIQ5sVOZ/OMnzaROxB8oLyKiBRR+8UtL/zC4d27drD0f7Tp1OPmPgmx9+EsaQm7bFjhPEHsLsMKxrsm/R/HeK8s9p2yqndXZW65ysVq1at2rb8cx+BQ88OfW7X7b4JZE1D7gvEXOXIc4ixP5v09mDUiaqrzl8BTMt9oV58U8gYGjxjL8cBiasEXEbgz9RpPnIwUTAJPYHE/2D925BhBii4EGuUaIrIf/WXzdOffapwryBXbt0ap2bk+xw2O1giwayZ4vFbocTq8XisFuF0toqNrn25JS07JzW7Tt17dHrhL6nnD3pmpuWffOdX5IQZHolgt4D4Th4LT3gN1OOQR0BTu4YrPEZYUiR/dUNe7Zu27J5y7Ytv23bsnX7tu27G10BWQdinvAVUY0G4VRXwu7fNq1ZMH/Wyy9Ne27q1NfefPvjpV9t3LGn1hMM68L6UWgOYrlwQEQiHPf/tnh6IMoAAwww0TCIvfE1YfPMH45oBOLHgHFujJAjutFHcuNMYn8k927ithEg80DJdIRkZ83OV6Y+O+jcszu3b5ORkuKw2a1WK1B2m8Oekp6ampGZmZWTk9MqNyc7IyM9JTnZCiyA1TBVA9Jvt0AauBSbPbt1h+Pvffip3Q0uQxR+eBJ7AtwJaO0Rg2C2BILcozCBA0LbYYYJxQgS1VNIbAuC9pY/MSMGCINLNIJURQ4Fgn5PMOiXJEnXRfAc4CnAEFIEzWsyehDGjga9/3u0IYYxZsweM0b4W26befVIRyBmn2t44sRo/5He7iO2ff+fvesAjKLqutO376YnlNBCB5EiRaRIBylSFEGw0BVFkCKKCkhVBFRAQUE/kV4EQUCqNCnSe4dAIKSXrdPezP7/fbMJCWYREJIAO8awO5ny5r2ZOe/ee+65AbB/bIf2nxeWPT1XAa54VRVlyX3p4ukPhwwsWzzKqmN0FMi+aCa7wWi2hYRXrV6rT/+3p02bPm/evB9/+H7yuLEvd2xXtlR0kMmooyka9N6xwQ94zxKM1RpWbuK07xMzXBJE7HHkHp/1n40ptGtwHRqchOgVkSpATiGEIyRF5UHtHslAu8N5iYoiIMl1p1R4bPTjX4qKZC9CsiRLCEler+xVcYAeASMSj4ekAuNB+9GMenxkhE18/96De+7HvA+l3RuyLLvd7sxMu8vllmVIvbzT1d3zqQM7PEo9kDXbQ06nIyMjw+12y7KMEHqUriHQ1hw9EAD7HJ3xWH8EHy1CADIKUryiorgVKfXa+UNv9e4ZERrE0TRHY3ue5hhdkDUkuutrvRYvW3HsxKnr8fGpqakOh91hz0xNSboWe/mv3VtHDOxbsUi4Add6pSgafoBbbi5eqcHsJX84REVCEg5+a1Zr3gBT6PtbwVVpfBnvWBLXV5cua9oEM4G7uwrYQ1MxAIk9bLDj6AY2/qFEXtZKbMXn6K8HG7JXvV7B65VliD6AtwFpHnuk8E6nPSXpzJFDv/z4v159350+e35cil2Avz6ZL3dFm49lZZZobpZCO/XRbpLs3/iWhG/geVLgB5xVigIlHhRV9s0fYRXCYSOs+qhlzWJNB+1AQOtBvJCZNPPLCQP6D/jxf78cO34qJS1TEEHmWcYOL5B11riscKv4oj+Ymftk3jZ39zIooK0CYF9AHZ/vp8VgL0MZVUWSvSKS7anXj40d3rd4WDB44klc3IXmaFNQ9QYtZ85dcvriVYfTpVFyMCz5WqyqiiDZ484c+bh/rxKhVhbo5RjpSZLTW+u2enXljmMeRYXIN7jBZSwan+9XGzhh3j2gKoqsKKKEPLIiAa9CQR6XPTH+6tY/fh/U981nn64aU6JUcGipNi/337L/lBvmAk/mWxvAHhdAApjMueTdrwW8Nju5RoNp3BqNgaEIiuqBEg+SKPLOzIzk5LT0dJcoapWUNTksUMjyha60NE98FFVFold2nT/yV88Xm4eFhUSXKF3lqZoDBg7dsHFn3I1ktyABpQUJSJURUmVQhpC9qqh6RRWefb+xrQLuqif49AGwf2IGXwXtOy9UWJcUVXBlxP0449NaFYrrIDxPMCAUoyNZW5X6zeb+uu5mulMUQTAn+zWX3U1gD6iC7Mw8tWtbj/bNggwsRPgJkqYYzhj2ct+Re8/eEOBVImu09hxGavYxAh/yvwc0GFAR8iKw6gVV5pHgSkuO2/nnur59ejxVpVJ4sE1PUyzN6cxFylVvOnfxOjuP5Cx+fv63uKDPCF4Nn+ELNqsClQr8ZF4UbFNzaFndagg8ufD4Sgi5JMGennhj17ZNU76YPOKjcb9t3O2QIIkER2ngGv2BvSo6Vy+c27BmBbORA4lomgsOiapYqWafAYM3bN51PSnDKUo80pQhwE/g9bpVrxt32q2WBD4Vkh4IgH0hGYiH3wwQ0FPhLe+VZMn517blnVvWsrEURzIMSWhO+MiYml/MW3LV7vTISBVBEzd7yW4fpnGJiiTx6QkLZoyrWTFaR0HuOEXp9dbowaO/vpDoFOBxx278wvl2zL6YJ+WDJp4I7lsJMvhlryzIzpSrp/+ePHpog7pPhwRZcRiHNRqNUUVLNG7eccwXcw6cvArJBo9UJsWDHU+AS8w7wViIyxIVSnvVN4+7jcaJH1QF8c7MmyeP7Jk0ZlTDus+UiC5Vouwz46bMTXcLOP4EG/0D7H1DriqSKrsvnDjwzedjWjZtWCwqwmTQMRTNMFxwaJGq1et/Mu6rA8cvpzpEAV4V2qEE1QtT/Sf4rnmw9+CDPFoA7B9kbxbqY4E+C8TwVFWwp8VOHNW3dJhBT1I0QekIkqZZ1hrZf+Tk43FpTnD1SqokebEnEBTacz+7mjY+cqcf2bqsfeNnjJCMR5K02Vq06pQ5y1LdvsIw2Lj3+QYKdc885o2DtzDEa0E/QJQVp6K4nGnX/9q07N03OpctGmFkDRSlp1ibLSy6UdPWU76a9dffx2Jvpto94JoFvHtilmw/VpZZjCtEYIcY3PNA4bgNUQtF1yheL1a0hqg7tFNVIBiPZMHpuHbpzOJf5rzSpV2pYkX0DEuSelNQ2Q/Hzkx2eWS4FBhfRYUsWXjGMWBrnnwI+EPBC0HyZKbEXzm0d9vcb6e90LRBRLBVzzA0xdGMqUjx8l1fe/vXddsT0py8jERgssqKVjsj9xujUHTTE9+IANg/KbcAPNZA/JYl0X7y7w3d2taxMgRLsjRJcgRFMYbydZss3rQ/TcRp5oroBadc3ouK2eOKmHHj9O7XOzS3aLl6jKVM9WYL1uzgZQjzIi84jGX8NtHeoXkfK7D2ofeAokAqgagAOYtXlPT0tPPLF3zd5YXnioVYjBTHkGaDoUh0qRpvvffJ5h37ryeluiWEkyk04sVdMhAf+mU87BNg3PPNTXGtB1/VBwRMRgB6QP47iCo87Pb5P76mXYVZeEgBVp0oeFwpifHb/lg3qP+b1SqXDbaaGZKlSI4gjQD2Y2YmOz2SVnoBLgsQWotTZJXJ0NyAyAuiUoIX8YqYkZEYe2DnphGD+lctV8pm1DNAy2VsoUXqNnxhxpwlVxPSPQiB18gn9vwEzRH9j0zh+ksA7AvXeDy81kBFG3jpS7wrYdncibXLReoJgqE4CtLkOVof0m3gyMOxyW6Y34PoG9Zpzbs5ClIg7oscaddODnq1S6gOHPmsPrhZx77b/j4nyeBAkAHpgbGDS+XAOzTvYwXWPvQe0CjZoKmgqB57+qX/zZ3QtGGVEAvHQhIFa7VFNmjU6etZi09duJ4pyAL23iLwAGkUS79zvofe8Pw9wS2zXlFkUeCdGS5HRqbdnuFwpTvcvAg0NAUVxtsYDHrsjfcqkiJ6MlMTjx3cO+HTjxrVrR0ZaoPpPEmRBEeReg3sR46dmeTkRU2NGcAeZe2uOXKyVbQR/BHkJCRFERXkkfm0axcPz587rU2zZ4OtRhbUo2nOEFqpWtMvZiyITcpwKQqoUCFcViJ/hy9wtn/tgQDY/2sXPSYbqF5V9spI5e0p5ycN7xVtZnVQ0EUTzzHqbSXHTvsx3iG6FVlWcFjXPxdJkRF++B3u1GuThw+pVb5CyZJlYipUe+/jaSdj0xCSZUXWwB4S0qEuXgDsC/AuUpACZr2qCk5H0soFs5rVfyrIxGKZftYUFN62Y/clv266kehwy6pHVTyKgFQB7DmQ7MXe3QJsez6eWgN7rCmEkhKu79i0ZvH8nxYuWPTLohXLV284d+m6jCl6+diiuz0VOBwwJPOuzNjzpxfM+65bxxfKFS9iAH87SQIjh6YIjiZ1BGU0hsSM+GxmopOHFEzsssc1KyFyD/Wf4KnP5vYrOIIH5S0hKg/1L91elOFIv7Jp3ZKXOrUKDjKBsCZloPURVeq0njV/TVyayw1QD5W07rb1ge3yqwcCYJ9fPV3w5wGvrIzcCVeOvvtqeytJMiRNkFDEjaCNxqByX81eni4qvBcMGC9+8v3WUYf3IjC6kei8cPTI1t/XrVq9dvXvfxw+fSWTh1cHjhlikXfY0ucaLfgOeJJagN/Tihe/djEJS5T5tK3rl3Vu1TDMqudoiqR1rCWyRefXf93wZ0qGQwRBQC9UAsAiwV5VhHvgX/wxOZlhOT/76+ic2+T87G/7fFvvI69ivFeQ7D59dM/7/bpVLV+2cqUqFarUeK7FSwtX7+ALPosU/Aq+jsNtBU+8gpDMC7w9OeHa1j9WD+r3Ro2KZUNNeiNNshTNkBQu3sTSpJ4CsNcZQ0qN+OzbBKcoYsIuKDbi/3ClR21ul2toMPirAkKyFt1XBEV2uuwJ2zev6tqpRajVRNM6kjYxpsj6rbstWLsrzS3BxECFGk5YpiJbICoraSDfRjVwotw9EAD73P3xOH9DoLCBhOvnj/bu1FoH2ncsID1FEKTeYCv39dxVqaLK40geftHf1dwc6ucIgiCIgiD+Myn/ce7OQnxtuAaPF+rmIV5LoESi48Kx3W/3aFc8xMyxJEmzJBNa+dkOc1ZsTLK7QQDpfmKsOU3AnJ/9dU3ObXJ+LnDfuKZbiPFTlZGUcXzv+h5tn+VgJkyTnDmyyvPfLNjlBrS6n27y1x33uh5P2nAJaYi1QWagggQF6loknjy6d9ynIxrWebpoqFVPkSxFGfRGo95opigTSVE0S1J6ktQTFGMMLj58zOwEJ8JojHB+LCYeYsz31ySIxUOVJJyeoEiK7BIcN9ct+6FNo2fMOh1N6hjWoA8p2qXPiN2Hr7gFzBL0KkgVFUi7BwcfTlyEuIC/UwTWP+weCID9w+7hQnN84BeJChJunDvau1MrPQZ78PGRBEnp9bYyn3+3MllQBaDUIczOu9v3mvaOzP5daC74yW2ICoowXq8igf8VfPGSPfHS5x+9G1M01MiyUNeANoQWr/7Z1/MvJ2YIIIEKo3fv/ZXTBMz52d+Rcm5z22d/u+TP+mywh+pHGOzX9WhbLyfYf43B/g5ElnxoqOYk81VXguwAUfDYYy+cXDRvxisdWpaMjNTTOprmzNagqOLR9Rs3afL88+Uiw4NAB4OiaANF6DDYRw8bM+c/gL0KefWIV2VHZtLlOV+OebpsKRYmEwypM4VGPzVi7KzzcakeqHat4vxdAdfgyFIpKNDZUj6MUWE+RQDsC/PoPNC2YbBHiL9x9kjvTi31BEESLPwC84VjjFGDx86+nOIRvfASwT69+3j7P9AGBw52vz2gYu4VkDTAtJIlIWPD0h8a1yhv5FiG1NEkzenDXn3r030nYnlZVlRJKpzEs/u9/Hvf71/APrxiw+nzd7h8TvR7P/wD2iN7Po2ZMJIqeQ7v/fO9fq9Vj4kONeg4itYbgsKLVXip54B5C5f/dejg/r07Rr3dKybMwoFEJksRHAb7ksPGfH/fYA89BSwcGcm8Kruunznwfq9XwsxGmqYIiqX0oeVrtpj5y5okp8ArigQCmiLUiQbLXiMDBN4qD+huuPfDBMD+3vvsEd0DwF5CsnD97KFeHVsYCIIiWLDroXgdsPEbd+y/9cBl8MABQQ/H3B7RKw00G2dJAyUa3rOuq2f293m5ZYSJo0mGJHUkaXmqTqsFa3alOyVVlWSFlyBe/18XzTdwXx6C/3rq/7z/bWCffmLferDsoc4TuPGjqjT5ZuHuQuDGz4Z7pCJR5Z0/fDOlSpmiJprWMzprUESjVp2+mrv0yLnrqQ5eQrLoSl/z04yGVcvA/I5kKJIhKM4YXHro2PsAe8zFwV54oPXhEIKiSMiT9ueKee3qP21iGZpiScbAWoq8+MaQ3ccu2UUEzHzwMflqRvvw/j+PVuAA99cDAbC/v357FPeCqbWChLgzB/p1aWUCgh7LkDRkyzIcyZksRatM/nZJkt0jQ3E3mJD/dwB4FLvpsWizqiKQLpcVSXYlzJ02qlKJcJbC5h2j15lKDvlkxtm4ZEgmU6FQAvhc/bIxc/VHNtpAsAfK6MCiZahDSBfusFzRn1zJ63gXbZvs9YUjU+MW2HtVGYnpJ/dv6NmuPgcVHWmSM0VUavzVL7tcUA8x19Xl6pqH/0XrfHweRUWSIroO7Nz8YsvGVos1psLTQ0dN2H7w9I10N6+okiipIkJu+6GNy7s2r2NgKFz8AgS0jEEx9wH22VY5OI18NH4tfs+7409NH9GvdJiNpWmKYaC7YmpP+OaXm5m8GzS8UE7LPvBOefi3id8zBMDeb9c8dn8Ajr2qSBk3zn3yzmthRh1DsAwBuTkgjk8zlC6oWr02y9btSOUlXvWKyt29/h+7bnosLkhVFVlSvYoiXDux840XG1o4miDA9iJY47PNuq7ddsTOC5A/iWXSFBBEuKupXU6w1/AeMq2wElsOKLrVhbdhf47JAU7ayDrcrR0K5tMjB/Ze0DxGosee/M2XE/oOeHfJ6vUXbyTZRVkA0oEKmniirPCO03/93rN9Qz2k4EG1KoLUG4PK3S/Yw9ho5HyNNwDJHkhQhKSDGxd1bfYsRnuCpBnWFNWh2zs7D551SJB2DzMkoAH5BrtgRjhwVq83APZPyl2ApW+hkJfgiF84Y0LV0iU4kmUIiiGBwEMzQNllTJHPvdBzze5DybwgFnyi0ZMyNA/8OjEbH0qRqci+/PvPa5WNYmE+x5EUSxmCB3/8xeVrKTJUMBUgmoqg6vHdUs9UVZZlQRDcbrfD4XQ6XW63RxQl4HaDWQ+Jm7ddjmbECwLvdnvcbrcLFrcgiNosAYsx37ZH/n99NMAem9e+1Dss3yspkic18cb1+KQMp0dEAlSzVWQFkmchhIN456ndv/d8sZGeY2mKpQiaIA1G2/2BffagaBM2329VllTkdqZcmPh+r1IWvZGCKhsUbSoW88y075el87KIEwe07B5NhD/7QIEP+dwDAbDP5w4vsNNhjVuQRUPulDN7N77cppmBohmCogmGIAgGCt8RJG1mgmMadnx1/Z79mbwsq9i4z+ZNF1jbAye+tx6AqvWQ68y7E8+917NdiI7maBL40rQurGzNuSt+d7hESZREVZTgtoByiHeMtWP8xhL7osdzMy5uw/oNU6dOf3/I8EGDBo8bN37zlj+TUzJlfAzNi6+lVAP6i6LH7rh+Nfb339dMmzbtww9HDR/+wejRYxctXnr+4lUXL0pYcv72CcK9Xe5/3/qfYP9Hz3b1deDzwm78yuDGdxa0Gz8n2OMQugyyCAqOoQPVBoFvX+a9KnSq5PXKouf47rU9OjTSsyypxewx2N8PQc/XxxAK1E7qOzUIbImikLpuwfQW1UrZgBVCk5SOM0e98c6Y01fTBC1fEet24GIZT4r68n+/KR/4EQJg/8C7tJAeEL+rJUjVRR5X0rXZk0dXKh6uA4FrHchpEjDtx6VujXpb5LOtOi/b9Fe8w8MjBeHHWZUlBadsK/6V9Qrpld9js7Jcy/DvPe5aeDZXscSh/cSOZR3qVzVSJMzkKIqgLa2699t65JQLI7MvbxtLn2BXfK72Z83xVKDrI0EUXCnXYhfPmdOxWfNypcqGRxYPCgoPDQ6NjIwsX6nmmAnfxiWkCxpRQJYE2SOpouC2Xz9x4osRIxvXqlmubOkiRSIjw4uG2sLCw8KjY8o926Lj7AXr41M9HlmFiAP4GEBeWfMVZ4nH5GrSQ/uSE+wVJGae3L+xR7vn9CQN4KUzh1VuPHXhTgeuMFOo7wq4YbVxw/522XNyz7oeHRrrIN2SoUBXQ2+0lb8PsPfX80gREaRu8hePbnqra1ObDmiAFM2xOnOdpl2XbjnmhNeG6IVJCQj2IYj4B5aC6YEA2BdMv+f/WbE3VVP8lJDouHhsb/d2LcwMTYOOHkVoRgzBUrSeoHSsKbRkpepfz/kpLjHVLcm+VGysqPYII+Bdd7rmeda4YzmxP58/33V789hQQSLiU36YNLxypFVH0lgrkSb0UYPGTj2bmO7BcfacluI/wd6HG2DICaKQfPrUjmGDepWOKmLVmeF2oUmKYiiCZFmOZi3RMTW//XGpnZdEqKAuqEgQ3Zkbli18uWWz6OBgA0NTFOR9UATDkhxFgFAzawgpXan+FzMXxqU4Bcj+wPyBwgn2VRpPXfQogH3uG0HJAns9qNhjsKceMNhjUX1FUQVH0qkvPuxdLMSAyQEsxRqCi1cdNXVBoh3zRHHsHofuH90JdO7OfQS/BcD+ERy0+2wyhjAQUAWlW96ZuP7XBY1rP2WENzZFkAwBE3+OpDiCgM8UwxUrVqrP24O3/30s1SN6EC5vI+F/7rMBj8ZumumWz7ju73T33WUI8Z6k84Nfax9EkwzB0eC/0XPhlab98msSQLJGLPeZ0WAMYs977tPhzGhFlDypf+/5vfcb7cJDzcDqZvU6juUYigFJJhBpIGkjow/t2W/4iYvxoioj2cWnJc2ZMP65yhWCjXosuEIzDORm0TBJgJRsYItROloX0eCFV9du/9shIZBTB433QmnZB8A+952R/Q0PmQqlk93xy+dNfKZScR1MAWkCxH0iew4cdzI2UwQSgQBM0IBifnbHFcSHANgXRK8XxDkB6jFSC0iWVAkpbnta3Pw50+pULY2rZWBfPrjgdAzNwWsZJPZoW3CRyrUafTt/xZXENHhetbfx4z47V1WV53mHwwFcsgJaBEHQlO3u62ZRFMl+bu+aTs/XNFEUTXAkaSAoQ+XGL63ccSBdRgJOwc+27DFLDuYb2rnwzANXLlRF0ZO6c/Pybi82D7cZaZplTcFlKlZ5sWO72k9XNLEQBKIoA0HqKZ21Ved+e45ekVXBnXJt5mcf1yxZykIzDKdjrObKNap1aEF5CxMAACAASURBVP9C1YoxZg544RQNO3IUR9MWS0TMJ1NnXUvNhJxsUFmFivG4HT539H1d/r3ulJcbv20ON34A7P30KIL8S6QogiJlHN6x/KVW9awsB0U3GIrWB9Vr9uqvm4+6EZK8WEdPQY97DNBPNxWO1QGwLxzjkD+twJFRGcqZKZJXUpArPfHCou+/rFO9Ishb4yeUpjiSBPF0kqQpSk/SJpKxFC/71KjJX52+Gu+ScFwVM/shhI8ewwicqqqCIIwbN65BgwZ16tSpXUBLw4YNV65cKYqQHZcNw3d9myBFSFrz48SaZSN1UP2AJik9QZk6Dxy99/w1ByQ+40hqVgAV29NQOgejPpZPhGJGoiDYd2z97ZUOz4dbjAbabAuOeanne+u2/nX58vlNa5a0a94AV1XTAXCzpuYd++w8cMHtSv1+4qjq0ZFWhmN0ljpNWk39fu6BI4cuXTi1f+cfA17vWiQ0iOFYgmYYgqFJHWsK6//B6FPXE91Ymx1U13AzcOg53yaVeYB99xee1ZNAXyVZU1gA7P3ceaDU4FW9qqRI9rhzfw16vX0ox3LAa6RIWh9ZstbEWStSBSR4ZaTwCpIDYO+nI/NjdQDs86OXC8k5FOy8BT0OIOuCZLqKHJlJF1cvmdeoTjULS+lJoOlRBAXiepSOosyapC7J6EKLlu33/qeHz8QKWC0zp9u5kFzdg2qGJEmCIPTp00ev12NHNVEgi8FgmDFjhiAIWlff49XJkjN2ysg+Ra0sDRVOKZIyEIaIIVPmXkjOdCmaHAoUNPcdFiqbavVM8b+YLKcoQnzchQ+H9SsWqjfQxvCQygPennjg+DWnICuyJ/7yqYG9ulJQRQlr7eusLTr32b7vxM9zZ9aNKWklKVZnfPmN/ht2H0yyuyRZ8iKPKqUf37OlS5smOh1HshxLAd6zBsub7488FpfgAqMe4SZlG/YBsL/HYc+9eX7E7IGvCxkdCnK6Ui58MaJ/CbOOg+ILwP4xWEu8PWr6lQzeA5NLXFKxQFWJcnfPE/ctAPZPypArXq/kVSFyhiStwrkEfn1Bke2u9Bs7/ljVpXWzcJPORBF6qHJPk5CSx5IEw1AMBUKYprCi5Xr0G7z90AmXCATcbIGUx6wHNcu+d+/eGtiDilpBLEajcebMmYIgaP18b52siuk3jgzs0d7CkBSw8yiKMlHB5T/7YVkiL3mAhS8DR9oH9rgSrldSvAhMfE17SRZV5HFmJixfNKfRs9WjIku+/d74I6dvukBYUVRlZ/yl0++8+TLkbjIUCyKMlnZd+06d8d0LTZ4zM3qzKfjNAQP3HD2Z7hbAdQs/SEFOPjV2zKBexcJtNMsyFMWQFKs3d+r19s7TF+2g7KOoqqQFFwKW/b2NeF5b5w/Yw8wQnE9u0Xnjx0kfPRVpNcALhCUIjtOHdnvrw4PXUkF8ELbRxjevtgbWPfweCID9w+/jwnEG5PVCfRssvKXKiiiruPakonpFVfHwjpSzR/ZP+GhYjfKlzTQ8qQxJchTJ0hwF9GmOJqGwlSWiePvXB27bc8AN+mvY5sx1ddk2mY/KrcVfsww0LW1f2yFrneazzTpIVpz2n3/NXpO16b//m3Wwf98yewvYRVEUnuf79Omj00FSYoGY9QRBmEymWbNm3TXY57pYVRViT257pV1TcE2QLEuyNG21xTScs3pbKhZZk0C2HPKz8ZVrZe/lHGCvKEj0KoIqO9OS4lavWD573k8Hz1ywS1BcQUW8ImUkxJ4Y1OsligQvkJ6hadpSokLNilWrhJkMrCG0e593/zp8zMnzSNN4gVmEKqu8lHFtzNs9i1g4KJtCQnSBM9reGPLhoWsJduxougX2cOvcx6BnD+WtYMCtVX4/YQVYuJ1h/JGYeWL/xu4vPIuzGLLd+DscMEm6Y0glq73431wj4vfMD/MP+QL2INEA5BKvB4mpm36Z1aRySQNN0+AX1DNcUNMub/5+8IIzK6dSVYWHecWBY9+pBwJgf6feecz+lutdlJ2Qi2vaIiQgiU+8cXXVkgXNGtQJMXJGMAoh9EaSBMtyHER9CYbWWaNiXhsy8tDZWF5QRFkSQJgFW/mqqKoi1MZFuPIFEhFyIdUtq5KIIBdXkjyKKID5BkJf4AuWJUmRBfDvIUlFoiRJvKyIkOslIsjpByMS9N29WvU2KKeddQm3j4wK0rAK6Ipo0i5ehLy86pV8cHb75tp3rBAC/aAAJqkIwoogKY7cbnffvn11Ol1BIb0G9rNnzxZFrDfq97q1vHQFq5VDz+J0dVmRHSd2LuvYrBak10OtI5ZiLMVqtf5lwy43SCVpU7HbOuW2rtWwSpEVOd2ekZqeBumXeHoHlfTkzCsnd/Xp3JTBMQIDq6cZG60PMxhsZmNQi46vrt/5d6pbwMwAzLLHiqmK6hYzYycM7F3UYtGTFANVZnScMbL/0NGn4pJ4Xz11H3Xg1u15WzPv+BXPV4D1rSpeASFZ5b0yL0uyNqnJ3lWLjNz+G+435FUlWXIc2bexZ/vnoLILpSM5U3ilBtMX/CHAvBhUiPJekOJFMrjOoES8V0GiigR8X8HgKVCHEClAP8y+wOzmPKwP+QD2WKgP5Hm9qqBI9r83Le3S9BkDA3mZBMXS+uC6Lbqv2HbSqXjh5oFnLCCq87CG+1+PGwD7f+2ix38D7JOXFZDfEpwZKYf2bH9vwJtli0cawIMPfnyKJDiS4AiSoXUkYwopXfGL736+meIUERK9kgQwib27qgBgr6XTQqaNW1WcgicjJSnh9JnTfx/Yd+To4es3U1wCElVZVEHGW0GiIjjdGYmJ1y6eOn704JFjh06cuXozLdMjCoDzoijzyCt5vQKCQ/sHPTAEMRsBV2eXVUnyepCKdeTyfjdDHhAQwGHBSA+V32BioVHx33vvvaioqJCCW4oVKzZ37lwN7O9wC+IYKA7ReLPBXkKSfduSmY2eLqF5aCjIjjPX79Rv8+EzAroN+O5wbPiT5tTHjGuYTeGpkYCk1KO71nRtVksH0Vk9QxsYxkyQZoq2Vq/d+OcV61J5CaAR7gsM9jizT1Hcsv3qlPffLh4UqiMZmqAIymgILjty/MxrqQ4Bs/FxWTXfPAPj/b8077Y/5wR7qOeEHJIzzZVpd+RYnHkvLqfD6bRnOuxpGekJu7auean1c6A5SLEkrYus8MwXc5elOpxp9rS893Y6nQ6Xy2F3OpwOpyvT7sKHynR4BLcIcQxcdPgxBHuYuUN9ZAmmgMh5as+6nu0bGViaZmiS5SguqHS1ZjMXbsuQ4WHTqCK3DVnga771QADs862rC++JsmTzteK2osw7Ys+fnDZxdM3ypUwc2PaQVI1L4hKEDvTVdZYGrTqv+3OfU5RlUEPHHn2wZ+CNraXzK4osCfa0xMtrlv7cq/tLdevUqV6zes36dXr0f3fj7lN2WZFVt4I8gjPj7MFdY4a+1bzRs3Vq16pdu06teg3bduu9ZM3m+Exe8GlyIlUVEbZb/QMATuKFcLIoQzU3BXkFn2PYL9j78F7zBsBkB4p0gUdBkqTz589v3759R8Etu3fvvnHjhhawv62cTM47CU9/EPAxAOw1IToRSZlr535et3xRjiBYYFwyFG1s2m3gjhPn7wPswVzFwwpubihqIkp88vqlsxtVK8WB2wBS72hCRxBGU2iZTyfPiE1ME8AnA94ZVZFUjQ0ADiTRdePksB5dgg0mlmQZSkfSFmvk0+O+/iXBzosw1QIHEA79aMbwbc6GnNedx2dckA2sc2gneIFkWUjdtPTnsSOGfTBsePYyYsSID7KWEb7lgxEjRsLPsBEjhg97f8i77V9oXiTMStGa2BSrt0bVadJ64JChIz64tW/WMXz/jhgxcuTwER8OHzFi+EcjPvh4xLAPBr4zeNp3889fuSkjcEqB5wJIEo+dZZ8F9ipyxp3cNbBHO5MOCuCB74axWotV/2Ta4lQesio1QkgeIxdYlS89EAD7fOnmwn0SDQ2xFSerSFRkjyJ5kq5fWThrar2nKhlYRkfTHA1BfJLkAP0pnS2yzKfTZl9NypDhHQbeT/DdezENAER7ZFnyXDl/atyo4U+XLxUVZGYZmmNoWs/aisb0HjbtyOUkhOzOpLhFc2d2atGwWJhVpwPZFYZhaE5nDI56qm6TBet3JbuxIhsgjAxgj5Ow/fWlqsqq4gYpdrvd5XI5XZkul8PlxIVX/P5yuF12p8sFhpnTleYR3OB4hUUr9yJJklxwi5ZnnzU6eV93DrCHwmK4thgvi2k/fDa0XLBeRxAcvHRZmja8OuiT49duirlL0OZ90BxrAXV9DCyNh4W8yONKufz1Z0NLBht0UDPRSFAGIHboQtv2GLTv5BWPDMRr7JWXVJBOwyLNAPZS/Mntb7ZvamI5yAYkOIq2Rlds+t3CPzIFXKMPbiVNVEerpHpvTggV5jvg3vGhqioiV8LMUUNrlipRNDwsIjw8Ai/heSwR4eGREWFFIsOjIsMjI8PDLWYTKE1AXgpAFkPrdZagoPCIiPCwPPbGq8LCoyLCwiPDwsLDosLDioaFRoVGlm7fY9CuA6dxnSBAuscS7GFKBxN9UZEdKZcODuv7slHHUhD+A7A3hFV+/7O5SaDPjN07OW6twMd87oEA2Odzhxfm02HFNAi/QR6+KguZN6789M3ndaqWBwYWyZEES4O0HkmTOkYX1uH1d/ccv4gz8SBMDx5Ur6iqgiK7JD79zPG/h737dnRUlNloDAkKDraaLHi6T+tDKtR/edmW/Rkp1374fHy9apWCrGar1RocbLVZTXpNdIWiaUNY31FfHb+awssQ5ZO90CzMKcvKFsvdkdidIKYkxf62ctHE8eMnTZw8cdKESRMnTJrodxk/fvyE8Z9NGj/2s4mfT5w4edyEiV/Onn/kzGX5Hh3duRtSIN80yx5gDsc6PIIr/qthb5U0MDqsjEgTLEVxfUdOPH8zRb5TJCTvxuewr1VI2JRdyVeOD+3b1UiSOqyAC8KLtKlY5fpfL1yfxiNcG1kreq4NHYA9TgNx/r3h5xeee0rP0jQI+LI0G9SoXZ91u086JAWqLmGwx+VTIcadlSyQd6v+uTY32KvgWPYkfDXinbLBFh1kH5KgAIRRKDu7QltDgcYPS1M6ltFjgT8Kl26D+s8USerACcGRLCjlY9nf7L1zfqBIiqMoBitUMDSlJ0kdxQQ17dR/296TooRZbDA8j5tlj2mQim+ir7jTrx4Z3q+rkWOxtCJD0BZ9SKX3Rs9JdEpQVxHmO/c2gfvnKAfW3HcPBMD+vrvusdwR4z14GnGsVnRnXD8/emi/0sUiOFbHkFAkFSue6ig6qHytFkt+3+kUEQjuQ8aWAswklVekzNjzh0cOHlAsIizYFvLKq68vXrbi2+kTn69eSQ91dC1la7aes2LddzO+qFG2jNVsa92x648LFm/fun7eN+OfqVJWj2lRBGNr+cbI3SevijJU9cJO6n8Be1l0xV4+Pvid3qVKlCherGSx4sWLFy8aXaz4/we/81yKFiseXaxIyWJFoqJLFysWHR1dskaTTqs3/SXKec8nCvF4awS9nGB//athA0oaWR/YUzqS4vqPmnQhIQVEUO5vwfnUiswrfMbZv7f0aNsQ3AYgrUyTJEfrQl8Z+Mnh2DRRi+vDLaQp1cDcETz5iqSIqUu/HVe9QhTHkhjsGcYQ/vqQcccuJ/EInO8IScDLBEfOfwN7Fdf2UXjZeWPayHfLhQVBhd87LSSBkwNoEmtHk4Qm6EuAH5/SUxxDGQjGCGY+VvjP60gkrhxJ0gQBCQrgA2Mp1ta0U98tfx3FYP94EvQw2Gd59RRXRtyx4QO6gWUPtbUYkrLoQyoGwP7+HrgHvlcA7B94lz4GB/RBPlIkVUw/vmfdi83qmViGoxiGYkkwE1mCCgouWuObn35LcQPXGSpYAlEHsreRZD91bE+3l9pHhYcPeOu9fYdOZNjtF47teqNjU4YiONZQrfbzb743rEnjusGWoNd6D9y671iaixfcGZnXTw3r2zXSqtdBRpf5qRZvrt11AgqfA8sfjPs7WfaKgmT3lUuH3+jZCXsQWFz5A5dryWmA5fxM0YxW8o8x0TTHMPro6i2Wrd8tSo8cYTg32HtdgivOB/YklDmiaT1Jc/0+mnw2Pvk+LHu4oTXOnApFcWR3+rZff2xRq6yeJBkSiFgUZShWvta0n39LFfGNAJvjsDmeNWL2lqQqgph2ZcyQ3lGhemB8kjRBcfqIcqO+/t8NO4+r3ikIScAEhFgEvqV8MgB3+0Bpln1WzF5FiJc8iVNHDSlXJDLI4nex+pYgq8VmMZstZlOwzWQ16Q2A+xxJMODJ4oI4c6TFGmK1+T2OxRpss1iDLGarNchiDbJabVZbWNtufXcdOC4BiQTKTT5+bHw8NhBlAze+4ky7emRY/1eMegB7EB/EYD/404Blf7f38EPdLgD2D7V7H+GDq16vqIgQBbdf/Xbi0ColIzggJ+P8O5ojyWBzSJUpc1bedIki5GnjFH6g5UuK4rHbEzasXzNv7k+HDp908ZIkuc/s3/hymzokeEZpsyU4PLpUeGRI91799hw4luGWPTjiJ3tS5k4Z9XSJcBNDMYz1+e7Dtx6+JAo88AYx2MNpAD/yWCCsjDxxV4+91a9biM0WbAsLsoUG24KCbUE2P4s1KCjEZgu3Wa0hUUFBYcHBkTHPdli5ce+jbdkDrcEluK59Nax/SRPDQWocCSWOGP0bI8adjEv4T2DvVb2ywKfHf//FR1WiDCaomqsnSQPNmJt3fG3boXMeLekSDxLGe6Dza2DvVTw3z+x9o3Mbk55laR04umlT0WrPz1i2KV2QIf6g+qreacQDPNb35mLBpD6NdAmhf1EREMq4dHTfht9+XbH8DsuK5cvxz7Jly5ctWbliyfLlv3w56eO6T5WBvDuCZVmdKar8m4NGL1m2eoX/Iy1b/uuKZctXLlu2fPnKJUuXrVi+bOnyldv2H72Z5pCx3wIu8LFLvcPzwFtgn3Bh/3u9Ohug0K0P7A3BlXKAPbAU83h6A6vypQcCYJ8v3ZyfJwG2HFQwRRB4lyDtHQe0QSYFqHMShOSBdIX5Mvhv/loHOiiqrKKM/VsXtapfHdJnQZ4FpM9o0qi3FP3gizkXU7GoGva/Yg4d8LAUJLicjrS0DA8P9U2QmHFs29JOjauDmhvJcJSOtUQ179J9866/eQEqsIHJA8HgzPlTP61ZoqiRoSnG0Pq1wTtPXOFlCbPzMPHKvwsah3tFjzvj9Kmjmzdt3LZ127atW7Zt2bpt65/wOa9l69at2/DP5m07tm7bsWnztu37j8an2HGCmb8uKXzrNblS7AXHng/B63WLzvgZw96ONrKQQwERaVBJ6Pvh52fjU6R7VSfXvPcq9qx4JVVxZ944PXrgq1aGZCmaIHUEZWBM0f0++DI2NRO8O1iCD+xYiOngMDxQt2SvnPn3hoVtG9Y2AMOTZUgzxQY/17nP+v2neZ9iuuY9yO5hjZCf/fXuP/jiFLjhEhLdoscDhM28F/iDywmpcvDB5QLCZmbCvj9Xd231LEex4NjXmSKqNp7+y5Zkl9vpzvsoeC2cAp8G6KBuN66hJEoSFn7Iip1k/Xv3V3P/W6qK5D6153dcz56GesTgTdEZbeWGjZmT4AQdHOBSwDBpXIL7QmI4SBZfR/GkXDk8BBP0oKwWydKU1RRUacin391w8cBWQDgj4f6vKLDnf+qBANj/p+4rjDuDlY3wZFuWvIKkSkCMlrGDXeYBiUHEKttm0oKjeV8H9ogiVXVeP7/zlReamEDhFFi2NM1ShI4zhg0a//W5ZDucQMZpVhC21zJswGcJ54X/RcmdtGH+1AYVo+HVSbIcY4mp2WzO8vXpLlEL9+H9ZNmdMPG9N2KCbSycw/ja4LGHriTxAB8izp/Gs5a8W4otSHxKBOo9kiwLSOaRJCL/bHoJFlmSIFdPkvCGCBQH/J6hcP7Bx8DHFi2EyQWv1yM5EmYMfTva4AN7CCFT+gEff3k2PvWewR4PqAzyiyBUo0gZlw//OaBLCxaTNwhInzPYitQY/+3qTAmpCHQVsbKPRvP0Qhhe5VVZVITkH6eMrFYqSgdZWQxFGhl9RI+h445eSbr3Jt3DSGi5DP/2GyddwhQZuhFJ9uN7N/TIUfUu4qmmXy3dbcf3+L8dKtffMdDfQ2sf4KbwHIquU3t+79mhEU6Fg9I0Dx7sfQ+8NrfzpMYeGdqvq1HHAhsyC+zf//Tb6y6P7PVC3axH7fF6gCNS4IcKgH2BD8GDboDPslcVRUIqD8QorF2lQMVw0KZGioDJU77z4sonebcBZ54rquJ0Jh0f9OYrISYQvQZxLChlrjeElB4za0Gcg8d1qgHWsbQ6vC5htgFg74U8ednjTrk665N3YkIMQNthDEZriXdGTT93I03AViB2MkBcPiP+dL+OzUJZliEZig0bPnH2uSQHDwp6OHcLLgPzgfJqrPaa9rkwcIQUeARZXZHrBZz1Bb/asa4OJoHjzoGveR2+EK+7BfYap0ED+8QZwwdGG1ngi4EEIkNR+n4ffnEmPu3ekRU6FYTlwF8kyHzq/o1LOzaqAcXsSZqkDRRjqVL3xcV/HOZh5AWkIPAsgesIIgYQXlE9XtnjSYsdPahHtM0IlW1BTV9vCCs3cuqPsaluTdLv4XUxVsHN+/C4hVC0DViE2B8GFyvZT+zd0KNdrhK30xbvcmjZ+1n3zx0Om/fJ8ndtAYC94k6NPTwsN9gbgysNGT3rhhODPVbcyt9uCJztVg8EwP5WXzwmn3zQpaoKr8h23mN3uTxOp8fj4QVJhpJ1qqwA4y3b2+l3sq0gXDpHcQoZZ0e89Ua41QR8ZIjUMgRpNIZXmTR3ZaJHggrkkJoOBCTsO80Gey1Ty510+fiwnh1sDEnRDG0IqtO0629/HnUjRVQ0vT0cWVD5i4e2dGpY04hnEtbwKjN/WZ/glgRwRWgvYnjL+hsj+BtAEiZC+X5r+irYH5DjBZ39EVtdGN0BkEQ8K8JhDn/nKJzrbwN7GFleciTOGDEw2sRCUTpYYHL2+rAJJ68nY7b8vV0J7lkFEyQF0ZGwcu6UZ8oVpeHANEkZGF142+7v7z55U4T4LQgagQ0HeK/1vKwgt1d2xp3Z26tzU6h/SgKxj6INJZ5qMmvJxhSP9LDBHtrlf8HOJ6wHALovXqjbLGYe37M+N9g/P3XRTidEv+BGz178H/XWX+6trx/c1vkF9nClOO0WQjxpVw4P6/uyifNZ9hRlNYRUGjx6VrwjAPYPbmjv90gBsL/fniu0+2ELBRBddqbGn1+zYtHMmd/OnPn93LkLjpy6JCBVVmUEjDcfxvu3lr1g2cP7zZl2/VDvl9tZQSsDwJ5hOJK2WYrU/OKn1Sm8CNE4LKICpjwmYIMRiKVYvKqEhMyTezb1aPWsjiBJSqcLjn539NeXEh0ysPe1SDwo0nuRe+Oib+tXKqmjWZK21WjwytrtxzNFxCOQx8fvTnhlZ89Rbut+OB1CChKwigs+MOwDMv23bZn9FQu4gM8AS35isEcg4XaHKUX2voXowy13h0ZQk7wqL3vSlkwdU6VYME0SwM8jGZIytHlj6O7TV+5VVEdjYAEIwiALzsRLU0cNLGrjfGBPGlhD0V5DJ19I9MCcT1UQglRJzbgHQXRFVhVe5VN2r1vYsv5TFoZhAexZirU27vTW+r2nHDJ4nAqyP6EDNR0Hba6KC+Hs+yMvsPcVwslGcn/Nzt6gAO8lDPbOk3+t7fliIz3wJB6OGx+eSA3sRRU5b579a/AbHc0c1EzAwSMQ1Rny2exEB4+fyQA/z98tkx/rA2CfH72cn+fQJMQUVZY9qYf+XNOzS7syZcrGxFSpXrPh9/NXZfIgVi4hPgfY+22dD45V1/XzO7u2ft7Mgu8W9EYohmTCSj7Vat6aPzMwA8knbwfvNo0EoL3uFK8iiq7kP5bNa1KjHK62ag4tU3P6ot8zJB8eIyD8C4oqqO7k6SMHlgm1MBRHMOEv9Rlz4MwNtwwVcoDDDGCOAwRZDonbGo2ZzhKSXW5XWlpqUlpaelpqRmpaWmp6clreS3oKbJCYmpqSlpKenp6clp6emuF0CCCActvBC/dXrGHja6KCBZEERbSv/X5KzZgoDexpSJU0PN/t3e0nLt2rXC6eXoGHxqsiReYTzh0c+vqLZobAPgOGokyG0AofTv0p0aUJ52vRHCy6h3UXoO6A7FHcN2dNGF4+OsxI61iSoygdbYh4/f0vjsWm8BAIL/AO1yQBtMkkgP3J/Rtzg33jqYt2OmBuWoBR+Hu7DTWwP/XX2tdebGzggJ33UGL20CjNiwMKeuf2r+/dqQnIZ+GYPcXYQmPqjf9uhZ3XRLVhOhVYCqoHAmBfUD3/sM6rGcvIK4vOhF/nTX+mUmnsbjWGR5abMmthugfrlwLYy5oIeU6suK1NmKCnKMixZ8uCFvWqA0ke3hk0iOfqirXqPnTLsfMuXAsNMu8g8Km9NLGNB6592avw7vS4WZM/jokKATUeNqhum9d+23dKwCReFSg7guqVkcILCRfe6dQ6mKXBDDWVGTp5/tVkp+wjGmg1WLXcaz9BB0VRJHfCzYvTpo3r0P6Ftm1fbNu2U9t27du2e6Ft3ku7tm07tm3Xpm3bdu3adurQoV3bFzv3evuD7QdPCI+YqE7uAVSRFwmK6Ni9cm7Dp8swNAjAUBRHUKbKzbr9uusQf49XB+4CyHqXvIqMRNfJXetebVmXJaA6LfDsaEuxSk2+Xb7FoYB2n0a+1ygi4OzxipCKKfP2xLNDe78cbOBYUsdCrWSdPqzCR9MWXsvwCJiifduNl+9fH1Owl1wndq/p0b7hQwZ7TU0LwP7onyu6tahjYSBJFwQ3uZDoGs2/WrjRI4JTBNc+CKB9vt/dWScMgH1WTzw2/+JcZ1kVPWlXp48aWCbcTNEMSZmCDHs6EgAAIABJREFUQsqMnjIv0S5JUGwOJ66DAQYvcn+XDvQ6FQl82teT3qtUPNSAjXoKIu+sMajCyC9/Pptq57EDX/YixSt4geePnbg4rQ8Ye7I75dqpYf17mFnQ2eBMIa8OHnfoWpro8wvzqiJgjpxwed+ml+o/g0kBjCGq1rTFm1PdEpSxw8YUZBHiPMAceQS5W63KSHZdunj49Te6QIYgwRKEHrRi7yR5xpEUdnETBpJmCMYU83STJX/s8jxiojq5BxDAXlQlx8k/V7RtVB2S46DGLUvSlojqLX7ZuMsj+41r5O5Q3zdMCVC8Cigoi277ul9mNq4azQDljyYImmFs9dv0+W3fWTc2/nFsHBQXwKAHpp5HgdwQOe7C/t4vtYJQLsExBElT+ojyz3+zeEsySOJDvRwtDdT/nZhn0x7gyn8D+8qPpGWPROexHateafMsBzJGD8+y94E9EjO2//pDmzrlTTR+sEiW0QXXaNl98ZYjvADDDNWvAqb9A7xt7/FQAbC/xw4r9JsDJ1tVZeRJvXr8vR7tbBwFSEbp9OaoN94de+JyEryAsYIpNtyhaEi2QJrP1tfcmeC0lBXEnzu5/9UXG4XqGRZDI0VD1buKz7Rcsmlfsijj+t5Ik9CC/CwI10KgH6YRkGGfefHIttc6NNVBthVjCCsxYtr/roHKCPb0Kh5F4RFQ953rfv762XKldWAv6io++/KK7UftkiypWpoyVFrDhWhlv7kDqowke+zlE717dTMadEaDyWCwGgwWg9Goz3sx6I0Wg9FgNFiMhiCDyaozh1R4ptmyTbvvFQ4L+o7ITboAP7OsIs+N07u7vdiIoYFER5MMzVgMxapP/2VtBo8JlZgmn6Pl/skQwIWQFSR4FcGdfnP2Z8NKhxhoSMGkSYpjDRFd+o0+dDlJwEVecM0bjcAhQyDJC2WKVSSc2rv+5ZbPmViYJDAkzTDGWi17rthxIl1CImSLiKoiIVFy23mXgwfqhReBPkT+gX9eYO9LvaNJnTms8vNTF+4CNz6ugJyj3/L1Y9asXBssTeZSqyAAThXtMdZS2XEkXZU96VtWzm5Rr4IeK2RgniZnCooZMfaHRBfCE26Q64fL8s3pss5w+2X5Ww9nxQkXIHwlexJX/jC5foXiRoakIfeOYwxhLboN3Hb0miSD+AboK4Kojt+j3X7awPcH2gMBsH+g3VkYDoYji7LkvHBoS/c2z3EkSYBlT9M6c5W6Lyxdu8MuAg1eUkQo8OZVZaQV5/BJ5GJOPSRLS7KIZJcrI/6riZ9ULlHEBMYBBeW9GYM+uNjAUZNOX0104zLV2NrWDHoAY3icwSMAtH/Zk7T39/+1e64qC2VPzOHl6k5ZtD4NaqLhRD14A/BA4uMTJgzvVSIElFpIyvrSgLF/n7nhRPB2kOA4IlIFBcqT43y+vDsZCIk3r1/8auqklzp36NL5xS6dOnXp1KVLp5c657l06dyxS5dOXTp37vwS/HR5pV2nrr3fHfbnweMCdMgjvqhyZuKZPq+10dMkC3M9kiYNrKX0mG8Wx6W7eS3yDES6bDsLJmd5XjNw7hTQZlCRK/nKiU/6dTVD+UKOIED4SBca886YWTcy3DBnhFxL4GFh/AG1FgkCNKIqufat+bll7SpwC4EGPUNxphavDNh09EqmrEhIkJEDiZnxly/OnTFvwc+rbyRmuhVZqzXsr1V5NvU/rMwT7BtA6RuSwmDfJAvsITHkP5zoP+0K+klwABxagSk9VJGHH3CnwaQdeh7P9TFhFsnulN8XTm9UvZQelx2C4tQUZw2NGT52ThKWrcSCPwjzE4GXio+PE2pyTP9xi/O+N0DdAqgcCi4pLYgZl+ZMGlY+MpiFdAuSpnWcOapbvw9PXE4TZMSrsgfSZLCGz3/qhsDO99kDAbC/z44rxLuBbScJmTvXzm9VrwoHnDpci4vSmYJLDRrx2Zkr8R4EDjV4UFWEfBKePkNB8wuAp1/mnWnXflv8Y5N6ta2cTk/SLMkStI41BTfr2G3DX4cysLhdFiNPmzFkgT3YFwDSgv36kpljasVEsATN6YKrNe68aPthJ9RmUxQZip0riFdVwZ58ts9LzSzg6WdILnLE5z9fSXIKUEddFngnL7p4hZe8CFh9/l47KlIkD+/KvHzh7MED+w4fOnD44CH4OXT4UJ4LbHHkoO+Phw8ePLz/0JFDJ8/czHQUMDn8wdxYsuS8PnZk70grC0hP0DSpJ5jIviOnn45LdkENWB/bMas77wT2oLOmCkjKPHNgW+/2z3MEQUAuH00xpuDStT7/YZUdKzhgsBdwjoNPP1X24iRPyblp/vTnKpcw+MrIULTe1OOdUQcupbhAjoEXpdTrccemT/60VtUatZ5p8d381fGZbhFIAH5b9WA66dZRHhGwv2UTa/E3Dae1eTaAvYrTYPA8GhwqkjN55U9T61UtqQd1DCjKR1GMyRY98IOpV1IcTtCv8PqSJ3BuDr4ZtPcAttjhdFk3yK2+yvUJpDQA7VUFeTKuHx/9bs8wH0GAICnOGFr23VFf30gTREUWVFmASX4A7HN1YH5+CYB9fvZ2vpwLJzsJjsT5Mz6rERMFGa8kC+XDSZZhLRWqPDN91ryLcYluCfLqskp/+8x6MBFUUUWCwNtvXrs4b/rEpnWqBxv0HCA9iN/RBlulZ5v9sGhlfJpd9FGTtRel5p3TNM5BKwvAXPE4Es9NGtqrhE3HkRyrC2/32uDtp6+5QTgTxxDgdIKiepKvHuzaur4RnAcsbYn5fO6aZCf47QVn0qH9uw4cPp5gd7sxbds/2KuqLKuyBL8hBowbhzENECOvBdqqJWCDHQQ+AxF+/J4hXwbvQZ0EKWLK8nmf14iJ1IqussDRs7XoPnjb4TNOKHAEl3zLsNeC7XmdHBt8MkIeyZOy+df/tapThYXcfWy8sdYKddssWLfHhSl5cEivTxwWa+WKSBVVVVRF+/ofP69fKRqDPUmQFK3T93hrxIFzCR5ZEQTHpcuHJ4wfUqVCcT1nMAWVfm3Q6COXb0gwFcy3EO+jAfY5nQow7QVLPJu1Cg8gDAGMraTKvCI6Ey6f/mRwn+KhJhZ79rSKlawuqHXH3pv2HsmUkUcBZwD2F2SDevarINvhdyfAh8cMpmWKKjsvHNzSp1NzMwvC+BRFUIw+unzDKXPWOgQkeUVBleDJlPNtTPO6m5/sdQGwf9zGHxvlbkfS5QnD+kQH6VmCYgiGgbRXmiRpnd5S6anan46ftv/ImZSMTJfbJYhuGRzkEkKSKLrdjrTE+KvbNq4dNKB3lRLRVpY20MDtIRmG1ptLVq0z6bsFsQkgxIb/A3oAdh9qLwtNVAdb7sCYc8Sf3ftutzZBNMmQep2xeP+Rn59NzASpNV92uKKqIkKu8wfXt21YnaNJhtGHRtf5fvnWDF5wu5P2bl/Zq8cr7V/st3jtnjQe4g7YW5nXkIETExyRGhFIIw3kBfG31uFwpYKtEi3NGiwUgMDHYVEU2X5mz+9dmtQEWiVBcxRD0eYSNVr+sn5nuiSDdqFvCLSrxSOS14VrfaqqAp95Y+7UTysWCWZBTochKY7RBbfoMuDPIxcht0K7G8CU14xCCUZWFWXZo4r23+dOeq5yCRMNkVyapimGqdekw4KVm6/G3dy7d8fwYW+VjSkC95clvHaTTt8tXHM9PRPH8vMNGB4VsPfF5mGgAJTx/ArULTDJFUQiJEn0CB6HKyMp7sLJOVMnP1O5rBFXMaApHc7KAX9MRHSl/kNH7T95PtnudHgEUZKh2CAoVGp0G4z3vudacxjkdWfgdTBPhvMjRcjYsern1nWrGVhgdEB6rs7csPWba/48i59bUQItLxzcezym0367pPD+IQD2hXds7rdliip74i8cGdC1tY0FPjrGexJ4ephXxbDG6FKVmrd8cdSnY39dtWrPvj3HT5w4c+bM6dMnd+/a/stPc9/q16tBvVphQRY9xbC4TDdBUqzZFlOz/mfffH82PkWEnOrsguWaBeCzDOAfQBGkqJIspB35c3nXpnUMILpnNEVUGvv1L0luEQuvaqwgYBMqivv4rhWt61XhIJ2LNYdV/Py7hWdjz6/fsKD7S02jwosXLdF41vw/Ut08FjvzQ9vCijL4DXib69FvhDXLR4kpBsAREyH7ACLZj8GiqorHef3UiN6dQ3Q0dsxQBKXjIsqPn7Pomp33KF4ZCBvZ9lxWZ/zj0vHkSFYUT8aNs58N6RWso2DiSOsIkuVMkX3en3jmejomaYKNiVX2MNhDRFlEIN8kqJJz3f+mNKpWxgwwACoNBEVaQqJr1Wvetl2nxs83LBoVztC0zhRUr2mH2fNXxyWni6ogez2KV/pHcx7SikcG7DVSLQ6V43ktkhSJz8xIi78RFxt7+cKFc4cPH9i6acP3M796680eNSuUs4L4NEHRNEWAe48ATSyOYkxFSlVo26X7+CnTf1v3x98HDp27cCH22tX4mzeTM+wuXsRi15qEMI7l+7ftsS9BVRVJzLj+05RPK0dHQAENmiFpVmcK7d7/02OXM5Dm8tEUFR/SAAYOexc9EAD7u+ikR2oToMtI7qN7/ujUrI6JIWkoPk8wYI1RDK58RZEsPPC0PjQsqtrTNRs1fr558+atYWnVsEH9ypUqmE0GiiB8suokqdMbzUERjdp0nr1w1fmbKQ4JytBhTpBWcPYWvdaHGIAPELAX3Qm//zylUZWSLCRqWYpVbvLD8s0usJ1xMBZrbALnTuJP713ToUFVA0MTwN4KqlLrudYdWtWqXSksPLhEqRrDP/722MUEuyQo4KjPnWmWPTSYtKSRinMH9v2CfdaueNaC1dFBOgYnJ2T96RH+F7jPjuT5X42uUjzYSJIMBNppQhf25gfjj15NhGA5IH1259waxNuuGY+lJImOqyd3D3yllQ4y7BmomUuyxtDSH3/xv0SnLOLoOvJqlD9tvgdVGIB0AVkS7jO7Vr/UsoGNY1iaokEOmSQoI0HhdkHs32CwhDdu02nhqo3xqS4J2P8uSXWLQD3Ln+WRAXvfLQq2twL9rQr29IQZ30zr1LFD+3btWrVq2eT5xvVqP1MhplSw2WAkSSxbSUDaO0ED2OOxg9uB4nRGW/GSMdVr1Wn8fNNWrV94oV3bDp07fzju86NnL8q4qEGW+PSdsnMVSZKQokietEvHPu7fI8zIkeDEpynGGFay6qfTf05wATcHz1HAEfF4+M3y56Z84GcJgP0D79ICPiAQ6QXXqQNb332jc6niETabzWYyWox6ltPRNAsylgSFZ/jg1aeg+ClHECRor+AFS6ljOXWGNRotVltYw6ZtRk+evnXPoYR0p6iR6DVQhd/ZpiFcdRbYA0NQVgVXRuyMT/uVC9GxBMewwXXbvLl213HRV9gGLHvJ65WhAo5ojzs6pGfrYCOYoJAsxuho1sQZLBWq1f1sypzjl27aJdACUhFwtG+z3H3djd0JmtAb5oP7YCxX+/IeGc0fqpEIcs8T8t7+0VgLoVTRfWz7bx0aPmWhAOwxxJrrtnt17d6jdk0WGBBfW/yCPY4EywKfsW/z0k4Nq+ogGgRgT7GGYuVrz/zfBhekowEdW4IfEFfCkwhIvIToMTBBRTHp3JQxwypER+oZmgaKO0lSBpLSUSTD6s2WiJKdevZfs3V7UoYdmJ34nkBQKS97LvKw+/zRAPsspMcpL1C3QlRV180b5/q82UPPQdoN9CtUNKZB05oEoQmWpEmWJij4j4I5P/xA5Up49hmChPQImAWCIiJFs7rnXuiyZf8xkMuACZwG0sjP/BoPiixDdWvZc2b7+p4tG4FQLkUSUBfTVqdZ1yVb99uxHDJkMECU4FFTp3zY913+Hj8A9vnb3w//bPCqRbI7/frpw7vWrF4554fvx382ul+f15s2b1G6dDmrxWazWK1mk9VsMhtNJpNFrzfr9QaTyWQ0Gg0Go8FgMltsVltw7Tr1Br079Pu5C3bsO3o9OUMEpRSgdMErXIvtZaN71kXlAHskq0JmypVJH/QtF2ELtoaFhhXvNXj86aspyJfiDy5kqIsJCUSS6krY8dvPTZ6rZ7WFhFjNFostNLTMi13eXLBiw9XkTLei8FDTXkWyB9KN8l58CufYhvBxi3ztyXt7nKykvYBAEQjeaDjZ2N/Wd1r/Lyf6x653MQX5xz73uAJnPoquhLMf9u9SxMRyUJiYIkidKbrq1J9XJTgFPIy4MCCE22859G87D/hpVZnnMzetmt+uwdNBFgvcQraQoJCI5u1e/WPHCY8KwJAD7ME3onHyJdB3AuKjV0i9fOrQ2A+HVC5fxmq2mA0GiyXYZLJarSHPNW4xftrsvSfOZnjcMmRnQCVErahSPjpZcLagdl+rCKo57NvYs+2zOvCEsSRnDa/cZPrCHS48QYVfBbVonid8m4KUNeJVxZmedm3woLfCw0KtVqvNFmS1BVutQUFBwUE2W5jVGmILsYYEBYXYgqxBNmuQxRpstQYHWa1hISE2qxV+bMEWK+xlCwoJCots173XzkMnPUgV4Mn0B/ba/Y5/I1GUZd6VtnzG5LoxxfUMxTAMxeh05iKvvzf2eHyaS0HgjIMnEsDe/41WUH36BJ03APaP62DDo6gg5HK5EhMTz58/v2/fvvXr1y1evPCnn+bNmPH1uHFjR436cPDg995+e0Dfvv379RvQp0+/QYMGjxr1yddfz5g/f8GuXX/FxsZ6PDwm7txtL2l2IqZwKy6n49jRI7+vXbNq1erf1qw5duKky+257WkHgxwYPoo9M2P7n3/OmfP99GnTZs6ctWTxqqNHTrtcQA+AtwT8klXwBRSgIxCbrFm8AO2FB0334pYpUJ4PUpAA3oC1BCQqJPucDeDhvgUSmAHlc4RAD2gH9uOzuNuuz7EdZit6ZUVS5eRff5pUr1JxI5h7UJuEYMJeH/LZwUvxTlAwQF4ke5EsYmdIjgPc+ogZ3jKSxRvXr27Z/MeqVSu1n9WrV+/ctTctzQFqOijn7OXWZWrOHsziUJAkxl05/+vShRPGfvrB8KEfffTh5M+/+PHnBTv27L+ZlAoUMazec9vtcasdD+cTprNrzDSsE4AkVRYQn3nsr/Wvt3uG4vQUa6UZW9HKz89ctBnST0B6MufFPpxm3cVRYeoNzHaF5z1Hjx5ds2bNqv+8rF792+6/9qRnZML9g3KNo69FcOnZZB1whwDzX3Innj/6Ud/uEQaO00pgM4YSVepNmbs0kZdBlxuXwvR5Ax+5EtJ3MRaPyiYBsH9URur+2wnvBSjmBq9TSRJcLkdmZnpi4s0bN+KuXLl04cK5CxcunT9/8ezZ87Gx1xISkjIzHaIoAwRrtg7EB/N68vNqUTbYa2lAGu6hrAW/93O9KzUOsPZblmWHw5GZmWm320UB+xHAyNNOo+HjHbzNebXmAa/LCfbYLwmtA1MUBH8g/QhQO6sHsOsCqwBB/+PL0OYH+PctJ8ItsL/bPv73q/LZ1oqsSvYb5//q2amRiaEZkoG6Boy1ZNWGP67eluwRwY4GXVtsxPk5Kr4ciHEgJEGxA99cBwYC3yGwm1+3AL5zNPyG4yBR9DgTE65fj7saFxeXnJLq4UURZ39mdVque8NPix7kah/Ya5mHcD0IJJ4k1+mDO97q3jKyROmYitVKl65Yu0mnhWt3SeDYAiWiB9mC+z1Wzh6DrsXVGrXn6H4PCfsBY/ZfsuOyn0T4ADMOd8ofi2a2qFPRzDIcyZEkyxqDO7w2YMexc3ZF9fgyZnGiIDbu/0vzAvv+lx4IgP1/6b1HYF/tRaA9wJD7jl/ZUHgUp+toxBmtrKuGOvglgiOv2NTRdr8PsNdgXvudfRD0Dwm8rImI792lzQrwG8f34soC+4LvamyB53rTQbafF0jLXhUKoiNZlCVBxouEF1mWJchrhIkAVNvFBXexDGyOeYPmldXs+wd0lZAOgUvXeCURCUnfzxhVrUwRIwWFTkmCo3XhvQZ/duRyohvuAwmKHsPY+zs3NBXfObf8utpt4wX7T5VlGCl/O2ffALAB5OfJeHoha+CEedo+T0hO9PJ3tAe+XgN736lhziZ5kaAi3p4Sd/zvbWs3b9n0547NmzZt2X3gUkImeB8KDcNMezy0JytrLg3pc9nrs/vznj5oR/A9ezm7O48RxvNdRUi5fOTjt14pGqxnwaxnGNZcvEKtybN+Tsh08YoCch6aSi520Pl3IeU8WeDzQ+mBANg/lG4tJAfVzOvspz3nuyD7paBZZuAtxz8a8MN7D/ujNXi+e+dqnucC35/PuwB/z9k5Wgu1swCkyAAD2WaK9iHn9gX6OQdCQzQB1wqWeVl08a705Jtxp08c3b1rx+9r1y5dunThwoVLlixZ/dva7Tt2nT13ITE1wyNJAgIvsAS2oXYoOIjGusL99gAvTlVUQZEEYDoo7tgL+/u8/EKYHtKwaIqjSLZ4zDNf/7IhmRdFrwjaBbdTLW+1JHtA//lBMwTzAIZbe8Mn7a7DMwMfKmkQpUkiaPOG7IPn3jU/vmWfWlNcwKqOgoo8SHLxqhfSM5BHVlU+h6MrP5r1b+fQmq0NAXhdoL6VzyjPvqL7/pCXca9Nc+HG1X7wv0h2Jy/9/vO6lUroaZhJkhTNGUM7v/n+/uOXBVz0Avz8ii/ZFh72ggzD/VufPu5/D4D94z7Cj+r1ZdvQty4g9zzh1vp8+qQiBQkKErARz/O883rclc2b1n05ZeJrr77cunmTJg0b1q1dp3q1pytVqlihQrmKFStUrvJUrWfq1H+uYau2HYZ9+MnWnXuSMt1uTegfsA7JklZrGDz4uSZB//WSVGAyIqg4B/nuomPjrz81qFFeD4nujJ4kWS6oRdd3Nh047ZJECcnAf3+gp8+z+TlwQrvc7CF++OfOs0G5VsIMJEeQAmo7SfBd9qo8cBB987Nc+zwxX4D9iqdlGokVUBvJgiJ7zh7c1rdra5uBxTo6JK03V2vU7udV2+werVwlKHLifcGuxwSXAuTcPDHD5edCA2Dvp2MCqwu4B7KR4FYoOz8Q6Q5XDQXceElwxsVeWLVyycC3+zVt0rBWzWrFikboOJzORJAMVIihoIQ8jdOafOmMNEGxweFRNerUf2foh/uOnMrwSDzUgwOVQUw5BD/4A0Y8Xx62CF5yGTlTLk+bMLhidISOJXUkwZA6c3jM8PGzzl1L9MiyACoqd7hyf3/KY4z8bZrXbCbbU/KAL/0ObfDzJ2hJDrCHrbQAPgTpIcMN4/5jI8Lgpxf8r84B9iCXhyAnR3Kn3bj8+UeDyxQJZkC4hyAY1la84tCJ315KyJAxlQVHuP6Pve+Ak6q6/t/pM1voIGD/oUhRQCMqW2cbvapIt/fYNZrEGDUmtsSGVGuIRhGQjj32bixgrFRhYXenl9du///PfbPLAjtEiCu7cufzWN6+ffPevd9bvuece865SG63IaUE8GZVZJ8d5hb+iyL7FgZYPX6/EGhigdypb8np+IARAyPmV59/eMtN1w6tKBpwfO8O7fNckHgoB/YChNBxF+wq5vLJ7UYcDjubgSMHoo7BvCkzGbp8nbr1LKwYsXDVaxGDWBCGnuFL6b+0X0g1+yXbHZ8jLiww0iPCaWrr9x9ceNbQLgUeSFrrcLlcgSN7n/bwY8tq45aZdefgZp9uX4R3NFGF93Jn45/syjb+2npOGskeepcteMklZjvp/0454IB1vgMMVSPZ236+RBCDJOsXPHzPqX2ODrhha0CHx+XJ6zjhgmve/nKzDkuAMj+VFGhl9KZ0xpcOrQe4Kgfx6xXZH8SN34qrnoXsD6AvNEd6bPGCuacNPC7gdkDuENDdYZHS4fa4vP5BJ5924+/++NTTC1esXP3880sW/OOx3/3u+hP6Hedx5bggkxFkK3a4vDkurzu33SkVo1e/+UkC9hpuYBaRLVvQfjWSJGLOLS6Q3PSUwO6CKPLFW0tHlp3s8bhcLrc3x+lydzxu0IhHn305lDKbpKHf1dye9f022Tfyfdb7mvyhqSVgJ602ueFAndrCEcQ+NlZekj0sb4A/A1y2Ayj2xwByoGr1U7zXdt2ENY6GgwiKSDq6bMH8ypP6tHc7PU6Pw+l1+fLKxkxc/MaHYZNY4IcL4quMAJKRtbYzviL7n6JJ9vsZiuz3Gzr1xYMKAY6N6OJ59xQed4TfkePyOJw+l9sVcLnz2x3ea+plV61+452aupCmawRjgq10OlWzbesrq5+fMm5o14DL78jxOl2wJQ2o/G5ffperbpv51faYAU6RQjC8Vye5/cK5CZmC76VMVGCkY2uWLygrHJTncfscHpcj4A10PWFwcPaTz9XENNgdh1CO5M7jHBGKyV787KFQB6uiu18N0ia+1CQkB8IyEbEwg1T5mYR6BAlimrG6p+c/XD54QJdcj9/tgs3rPbmnBYc+tXRNXcqQ61MQuNEm6ntQFVKR/UHV3Kqy+40Ax0Z46bw7So7r6QO+dji9Xo+r4+FHD7r29ns+Xb8ljihsyksaN9QBFyakRz9799VpY4d28LrcMjEpWPsdLqcr94hBlU+98HbSkhH4NtnvLV59v4sNX2zwfgf1NBHbseS5J0tOGZjvcftyPK6cXI+vU+8TBt967wNfbdmhEUgNBBF5zJLxhJAB7396t/pym0KgiUXNPoUwGrkDtEWpQazU9k3f/OWWGwf16ZXvdXlgrcrt8vhPK61csGhpTTShQ4JMLvfR+WVsKNWmGu+/FVaR/X9DSP1dIQAIcGxEls29vfS4Q7yQTdyZ4/Ll5h95/uV//HT9No1B6n5CCXjXQ9g9xBLKWEYda5EVzz5eNLBPwN5bCFKUu3IcAVeHXvc8tjCUggSFsF2ctBq3ENL2tG3HN1KKk7HaF5Y9M6aquGueP9fpgeTpbt+hvY4947wLF77wek3C0GG7OthOTWBLUOVR1ULN0hof22CrB7M7I1RuPUUYQpxqWqr+9VdWXHbRjF65vB8DAAAgAElEQVRHHuqVuxU7XB53Xvvq0acvXLZqRyRuUgbyLuRSAImxNVbv4C6TIvuDu/1V7X8sAhzrsWVz/1JyXHcPGONdXl+700omLHrh/RiCPWAgu4yMypNkL6kbHJMszoy6LV9fcfYZnX0Oj8ORkwOZ7BwOf07gkOvvenhLKAbLmzLnecvFGtiR7pk8NhRzisxk9JO3X77usun9jj4kz+30Odwutye/c9dBhcErfnfHmnc+qYmnDYjRZ4rsf2wH+UXc10D2MhaBEo5NjvVkaPunH71+y++uKhlyUtdO7d0uV47T6/Dm9+x1/IVX3/jiW++HUppJKKZE7pNFKSP74/H5iwCwNVdCkX1rbh1VtlaEANbTCx++Z8hxhxfkBvz+3C7dDvvNH/76XW3CghQ5uyQMlz7qcJFD1BbCWv38u3/Xt2dHn9PlcHjcOS7YetTb8bI/3rt+RxjS68kV+5Yj+6YgQowdpYJaFMU2fvfhgkfuHVUx5JD8AnApcDq8Xl+3Q48+qWzk+Tf96fXPvjYhBbBS0Zri90s/z7hhyP5MDU6S6/79xu+vubCiZPARPbv63G4IPXHn+vO7llSNe2D+0198/0PcwiZlFpGZ8mDza0gRqbw5WmFHUWTfChtFFak1IsAwXv/Jh4sef2TO7DmzZs9+9LEnP/ziqwQFA36TCLRGh3MgewZb/BFmxZY+etfJvbp5wEHPC1vE5nhyXHmX3nLPt9sjjBLIuQ4TZMtn/ueQsg+S3HKD8xQj8WR028dvv/rQXX8KFp7StSCvndsZ8Hg8BV0HDTvzmX99kJRmh9bYGKpMLYRARrZjQmBGdUET77+5bFTVSQGf2+1yud1en6/glCHlt95x32tvf7K1PpUmTGcCg/8ns5NBN0Y0tFAB1WP3GwFF9vsNnfriwYUApwSnk+lYLB6LR2OxRDqdMg2DIUwyq9qNUVv2CWx6RzFlhOmR5Y/ccWqvzh7YUjzgdnocOZ4ch+/SW+75BsgekwzZ/3Tb3u2lZWwXAcgKZ3KOGLWIlQ7XbnrrzVdmP3DvuRPHHnfUYe06dT3zoqve+3qzxtQO5HuB8pf3p0w8vbTnMEaRYPrWDWsvmD4hP7+g+6FHjRl/1t33PvTq6+/V1EYMTBADy5VMrQeZmxpEXqXVt9KOoci+lTaMKlarQ0Bm+Yb1b3BBIhjclDHmFqy5N2RiaXICKj6nFBPCzNiK+beffFQHj8uZ4/TLrDs+p9P/69vu+7Y2RhnGPx/Zcy4wbN4D+fUg5ynjiHETU83EWiS84z+ffbBi8TOzZj+85rU365M6kjv6tbqGUAVqKQSYTBdI7CxCGBPYJlNPvrx62f0z5z6zZNWHn39VF0kaFoEtdzhmFHZ7YJzAypCM71Q831It81M8V5H9T4GiesZBgYDM7S1raq9KytRgTTPdSoKXWwlntrGH7CKYGPXz7ryud2e/FzLX+Rwup9Pt8fh7/OmBf2xNGLCXPLjL79zNt4WxtBca7GrYCxCUw0a9HGQTgpBlJBLxeCJpIpzZtbeFC6Qe35oQyKwlgdgqPxRjLZ2MxhJpHXpEk10UwIkPtgrKpBxsTZVQZWkOAUX2zaGirikE9gcBmWfNniPtn7B7YDq89fMrzx7dxevwODw5Do/T68rx+I/qXfTU4tcjBkGQMNzOUHbg9aKGskv7RcMv+4OE+k7bR6ChC+/SGX78btdtH4BfWg0U2f/SWlTV50AgkOFpuT+6vbsX/KQEU6PuzeXzK3/VKwD58n0Oh8/hcufkdph47nUfr92sE1CV7N3A5L5qB6Lse7zTDtVrugnyHreoC798BOzEDLvV8+eJGdntperXnwQBRfY/CYzqIQczArYxPLNyT2F/GMnfnDFsRDd/9ofLzuxR4PU43Tk5focrN8cV6NJ74EMLloZk/jxYCwCjP5U7h7QWGBu0evi/tZRJlePnRcDuA/Y7VX/4ebFvkbcpsm8RWNVDDyYEMkZ4ydkCyfyiMhYJWYm6Z+bcObj3IT7Y/s7jdPoczoAn/5AZ197y7w1bIYqd2fuLQAq91kb2B1MLqrr+KASa0v+P+oK6qTUhoMi+NbWGKktbRAC868CBmUHaWy7ziMHO90iPfvTK8jOqhshkOi65+63P7SmoHj999bufh01kwQ63GS9mO9ipLdZelVkhoBBoEwgosm8TzaQK2YoRaEL2FNLiY85NYsW++vdb15w35bAO+d4cp8PhdbgCTn/7IcGRi1a+Vp8wDWZhYSFw1wc/eJAUlMG8FTeyKppCoK0joMi+rbegKv+BRgDI3s4rC/FznGOKElu///TWGy7u3aNLrgPSiLtcfqevw7G/KpuzYHF9OEUxI0xDXEeQtcbeKt3OsXug66LerxBQCPxCEVBk/wttWFWtFkTAzp1jB6zDnjeQVZZiMOYzQoi+fctX99x2Q58jugXkNvYuh9/l6XhE/8LbHnpyU22MUiIgWhkRjigk0LdT6qjd4VuwwdSjFQIKAUX2qg8oBPYJgUwiGnC6l4fU6xkniFNEkV5fs/GBu/94/DFHeB05bqfD5fa6fJ0O7zPk5nsf+6YmJnePNVUekn1CXN2sEFAI/O8IKLL/3zFUTzioEGiSEtfOHcYZJM+lhOJ0rGb9Y/fdeWKfY7xOh9MBG+E6fR0O73PKzXfP/XpL2GDCYgxzoqLZDqoeoyqrEGgNCCiybw2toMrQJhCwaT6THdROKyqzijJOMEVasm7jUzP/UnJ8n4DT43B4Xe6A09u5e68Tb7xj5lc/1Fuw1zdse49hfzD1UQgoBBQCPysCiux/VrjVy9oyAjIbrtyrG7b7tnPaywziBBmJ2i1Pz7y77IRj8x0Oj8Of48hzeTt3+7/BN9z+4NoNOwy5+QzllDDM1A7xbbkTqLIrBNooAors22jDqWL//AgwIahMiAv/Ibn1FwPHejNW98NTs++vOGlAgcvpdzi8bp/L06HHMUOuvOXBLzfVmbCtPcWCYrnZjOBYOeP9/I2n3qgQOMgRUGR/kHcAVf0fj8BOsieMMUoZQQxpqfDWp+feV3bSgIDT48rxuRw+jze3Z6+BV/5x5heb6kGnZ4QyQgUjQPYy9Q4sBaiPQkAhoBD4+RBQZP/zYa3e1MYRyJC9XKfnBFsMaVqkZsmTc0YMObHA5XDmuJ3OAqeva+fD+l91892frq8xZIYdzIi03kNmXLmRrWL6Nt4RVPEVAm0QAUX2bbDRVJEPDAKNG95wiI2nyEzWr37msdHFJ3fyOP2Q/d7l9ndtf9hJF//+/k83bLc4pcyinEBaPUiSB7l0GWcEjPgZvmdQEdjuTv6uhIAD067qrQqBgwEBRfYHQyurOv4ECFDBiZ0sj2DGCDLi77+4eMawku5+n9/pcTtcTndBxyN+dcFv7/twfU2aE0JNDov7mQx5lBHCGYYDcuwxadk3GWccCUbkfURl0fsJ2kk9QiGgEGgOAUX2zaGirikE9kCAQCg9LNYzxoiZXPfBK5fPmHB4h9yCHGfAFXC6Cjoc2uei3/z54+9q0lwgyeiSvDNkD5Z82C8HM4YwNpGFNEQM2DQeC04kzyuy3wN0dUEhoBD4iRBQZP8TAake80tHQO5aSxlllKCa7z674/rzj+7e3uNwBNxelzM/v/OxUy793Ttrv9e5IFwQBmYAmWKPgM1fCEIJ51hQPV6/9b1333phzUsrX333++0hwhCs5YMFQJH9L70PqfopBA4cAorsDxz26s1tCgFYgseYU5Ko+2HWnTcef2QXn9vhdLld7oC/4LBxU698+YOvEpRazKKUyq1rqeCg4TfsaQf73nKUfPH5pyZNPL1wSOngivFPrXzJwKYdsc8g+a5atm9TfUIVViHQdhBQZN922kqV9MAiQCknxEpHX1nyePUpfQPuHIfT6XR5vIEOFWPOXvHqJ3GTW5wQMNRL+maIwyEt/5wxhgXR4zs2XHvxtK6dOjidfm+3vg8+9byGLNjeFmLyIIj/wFZRvV0hoBD4pSKgyP6X2rKqXj81AhQxrK1f9/5V547t3s7rcrkcTo/X5z81WL1g+b/qU9jCBCGDUIQpJQQxYhBsEmwRQuACNpOR2gXzHzqx91Eep8vpCHTtX/7Y6rfSBFOZmg8o/6cusnqeQkAhoBCwEVBkr3qCQuDHIYDNdN3G+/98Q5//6+LzSLXe4fb6c4eOO+P+J57659KlS5YsWbxw0ZJFzy1a/MxzS555bvGzixY99/zzixcvWvj0UwtmPXjfdVdedtLxvQs8TneOy+HI7X7S6AWvfJgmGDbGoZRyJiPxflxh1F0KAYWAQmBfEFBkvy9oqXsPUgRA9aZG7MOXnxtTcZLX68hxOp05OS6H0+n2depx6DEnDup/8qABgwaeNOBXJ50wYNDAPicM6tt/0IATBgwYNGjQwAH9j+/T+8ieh+T7PW5Hjisnxw075eR2GTDi8Rc/SBKCIAcvBnP/QQqvqrZCQCHQ4ggosm9xiNUL2hoCOzkXtqmTyXA4NRI7vvzzDecd3a2T1+VxOl0ORw7k0clxOxyuHPgFDvkfnObYRw5ca/Jbjv1xufw5rty+VVOee/vTJKUmrNlrmJGdL25rkKnyKgQUAq0cAUX2rbyBVPF+fgR2ci6QPcOCY4LTb7/09IjivgVulwf0cpvYnU4ge0eGw3/0f7Axnju3dNLlr63dkKJMkn0ac0X2P39bqzcqBA4WBBTZHywtrer5oxFoSvaQ35YzZJmJZx6/75S+h+W6XE6Hy+EEtnfmuJyw+r7PZO90enOcvqopl725br3GGALNXsdCkf2PbiJ1o0JAIbCPCCiy30fA1O2/fAR2kr1gXHAqODb1xD8fe+iU/kfnuiW7S5t9A9n/aI2+4UaH0+1w+4dPvujddd8bEJPHObcokL3yx//ldy9VQ4XAAUFAkf0BgV29tDUjAAlu7fLB/jUU/iFL+3bdx0ufeXL+7Fmz4HhozuzZc2fPnzN77pw5s+bOnTN3Xz4Pz5ozc/bcZS+/+UM4gTnsess54iBZqI9CQCGgEGgRBBTZtwis6qFtGYGdZA8x8JTLlXvCkIFNHVmWiQzT0pBlIhMhy7KQjvbxY8JDZEg+bITDIQWPwHLLnLYMmyq7QkAh0IoRUGTfihtHFe3AILCT7GHzWVu5Z5RTwilsXMM4YRxBVDwVnDEOOe33TScnFENUPZf/YL9c2Ope7PtzDgw86q0KAYVAG0RAkX0bbDRV5JZFYCfZgzM+YbAdPSWwRa2kaMIxpoZN9iALCLyvxWGcMiGfSSnPkL29a86+CQ37+l51v0JAIXDQIqDI/qBtelXxfULA3rsOviIz2Dc68UG+nX16UJObFbU3AUOdKgQUAi2JgCL7lkRXPVshoBBQCCgEFAKtAAFF9q2gEVQRFAIKAYWAQkAh0JIIKLJvSXTVsxUCCgGFgEJAIdAKEFBk3woaQRVBIaAQUAgoBBQCLYmAIvuWRFc9WyGgEFAIKAQUAq0AAUX2raARVBEUAgoBhYBCQCHQkggosm9JdNWzFQIKAYWAQkAh0AoQUGTfChpBFUEhoBBQCCgEFAItiYAi+5ZEVz1bIaAQUAgoBBQCrQABRfatoBFUERQCCgGFgEJAIdCSCCiyb0l01bMVAgoBhYBCQCHQChBQZN8KGkEVQSGgEFAIKAQUAi2JgCL7lkRXPVshoBBQCCgEFAKtAAFF9q2gEVQRFAIKAYWAQkAh0JIIKLJvSXTVsxUCCgGFgEJAIdAKEFBk3woaQRVBIaAQUAgoBBQCLYmAIvuWRFc9WyGgEFAIKAQUAq0AAUX2raARVBEUAgoBhYBCQCHQkggosm9JdNWzFQIKAYWAQkAh0AoQUGTfChpBFUEhoBBQCCgEFAItiYAi+5ZEVz1bIaAQUAgoBBQCrQABRfatoBFUERQCCgGFgEJAIdCSCCiyb0l01bMVAgoBhYBCQCHQChBoW2TPGxDjQux2wF/sS5l7Gu9t+M5e/m+8lzd8GOccnvffPvKWne9tLNR/+16Wv8P35TPgp/xAgRhn8oBrmVI1/Hkvz9n9T/LbPPP8Pepmv1ViaAP5X96w+9P/y+/yaY2PbDzJfMuGrfERu/+58Q8NJ/b9si7QTE3v3/3irn9r6CS7fKXhqT/m/6aP+zH3N97TUOTd+22m6rvVovFrTU/kuxvv39mCDVXeee+P6ro7b/9fz7hgP6b8e31N03rtBnLmT/Lr8hz+Die7vLTpXc28aZdn7vJLk5sbnmH/zwXUq+G1Dd2s4Z7GP9i3ZHtkk6fvetrwnMz/Dd9vnHZkG8rJQN6x9x7b8DB4BZzbXWLXF+72m/0VeG3Dq5ue7XZz1l8zTbDz/Q1nDQ+V/+/aUlkftvc/yHpxmJiZnBJ/VCdvKI589C6/7Pmy//LnPb/Q1q60IbKnjJuynQXnmAuTCSQPg3PEOKGCUsGogJ4gOBWUNA7V3RpF/tmmT/tuQgVnXDDGCeGcyG/D9zGD9wnG2W5PyPzKhYBvCiIYhidwQeUVAhfhi3KCALEBns45p/KO5h/GKGfcopzIpyHCGaOcM8QpIRxhqCyjjMIJ1C7ryJR1IQK+bMsJhHBGKReEMGFRgamAchCWmaEZ5ZRwgQmnBHOGBeUccYYIp1DkXT4NswgM8X34MC4IvNOkAiohOGZwwijjjArKGBGAus0YcLPErVmYZJUE4QIJbgpiCYQEwpwyeAolnGCBqLAIRwTaE5oDmtM+AGJCOLEE1qFxs3xkV5DowGwP7Wp/7FYUzK4Dtec5lrUhoPxMHjBREyGwPIjIFB9LKCxBCWMMC90SOEs/g9mbMgbVZEhQkzGKuEBcdhEGVbYEhh4oezaHLox/1FTYLMQ//qI96TJOuIGFSaDDMxgF+/oBwGHgMSg5Q4JQxjiFFoWG5QgOORgoxwzGJeUMMY6oIFS+ERqacQFN0vy7mcDy2TA32B0M/gcpGnog9A75bQz9hQmOBbzUpEIngsDoR4QxZAkKL+acwNdk3xAWs2/gVLZ0M2/ngjIYbZRC+eREILu67A0UejGzGPR/6KhcWEQgCm+AtwkK1UTwC/xs7IkNPbLxfyQ4gq9DnTCF6cJCMBCa71CySCYHTDDjlMnywL32xAW/73E0vgpOGucBjrlpQaPYI5xRmGEsOUEBwHIWxpRjKggG9AiHhm7+IweSTbhNf9pjFxDKzPMwSRPM5VuawRu6gGxaKlsceqfdzkxgBt2GyCpLMGEoy2mV2w0EDQAtBLWHVmvu8W34Wtshe+BKBP0ZRih0Uxg7cFBBoSNBT21kWQ5zBLRacx/Z1zE0M4xQDv1PnnPKLG5QJh9l05GcSqB3N/+R/A1dGUgaujCDEiHOYABJ1rW5Qg5xDjNOlg7EYbBiJEygKOhoDMQWSdmM2KwIcoKcleRLWfNVEzBbETm1wQAE/qQEZATJNfB1IrkUsIKiUc4sThAHpodZSxZbFhOIBQoClA+k3NzR+Ne9nsBDpJADqNi4AFZ2ewksiwQ0bE9V9kDF2SiUASowJuFZlHMqRRXZ+jB3USkhwXWonJzQbU0ASghXZbUktjADNNSusfwZEbBhOoPvypkaxErOpawCBWcYJi94DMwZDerfnn1Eynww+UiyB5qHcyAcOW/DKTxV9lsDpvRsPQ3KAY0EPR86BHA+EaZghiAEeBEqLCUb6HWMgWCRrdPuWcz9u8Lk5AvlF9TiFMnZkVGB9vXVcgxLwTqDDVQBqglCPIZ6S5Qy/Z/YDEUYldcleUO7Aoo0W53lo4AuYS63lQE55G3pGaQo+zIUQPIKA7GaU5gaQOQGgRsuALZcZ9yQHUVqHRL57FOE4CDDgXQrKQ5qAie2XkKFFEIYUI0tr4BYDs3JGJbdCzMQfWRXx6B17NpjM6PSpigoOQwEObKga2btTQJGjwlPllwnpRdgZhC1JPTN/dxtjMCroesTEFRBOoI3cyIIscc7CMFyxMm2kb0eBp/snFRSaeMDG05g4tr9AK2EIQ5TYaZ7A1K25JxtCgRZhDGQdUxb6JFFAiFRE6YhMJYTNTyHESF0LlJ2o8j6QK3klAGl2r+B0Wq/1YbIXsB8SzjmkhQ5yYjkDKY+6BAw2UhGhB8MyQHWLO7QgeyZQY5jCkKixUHBQoZIUo7szgTMDRO6FO2bfZAUADmo2iYUAEonLMEN0LQokANcwJK1YaaCsQDyRTMfDgU2EaiktmEC2JdRmNoRtwjDkrYbZnO4BWfXJKB2BKQHAZQnJX0Eem9mHHOYEZgsF8MC6cI0QZmQ1gKbeIDH4E82Ozb9mRnADcTZ9E97ObenFEBTTtugTcn5DkR9GFNIAM9JTRUmBJBAstVOginnS9s6QSinmDOLMkwYSO6yGwBQUB4Y0HLowlxEqZx2wSwEkg3JVuBGsQDaE17VOAkA1wJtSLUSxE2b9EGSav5jTxyyLhkd375PcjeoidASEgpBEdgpsskNshpgBJEzqRTNEOdpwZKUGaDn23pIRjGxWzEb8TVf1H2/Cno4SLEMDBbAE6AKcbrvcgYRBAksJVt4iFQr7cGEQGyVrGwzPYMmpCY3iTClli9lROjQFMGRTVYSHPqGlBuAl0wYozBpMMyxJfSMEkylMAYNDuISjB/QlgkFe5sFr4NJAwua4DwN3A/dy6bFrO0mjeRAv7IXgZRHBSICzGa2WQseyQSCngSDw0ZQStkg02GeUfTByAGajC0rSBJtMgbtrxPoS7bELPmKSztF8+2aMWIiaDrGhMVBXQGDyc7O3tjr7ZMmr5OSVYO1DIRPShmR07K0tUiqhGEHNkIQwKDk0D0o2NtAT9u9/A1XQIXb8wB7J0h+dtEYjEEmbT/ZOrhUcsA0xDHh2BbYJMAY7H+Z6shSgsRii10gqFCQVOCQRGIb3pqHr41ebUtkz5FghFrc1IVuCoygXzDCMRaWtCJaVNrzpdgorUXZ2gREdXvggHGUwEg2GTcINykDG6mcPWwrPIxEmG6yfORkJ62pVAoOMJgpgRnEssDaiDnYA6kcdlLczP4kMNnJPi3Hki64zsEWjU2hIW5hSc620RK6/V7s+NIORTnMwFL1JJQjU1gGWPbgkAOAURg+lAjL5JnJTs4QYG8nQL/IEKYc+vbE8T/+pKDcyKHPpOyPBIjrFrzFwLA6g4RciJF6K6jn2fTSBgWMZqy7MBua0gauW8KEyVHOWXLOk3abjEYFM4VNsaAYMoMBvDYX71Y1xrgl9R57kQiD0mUvydjzm21AgtmbgSWZG4xbzfYOLrUd23zU9AZpBLXXoQwmdJhqQXmlYErcy/wFvRDWXijMW5hwJA1dhsVThJtSIZR2Avi7tEVme1TTovyP51ISAukns36GJKDNi7N7eRWYaaTSZ6/EwWwMDGSrrVJ9l2wgRUKqC0sXGhaG5HuLcoMDhiZotXupMrQdECYFYtOF0Bk3QcIASw+BPmPbtaTxBfiEU8SI1Lgx5waFFShLWhOJQCZnFgIBBZRhWTToSdkqaHcvWSngUsox5pYpJWwpynNTUANWo7BtzwN9EtCwLckWaKj2ggJMJtk+kj5tQxFQq23Vz74aBpYmTjm15KIJA8O7STisiO3zkKeEMA2DwARyCQxx6H7ScghDT4o00L+pVLINBDBm+9g8vPtPmBWloGZLulLeASKXc2AzqEtDkUlh+kJyMpc6EkyZTJjS7kooljMqaVwGkivCcmVMsgpI+dJO0czj2/CltkP2AmymjGPETJNbJsOyQxHoChQ+nBPCZAODaQymnazNIsUBC+gexheBxV6LUxPkdwvD0qhcJgR5AR5rwiDPMg2DvReEe+jXmJjyOYRbsKhKiLQOEkyxVFalHgFrrc1+uBDA9UBE0I+JCcvKQIjwKMYQ5RahCDOMgcygZM0+Bi7utPZLtQTuhXcTORoRtTDBIItLswTwB0wiYAywV7MoTHMIwUohaSrnN7UfZoRsAHm3o8EiB4O86YGZMDDDoIFxw+ImYqCPU44QSFcEyA4zIo01UpvOAressxSapI2OW7BqC90CrDKMAmtShjExMQj1oCBJpQqqC8q8JesK8w8IYXKazpR/19KC6QPD3GdhWIOEdT7J7QyAA7cGAnQroZMWHdxsW3BpFgItQXIBiCcEI4aRVE3AZMMsJg+MDTCIAlc2+yRAQ9bFthIhInTCCLhyEAJOGGDVAK2OUjAHQRHldNr8s36yq7apGTNmwiAAEdEAfRUk2334QEmhD4KsA+fgyCFbiBK5Tg/TOuYYM2wSi4AkDU3MKQbtDmpsMJFiIg0Ek31M2PZ7KcgCZ8NUQeAfxWDUY/Cf3coNxjpBNK7BAJZlozD0TEIINLwFcrIF7YhgGR5aV1rPs3v2gFsPVBFUdZgcMCUCIWYRCivZSFCLYgKsCZ0WCkktTCkoIQyBxRBjQk0LCrmbGb9hiDEQngEBEJpNRjXKLLtnN9+hwG4hZyxproCBA6PfxqHhmVKSaxzguw2QJr/CoqqcOjiFWliyDyIYX2BLY4A1R4RCtTExpM/DzkmjyXN2vhcugg6euUKgcBZmCcTihOkE5lOYmbLZcaSEYUoxWucgx0BDWxSmGsKljAhaAegY0AocWTZrSHcQasFIggUi+Y596Mdt4dY2Q/ZcMBOa3GKysU1upEQ4Lmo0ETJYHPG0SVIwmGCw2AvAWYe+XDwH9y6QbZmW4iFDhA1enxDbNR6DYcYsU6QxmEaZdJ/JtgzJYb7mJgb3KEIIKFuIakka03idzsMGj5o8gqCDgpwo15OzdArpooSYMGEJW9YDWSZLJHhYZ2ENiheD+YiAVR+BzW1vtaPSuYlRjLiuiajGowYPa6JOE3FEDQoWU9AbpFlYrhqAjd+ChWCYaYjBEykRTos4fPcnOCJpUZ8S2zQRsSjCXEM8ZRGqc0PnIV2Ekqw+TeKIGQA8GCIF+GFmwwkIAVwI5doN2FhNbJk8pbF6nddrIoaEDsu9FOZQ6WKJMUcWNzWuaSKVErGUiKZFRGjYacsAACAASURBVBPhZqumQ31jGtwWSYpQCm6LGSJlco1SS8CEixG0OPgAgmehXCLNVljJ9A2GAZj/LJ2l0zye5PG4iMdENCpiUV6f4iFEzL0Yo6SxHBw+wGUB3EpShNIUx1Ee10Q8LuqiYkdShDBIVMii0BGzCg5Zyrqvl8HLhOMUS8VFOM4jMR5KQofXQXDbl2dxzjG1NBbTeFjn0C5JVo+YRsE3DcywljARtxgwoZXisZQIGzSq8yhiBgxgWJ0yOdhp5FJXllcjybMwLECPNy2uaQBdROORNItZPIWZBvyf8a2ABTjE0jFem4Lxm7RESBO1slekYzyp2ws81AArUUZoli4dzb1d8jNInVTWFJGUziIJXptgtUlWFxPb0yIKqiYGskQCmcBAOM1xWOwI821pkdJFIi1iSZFKQ8/cc0hGonxbQmw1xA7Mo2BqghkS7OrQFs3Jj1JFYYzplFuIp3UR0kXM5EkTxsWez9/blSSUzS5eMirqQmJbgqekLyHYw6XthDCKMdPTLJrm9WaWcbfbe+UIhffqMKIjmMepSBOeJixNhQErDnvp32BSA0dFDlY3gxCDUpNS06TJmKipF5u3i+9rxNdbxNrNYu0WsW6b+Ga72BASPyREvclTIOVTYjHQQrLaYZtr6NZ/rc2QPRNMh5ZDAnPEzfV47YuJJ5enZy7TZ6/SHn1LW7qRfZHiEUoILEOB8C9dvptrAQ4+MxRzhLm5kXyxRntstT7vRW3eCm3ma/riKAthZCJumFy6iVPQR7PMX1wwi4AJSwfFBFHCjc3ky1f1hSv02cv1Ocv1OS/pT3yNP0zzJLASgyX55koE1yjoGOBzJX1kWZTteD2xaFl67gpt7sr0/LfTy9MsxAmzVzHAsz7LkzgXiJqYGSZPf2N9tEZ7bIUxb6Uxb4Ux60VtwffoY5PHwUAgfWVhNcMWpIXGmSkw11nsM/2VF1KPL9MfWanPX61ljlXavJXaPPtn40X7ZJU2v+GYt1Kbu8uhz12pz12pzXtZe/wjYzVoS1SjPJ6gyc+sD15JLnhRe3RFeu6q5ONfmG8mOVSQYY5gPbT56knrrnTyBb2MxnjsC+ODF5P/WKnNWa7NXpNe8JX5EWEmJ9wSpsUNjqlJ9Qjf/onxxkv6M0v02YuNmUuNh1foc1bp81Y11K6hzFDBNfr8Nfr8Vfq8Ffq81cbjL5pPvYGWfMRf3iTWgjgIs48pcYMmA+/wvQhesJAi/URBMSdIGGkRjYitLyefW6Y9uUh/9Dn9kWXa3HeM52rZJpNozU7N0qkffA5sUwRYXK2Uia1tbPMb+qI12hPP67Oe1x9+Jf30D+RLJFKMExOYsnkAs3W/fb1OBKll2/+VXLEs/eQy7dEV+hOr9X/8G72R4NFsjrF7vsJeOK2nP7yZWroq+fia1BMr0o+8qi/cRr4jFDFQFTEY7Rl4fMfojjfTS1ek56/Q5q7S5r6RXLGVbtVhOQMcOUAyyD5OQaujGPRkZm4l372RWrpGe2yVNm91+tE3tCU19BvE05QQ4GO5aks5CpENLyYfW5me95L2+Iv6zJX6wyu1R17UnvgMv1bPwxh8w01YaJMOm9Jk1Dw1YOmXAn7qwthKv3kjvXh1+tEV2tzl+vxl2tzl6Znv6cvirB5kfALLakA2HG9lNS+n/7nUeHiZ/tgKfd5yfZ482XVwwViDHrs6Nf9F7dHXraffx8u+5u/XiA0xXmurB9LEs3tPAEsMw5SlNRbbQD5/KfWYnKweXWWP1oafMEBgIMxfrc+Xo9h+e2YesKcCmCW0R1fC5Pno89rsJelZX6BPdIYJYohiA2I0wG66A69/NbVwRXreSnvcwZPhaBh3UJGmx2r9kdXGI2uMR18wHn3XXPAZWr6Zf1orNidF1BApWFIBt8Dd62V3MPABhnlEWs5Ao4jHxPYa/u0n5NW/G3/9a/K6G+smXba96sLaogt2nHZxbeHl9cGrY6P/lLzwKf3e9+nqreKbpIhYHBkUZZ1k9+zKbeFKmyF7iF5iFGxuFomJuhXJx6/dNvzc+KCzon0n1fe/5IeKvyfu/p5/bjFdQLQaN2HltXn1F1xHwGHHMnn8TXPhFTsqzg4PPKduwDk7Bvxh69lb2XfEMChDBiwMQMfJyjzS4VSudelgSTaZxmOvGf+8dvPIaXXHnxXtNync7+Kawr/H797CNphgFZSxZ813CzA+SW918J1L89SX/J3rvx87IzTwrGjfGbGTb9o4dSP7nFFQUnWuUQsc25v9SNcmw+LpHXzrk5G7L6w5bXLk+LNiJ0yM9Z6+ddD9NVdvEetMooFnAoflfLB7M454mlGDEbKdfTu7/vqL64dMjg6YHOs3NdpwxPpPbTimyItTov2mNNyQOY/1m9rM0X96ZNDFNaV/3fLrGI8QK41JaCvbPKvuL5dvqzy3/uRzwidesr1oVv0NP/C1IIPpYGbP5qAn3XllWAPmBtO+5WtnhW65cGvh1PjxZ8X7n19X+ljtXQkW5kD4mkk1bnCEU1vY2r9tuO7SrRVTov3OTPSaEj92erTf1FjfxtpNi/fPHLHjp0ePnxrtPyXWd1K0D1wMnzCj/sSLI0XXh8Y8kLpmDX58Pf9UZ1GYTzKGFtRsQ8BFm+ntaEjp/hkX29cZ79ywadz5tUOmRQdMifWfUdf3po1DPyJr4jycrVGlJ7JkRljOtjiyDKx/id/648YJ54VOmxI9fnp40A2bxr2aeEoXdWCUBsWn+akwa1H38Q9YWN/QD27cPOac6IlTak+YERp0zo6Bf6u/YJv4EvwJMisJWUOXbRKSVnv8Df7g9s3nXVpbcWGo+JzQkGu2T3gPvWAinZoMIaqLNOIWpdZ39KPfbJk4NTxocrTvjHD/K78f+4q+IsQjdtwXLCRkJ3tQ/TEYj5Is+hZaduOWMy6oH3xueODFO4bcsmnaJ/glnSUg4JRSDDZepIv0u2jVpdvKp8QGzgifNCPWd3Ki39TIry6qPWV+7ZU/iK9BmtIsDsYzWKmWRrvmAUdysYUhFue1L1n/uGrbyOmRE6fHBk4JnzQ5Muj8yEm3b53+FfkQBBoIfYXIGMTML9m/b9408cK6k6aHB06L9ZkWO25atH/D4No5Eu0hOaP+xOl1J00JD5oaGXRBqPiPoemLjYfX0XdivA4WBne2RaaNwZpCwN0hzGtXpp64/IeSybG+E2PHT4YRAceUWJ8psb5TYn2nxvplTuL9God/05Mp8T7nhPufG+5zTmjAeeETL60pWZZ8Mk01ZjCEsA7qOLaY/o6+6sqtI6fEB5wR6j0FnilnlV3mil0qNSncZ1K4z+RI38mRvlOjJ5wXGXx5TfDPtecu0WeuY+9ExA4Eq6s7P01VAyp9FuQaANFE/Dv+7+Vo3h8j0y4MDTkz3XucduTwdNeKdH6FmVdpFVRa7SqM9sNTXcekD5+c6ndJtPTW+nNWWY99xz/VRFxG32Xtw/s4Yg787W2J7KWrFKzlxEXt4vTMKeFjh6L8IAoMI+1Gpw+bVnPqavJ0gtWBSEkJprr0dLOTRjTxhZZrPVJJwrqIv4CenBo7YbhZUIn8w7T2V+yo2ii+gOGW8U2VTk/ZVTf5dOkuDOWimoitQPPPDZ1UbbQrx75qMzA63fGcyKnPoyeiog7RNIb1IRmgB5Ym8DvOeOOCTw3Mz1IrgoJ9yl86Z8fAKqOghASGmp0uqiv6nn8ALoQQhoLkklXzvUcmCzB1FvuAvnxVdORYvUsVygui/DKcW611vChU/Ap9VhdpGfkKYgymhvTjA18Bwq1t4uu/RM8fme5agXKDOBDE/iZHQF4JBHFuhZkXJLmF2F2CvJVWfhDll2JfGfI0uXnnF6usdmPjR9wWOrue7+BYozxUy795qP6mM8LHVln5lWbeuMShf4meu1WsJdyQnlIyRK35+knHdEl8Jje/45/dnbx0TLJnOcoL4vzxqSPuj16ZFHXSyxYcr8ANiac2ss//UnvxuNjRJVagmLpKiasS+8sJHBU0r4LkV5D8cpIfpPlBmldCc0uov5R6y4inHHvLLV8lziu3AiNRp3HGYWfF+t8cnfwxWZNmYUQM0NdpFrHLVsnlejtwtGAmS9eJTXNTt50Z7zcMda3A3iDxFxn+8bEeT8Rv2s6/QsKAJSEgDwJOi7DUDP2iMZATXDjA4xojnv6Err60vqTa7FxOcqutdtNDAxenZyZELcg5WZdBmsd0P64iYXzOXpsaOr7Kal9ptRtm5o7Ucs8OHT9Hv3k722KBhkpgNdT2E5W9XTqa2OKP9IEBiQAjoX+GX7m2dvgYrXuV1b5a73xRqORdvBJxDUgKjGuQUQNz7XP2+nn1p1Qa7YPEP9TMn1p//Evo2biISC6D0bQ3RxboVbA+ponYa/jZi+qGjNQ6VqLc4XrnX9eWf4BXmDwtnwP+/kTQtIi/Tp89PXZ0MSoIonZVZl4pyS1H+aPSHS/fMfhb8S8LLAHgqiOHMwTdZBNPIZYOPDmNWr5+TvyGCfGjynB+GfaXmzCOhhodrwwNW0vfRMKAdArSFES4vo69d3F96SjjkKCZG7Q85cxfTv1B4g/SQDnNKyf5Zcg+cstwbpDkVaP8Siu3FPnLUfuRxiFnRY/7dc3QxdqszfxLnSelb6LtPWLnIwEzN6FWndj6T3TfGbGjKnBeGc4tR4FhRqDaCgyxXCXUH0S+ar19KQ4UUncp9QaJL4jlQXxwLo8q5Km23NXINdQqGKUdclZ9/0Xa7BSPEDCEQzge40gTyResp86M9qnE+aU4UMY6lJjtgma7IPZXYl8pdZURfwmGSjUeZThQhv3yZ6AM51ZZBSONgjFmt0nx3lfWDl1uztvG1iPwp4ZpF0wnEJ9ocz+8Uq5kGboIrWVv3ho95+zkiWPSXYehjlUkUIrcRZazmLhLmaeM+cqIt8TyFFvectK+0PRX6O3GJg6fFO33h8SMz+ibEVpvwsqUQS2MKZfufcK29+7HkDngX2lrZA8u7iQh6hZpM8+MHVFBPcXMWcJcFShveKLnNbVnfMs+t6iBpbsN2Hky0rYd6yx/2ZXs16AnJ8f7V2FfCXOUW3mX1Qc3iM+kVyqkmwC/O/AEyRpbJXU36GU2RWkisQzPnxEZWIFyS6mjArsqLf/odM/r607/hL6q8yhhEDIkU08gGRAgY8RgQkQgVsAcCCYMA8j+5an1x5XiwBDmrsIF50dOXs/fx8KQkwv45WbrOrAyyK0Yr31Wf2BqpP9wKz9IoWcXMVc5yZ0Y7z1P/0NU1BDpjwqzC1irwAcAHN0YDolNd4YuGpXuWWnllVFfKfPueVSz/EqSW8hcp3BHEfMFrbwKnA8Xmb+Meu0jSL1B5rOPCpo/Tjvy1si5tbwWmxYGq8OG+8M3jkwdVsJcpcQ9Mt31T7Gza0Ap1AUYrPcCODSq9ILmFre+51/cmb5wuNalhHpLmG+M1v1v8UuTYoftbWEHbhGubeSf31F//qhUj0LiKeaOEuKoJvnl2F2B3VXYV4UDlShQgXNtSaXcyq/AuWXUXcJdJcxThEGCqcL+CuQNWr5qs/34+FHXbRv/Hlod5TsgnUN2ZoVFkgZ3UUgTIdJf8/ev2DF6uN6zlPhLuKOQOU+h3mFm+2u3Vn1JXzdEWpI9LC1Dl7A9P+3AEekJCo6GwB3YEqmP2eoLooXlJL+Euyuwf1LsuIXpB+KiFv98ZP/qmdE+pSSvhAUqqKuSuManDj9/R+m77IW4CBFw1wJHLRlUKR0XQGjenewtkfqUvHRVqHIYal/CPOUo/8Jw0Xt4JRJpGU3CwcdKICxSn7FXz44MCqLcYu6owL5Jkd6voH8mRVQyLsz1exmnMqcVrINoIv4afvb80OBqK6+EucpR3iWhog/wclOkpawNvnREsLSI/4s9MzZ5+KnUV8jdQewdwt2F3FFlBaaEj31Fn51kIRl3CPODDF3L6pYo5TOMeOpr+s5v68eN1LoVMX8hdxcTZxFzlqOCy6NVa+kbCGIEZB4acJXT1/G3z4ueWo3bl1BXGXcWU28QB0qZs4S65Hj0l1BfCZU/ma+QuouQs5x4gyRQjD1B6qlCgRHpzufVn/Jk/E+b2X9MYsqkFEDxMq4MnEYJwXXih6fwvWOSPcuYp5h7ipm7BAfKSd5p1FlIXSXYXal3KCT+U7mzhLvKmNs+gtzTeFQifxD7yqgzSD3DUcczYsctNO5PiO1E2Jo3xEWnRHwVWjA+eXSQ+oqYs5C7immginQoJwFJ9s5ylB+0OsDogyrAUcF85dRTTj1B6i5irgocqCCBEuypogXDUx1nhH71SPqO9ewLUFrA3QEE4EykkozMo4wmSXgtfenmbVNOjx9dpnkrsCdIQHEqw4EqUlBt5g8384eZBdWgbORWWrnDcH45dVfy3CrcscxsNzJ16NV1Q98gS+r4DxDwghGmMmQoY8XJLt9nm5dbwfW2SvbP2WQPHOYczBxFxFWKPaenj5mXvnsz32TwtJS5GwG2yT6T7UzqhrA8p4n4rmSfe1l9WSPZ21L2jyZ7kPgayH5AJQqUEncZ8ZUQf4WZOzH+fw/Gr/6Br6PA1haTwTwyExi498g5Xabga0L2n+0ke1clzt8HsmfUoukN7PO745ecmfy/KiO/lDjLmOs04igj3tF61ytrK75h7yDIemZ7skuZhgoZc6z9IL6+o+7ScdFeo5I9RiW7y589dvmZ6DE82a0E+3/FHScTdxGYDdpXG11GJA8Zleg+OtFj55HsMVoeYxI9J4aOuaP27O18o4V1xM06vm1m6LdjEz1LmHO/yR7tJPvOJdRTwrxj9D3JnmNubORf/Cl0zqhU1xLiAqZHeeOTR0yKHzMlduy06HHTI/1mRPtPjx0/LdZ/arz/lMigKdEBk+P9zkr2mZDqMzx25LB0j6Fme5jUmK8C+csM/+jUUTeGJr1H1yRpWAZrNPa0pidMSDcMSFUGlI/SYscqc+60+oHVuEMxdgeZo5C4TkWeCjN3SqzfavJIjEellyKFCV+GQEsTFEzNcilApkfaleyDJL+YuyuI76yflew5Evrn7OWJ0d6lJK+YB0Dm5o4RuMsZiWNvrT/ne/4xowY4MjLMZWyhZHmZds5efwLBFjT7Xcne/d/JHucWcUc59p31v5B9eHC1lVvCnOU4G9lH/8WeHpc86jTqHsIdpdRzGncMETlB7J2QPOzhyEUx8QPEjsBqCQOP0qzGP05BvtctEXnBmnd2eNBQs1MJyx3CPYXMCRVBBZftQfaIm2v5W+dFB1fRfNAZmLvSaj8q1nNMvOvYRLexie7jEj3HJnqMjfccG+8xJt5jjH7UsHT3UWaPoVbXMpZXxFxBGijFeZV6+/NCJz+Tur+W/QCut2DvkskdZDaDnWSf6lkqyb6IuQtR/sjEkWPiR42NHDYhduSZ9cePjvUZnTxsTPKQMcnuex6jkkcOTx82Mt19TLLHWdFe59ectir1qM7CkJ8MPk3J/qgg9RYxRzFzVZgdzkj2nhyHcTclfuy06PGTI8dPifedkugjj+MmRY+ZHO89OXbMmZGjhsa7jjK7BE1/CfEWM1+h5ao0CqZEB/7T/OsOvgHW72V+AQKxl9JiwZDBkhvoJ7dvPXt8tFfQyCthjiBzlhvtRmiHnZHoe0Gk6KqaYb+tmXBz7cSb6iZcsaP6wtjgSeHDRmsFQeobQgJlPL/c8k1Id7526/BP6IspHrWoHdNrR0eD/td0nLeV818C2Z/KXYOpo5DnlCHfOZGiF+iiOK/HEIjVVP9t5HvQLWwzfsuRfQUCA1ExDRRydyFzlJu+86MnrbDmRcU2sAbJgCu5Xg6JOmRw1k9H9rA+Gf0XeeaScMnIVLdKq6AC+YchMJqVUtcwkjctfvQSdE8aHHfBWgzu7zJ2XMY4mQlW9yF64Xk8cwWeuRzP2u1YAVcefhbffaF2ahkOFLNACfMNxR2uMquewLcswX9bgR9egWftdizHs1ZYcz6yVuo8yRmzOKvhtQ+Gfj8m+XOQPeLWBv7F7eFpo9MdK5m3DHtG6d1uSI99kfz9dfLcm2TJ22Tp22TpW2TZm2Tpm2TpG2T5m2TZO3Bx+WtkyUI0+/b4BRfWnTYm0aOC5pYRbyFxF2P/xGTvB2PXbeLrsNCyRGYyIQygOpkmDXNth/jqz/FzJ2hHlhJXGXWP0AoqjfalrKCS5FanO90cmr6ZfYsJOB/ZlgkgEghhAkNOqyT7F4HsaV4R9w9hjlNFThn1Ven5k0J9/mn+Jcq2QBIEyE1n51GRFpn/otm3LrIfH+81hLpO4znFzDVEOIrgxD3c6Hxl7ZCN4gOZH0YGDgLZZ1X1uLAw0+r5hgdTV4xL9yzH+SXcVyichTynWbLnEOwLZH9u7OQqGihjOZXEN0o/9Lf66c/hu5fiB5bih5bhWcvQnGVo9jI0azma9Sx+aI72hz+HLrq2bvTkRL9Ks6AM+4I0UEY9w/QOl0UqXieL0iIGEY0MgiOhsE01+wayDxL/NKP/AvynVfjxNejRVWjOKusfy9CC5Xjucvxwc8esJXj+Ijx/KZ67Es95Ac1/yXxyM/kCnNkh/qgZsi8hrirUbmps0D/p3a+Sf3xAnn+PLHqPLH6bLHqDPC+PJW+Qxa/BwHz+dbLoBfT32cbvr6itnhw9ZrjZeYjpLSaecuQbZXW8qq76U/yKwWIUQxQPeGpJJ1bC9e3866eNu6bGBlZanUuIv4Q5h1n5Z0dOvDN26XIy5x26/Fv60Wb6n0103bf04y/YWx+ylavRvFtjUyfEjimx8ouYvwi7Koj7jMTRd9VfvIF8nmZpwi0wU0HEf/bGbt203+bJvhgEZNcQ6gQdkbmqEu2u33H6f9j7Fk9Bz4Zg60bKz/D9z0D2lThQRv2lPHeIcJ3CckqIZ2y6x02hcZ+SlzUeJxDbCRZOSDUpUzVTCOXfxYy/35o95biWfz8rCauD4Dpg5o7Rel6CTx2jH1JG3OXUNUYvuCE0dBP/EoMbs71MCNOAtDQQQpEmonFRI2MR6+Niz6OuRnx3a2zqcMNWI9zVRoe/GZd9Jz6KiJrm7q+Pi3BChE0eBY9H8IFCW/n2B8O/HZvq3lSz3y7+g7kms5M371kph9JOMz7i1nq+9s70hSPAjJ9Fs4cBijbxL28LTx6b7lCFPZUkMC51+N3Jy3eI9SkR1sG/N26IhCGSukjoIpESmibSFnjdRzVWH+ZbvuMfvk0W3pU89/T0kUGSW0S8pZZ3hNbpskjFu2S5LqJZJH3ILSfFSli+TInov/lLZ9cNrjY6lFJHJQpcnjp1crJfBWkfRN4gzp8aPfl1sjTFwzIRE5FedlQmPGme7D9hq8+PFh5Azf4z9tJZsd6lNLdYeIu4+2SeM4Q5g8Q52uh0SX3hO3SpQRMUQxyozCVpZ0HZuxl/P8g+th9m/AvCpzSr2ctlF8iPkRbR19hT42O9SqinkOeUcE8xdwdpoIR5ynBgcuzIF4x5mojLlN3gl7CLWrHrjM85sbj+KX3j6tiwYWb7MuotBat4ThHLKWKOIMq/LFq5lr1hgcgosylwbghzHX/73PjgCuwtpTnl2Dch1eth7TdbxdcxsT0qamOiLiZCcThgeEZETS1fv4l9to6+tpI8fF185KhUj0qcX0n8lTQwJn3ovYkrNvF1xE7wBXk1mif7CpT763jht+KtuIDI4YTYGhPhiIgn4HX1URGyj5gINR5ROK9PQcBeJAkl2abzOLg/Z1IA7a7Zl1JXtVVwcaj0M/FqXNQipmGWsnhSF3F79DX8jOkCjrSI/MC//Zy+ttC88+JI8dBUp0riqyLuSss/sb73c9p9Yb4R4qDANwQyLTCw10Y/oi9cXT98tNWzDOcNoa5KI++CulNX4Hkb2ZdhsVXjEUo1BmlRDMw1U6R0ngyL+s/Z+//Ad51Tf8oIrWcZLiim3kq93bTwgLfwwjivh/0mZNJMmCt3beK28lubJ/sS5oQVI+SqoJ4g81Yi3+R4r7mxP/xAv8aQ9woIbVe+l/vSgMGnJc34Vl4xrJTDgt+pzFnGciv1dpPixzyYuGoTW2fQFKTwIRaMa4phqVxmTW+6Zr+/ZM9Nkf6UvXJNfPhQo0MVya+2OsyIn/QQuerC2OBKM7+CeaqJZ3Ki98vknxYzwE0HskdB+m5YK5dqGEj/MkcHg8iiPQ8rLrbfEZk+UusSpHlFxDs03Wm2ft0O8R0CZxZrzwN8tWDhGYLjZd4Cs4Zveyh84+h0txLuaDTjbxf/QUD2Mk9x1gG0O9nf9d/IHgu8mf/ntvCkMVqHSuStoP4JyaMeit8YEdst2OlEJl6EEHY4iNxRBhY4IGl2mtA04aYpkkmx4wv26m2pKSO0rmXMV0Xyhprtz4j1eSxxe0rUZpf1M3F3hJMaseHJ5J3jE73KrdwgdY7WDpljXX2rMX2Efkg58pThvKGp7g+kr9vMvyBckxmGIGWe3FYEssjtqdl/wtYcOLIXSOifspcnxo4rY75S7i7m3sHMXcx8QZozDPuHxTvfnjj3O/6ZzlKwqgquDZbMaf4Tk31K7DPZv4qfuSACZF/MHLuZ8eWmFjbZR15lC8bH/q+Meou5M8i9lSR/mNE5iANFxDPG6PS32AU14lsTVijAjSZ7B4Bl+JiIPGfNmxIbVIXyg9RTSbyV2F1GHUD21m5kDyZiQ+hf8rfPi59Wjr2lLKeM+E5PHvNk8s8xsQNy1clsMMDcMhO2nTYUCVMTKQNSONS8TRdfFR0xUutejXMriW+E2eWqyIiP6CuG0AhkizLt9L17mvErUP4V0eE14ivMIKMXhYh5bEEqQxgjMp8ukSE8TX4yyCUM+bHAHQCbXMeQjdTOQNeMZl9K3MOtTheHKv4j3tdEArJyQ3otyDAik1tLsyuoIJkcdowTg+sGjdWyrxajv54dH1RlBiqJu8Lyj473vLVuyrf0PZOlpTwJ2fuwQHGxY5kxZ3K4fwUqKOG+IuyZGu+3Cj0StVxM9gAAIABJREFU4lsMDujZtlWZgFLuLSWt/wbVUzy6RXyzxJhzTui00nReEfVV0IKhWod7wxfuYN9hyAEKiaghVFmZ8bPOzz/FH6RWDklgbQe9xjV7WHhDrmFaYBjOL6PeShoYpuVfFCp5iTwV4dthCymZE3HnGkvGm7tlyb7CzC8kzlLsKZdepkGaX4ryqo1250ZPet6auZ2vtzDs7sDAHw1BXkDoPT+BZs85S4rQUjxrcqpvOQmU49wR+iG/iU94ky28X7tytNajnPiLmXOo1u2+9DVRXoMZpALFkK8b0oPY4QGSWGS0KohEux+M07iouSMyfXS6SxkNFBH/iHS3efpv6sUmGeeTyXvVNDcWgdz3kCcPCUuuHKDtvOaByA0j9C7FLU32sE6Ct/CvbgtPGaN1rkSBMuIdlzxyduz3UVFnyW0AZSIfkCHkAWF/MtOwTJcrMzRhTi1uxcSO18jT58YHl4EXvbcCtxuePOyO8AUhsTHrvoh2dAXYGI1vxPvXhcePsLqVWZ5Kyz8p0ud19tRSPHtKon+lFQAvZSv/kmjx+3SZzmN2znfwtYT8fdAurY3sLWF8zF6ZGOtTTt1B7izD3mJaEMTtK5GrCntLsW9CrPcT2l9q+DeUa+AFClZQe9FI6kU/0Zp9C5F9SoRfYU+OBzf1QCkDf7HxpPuZWu9qvV0J8VZYgUvDp30p3jJECnaSAn/RrPEjWJib+df3JK4bm+hVgfKqUN4EdOg4s1s59jRL9kJwS6S/4m+fFysKYn8JdxZRz4Tk0c/E/5qC4EygHOkWKL0FZBZYDlZzakqxlVsowrb8w7zrzGjvoAUlH2p2ODt66kq0IC0SCDL2aKChNmfGr0Dtr4yMrxcbGOwdALkREewhIexEXzLwoOGlDaQMurSMSpApyCFTOAzwTJLcZsi+jLhHmh0vqS/7RnwIOb6EmcmEZjs9SHUnMxfCZAQmc4MTzExE45v5x7+PTh6tda9AgSqcN1LrdnHdkDfJQo3HIFuIjDawhBXiG59I3nx68rBi4htMXMOtHn8IT9rM12GWbkjPaJcP1jBl5CT4J1NiMmYaPPk9+/yO2MWjzUNBW8O+Cuy9vLZoHXnLgAykMC4V2f8UfL7XZ+yF7IeSwHitxzCtYwlxlzFvmekbnz7yxrozv6EfmSItt4yErDjA95nOBLbrFtXsq6x2RQS8uMei7qOs7qU4r5B4S0lgpN7l+tDwD+lLKZayZKgrkD04x0HhZOky3vj7odnD2OK0jm+4L3H18HT3UuqpILlj0kc+qF23WXz2AnryjFjvcpI/hHvLUeer6kd+Qz8wWZpARiqwf8jtUyjkAAFwbIhkNELjKM+c0IjYflt02uh05zLqLaGeUVrXefpNteIHmbGr+a/Y25aYkHgOxPbtfPtD4d+M0lpeswdHTbSVf3VbaOqYdLdKnFdM3GOSh86J3hyHlHMyEgFYvqFvyKAIOZVJCGRcj9xZzzRZbBP7/A7tvCqznYwB8VXrXW+KnbWJr5Xz7055sqEjy92PZaScKSKvWgumRPuVW/5K4hlhdrw0XL6Wv/Elf/vS+pLhRn4JgUXWM5NHLLIeiPJanMl5C0KYHaO5V7J3/ewOepAi5mP2r4mxvuCHz3KqcG416TFU7znczAXfdewqM/MvCZf+m640aR3lkCxZ+szCXj2ANQD+EzjotSTZPzEhdkQlyg2SQBX2Tcb/d6kZHJ3qWk4CxZbrzNjRq63HdR6G9F2QkRJlCb3jlkj8fyev6+pPH5E+rNwKjDK6XoSGTE73q7DympI9kp4f9k4KSKS+BrIvLcN5JcJzGnONTx6xKH5fmkfB/iSFC5gsIP2C1IdhB2B7I0TIHWny5Lt0xSXx0lIrUMg8QZI7MdVnkTlTFzFIR8h0sFs1T/b510RHRsS3TBiSqLHcoEhGGzWye5MTmG4a4l6kJAcpr2TyapmrSxo8mnjjg4NeCXVWWP7zwkPWi39bEIUvkz3KjUUaRw30DJgl7FzXkP7ZIiYhVozveA49MDHZO4i8Jdg73OwyLd5vOZ6dFPVA9tKIbwhzG/vPQ7HLx6e6BZm/BPsnpHo9Yf0xLLZiau+QLuOdpRkP9kuFzIsCyRhdmezZSrL6VejxydEBFWZeGfEOQ4HzIgPfwstSsCMDpGeFaD9JJg0FbjP/txkzfmZBS2r2cVH3nDbzDBl6V0pdI4yCy5KFl2tlo1LdywlEi1WZ+RPjxzwWv2Ur+w9kaZE5L2BfiIZN5mXXhHD2NejvkxN9q7C/mDvKrdxL/wdvfMpIOhN6N6DSzA/SQLXZ7tdm0fXGsFGpnkXINwR7KnBgYvLoe5NXbWRfYdh6R4MtyyDpqsxqZQcbCaKLxKf8lan1fUpJYAjL6o0vNzwBbQmyboNBnsAUTF69LFJdZRSUI3c1yp8R+9WL+MmU2PY5fePXoWEVqNMQ5q6gHafEBz1vzEyJesRTDWZ8e195TMHhCDKFQKjAHgdnNCq23x6bAWZ85imhzpFa59n6b2rFJtjeVJoF5M+GfbHkFakhg5EcSEuQWv7DzNBvxqR77LZm/6PN+KDuYvC8W3tX+sJheuei7Gv2kDyAf3lH/dSxqR5l2F9E3eOSh86J/TYm6hGYNCBvWoNaDyf21nFyMoUJR+bolvm9uVErNj2kXzfS6FTGHCXMXW10ubp+xLfsQ3uD4z0GPYOwMXBV0kPim/vjF49JdwtiXzl2j013vz92zXr+Wa1Y/3Dy2gnxQ8uQv4R5h+rtb4lO/Z59DmlkwIuCwK7m0iMoO9nnFXNnBfE2eOPXQXqW7NGAexRyPy8gYX3K3p4U6VNFXBUspxrlT7ROuAmddXri8KDlLyWeUuobl+55V2jGFvaJzlIgCAKY4L5gD0O51o4tkf43eenKUMUw1K6Ee4INoXdWttC7Xb3xfzTZg2O4HXonzfiDq61Agxm/uCH0Dm6ApRzYTzD2KvvHuPgR5QTiwapI4GzjxIfINRMjR1eagVLsGJ7qdG/iihD/FrK7ECaTVRBpNASZHSYcub0CBV+N+qXmg9NDA4eanSqMvBmxAXei82fEB1dZIDKW22Z8+gZ4q4CgCYY0S6Rszb4S5cFSIAOPn2cT96R4CFadQEK1tWnb0Ri2PJbbacD2lZgSxLSv2dvXx0dWWu1OY+5i6pmY7rXIul8TEQi4BSsbzDbSjL/lKXzPmFT3UuYu5q5KK++6SHWt+MaAHJFCJiWEPGAyhN1+1x52Phk3IpOFgLUAHG5kwKtMaN+o2cdWo7+PTx5ZRr2FzFFCvOdGT90oPsFCxzIYX6a2lZsIgvBibxIojUDSFAS7XkCeKKzzxCv4uenJX5Vh/xDqrkKdzkz1XojvTwDZy9AiyixhbWLr7gydPU7rWErcJcg/TjvqUfTbsNgGGbDAa1BuQg7JG0xgAagQpGuDDVPlYDeZtpa/dXXNqHHRI6tSnU9PHnbJ1sJ/mUvjXKOQlc+UEs5+jpoD+7W2SvYLJdlXUk8ZdY1Mtb81NnEhufvyULBSb1cihdkqPf+CupNfRk8kaS1hGLKO2VvNAE1IwxTkyUqswX+fnOhTBY7l+0n2UiWH5UjKM2R/dmRApZlXSmHu/mPq9EXkniujQ6uMLkXEV078VUa7abETV5jzk7wWc0PGidq7aIO8DUoCx7pIfMZfnQxkn7t3smeyUpLswdQcFbULtL+dEetbZfqrsXuU2enG6IRv6HsWj9Twr2Zrvx+mH1bMXEGcPzx96M11Z23j63QWZ8KQhx05zKRcn3W7VcZZQmz/U+zcYfoh5cxXTJ3D9C4z9evrxHqp3zTXn+X0ZyeKl0IbqeMbZ4au3y+yB73QToCAmbVRkv1QvVMhdTcfegcmSyD7v9RNHZM6tIi6i6jnjPgR82K/i/0/7r4DvsrybL9ZJ+fkZLIRFPeoWquokOTskQEkYU/Ze1mr1modYN2ztW5btdY9W1FUROsA2SCyR9ghOXu989n/735OUNTgV237/9D83qbhIDnJOc/7XM993dd9XSIkc26yeT9wEJSA0J6BKTPEIYMX7m34HxB4Ib7/PuXyQUYnLwXiuk7veVV0wHb22ZfGAHJtffkKgI8OpUzhya38w6nhCwegcrc0KRobO/uf6MXDYk9SHF6OXp8WvbTeKKvEBR6jaHys7wf4RbAlYYD0xg8B++8a/f/yh/s3v0DC2Mg+GR09M4DzPDQniEompioX8cevSTYOUDsHcJEb59Vg29j46a+o94bYARPO3FAUyVhC0GXIfRcZIr0Wvzs/7Ksx/6tgLylhOWcvwf7ioGn9FthTGfQOTriKSH7Anm9InQTWKzTfh4tmaO4l/MlZkf5B1eojuQGjZHrEtYN/AgMmGBMGmUySd5bdIKguIEMBjG/5rnviMwane/pMW53S5brUkGfwLZPjlUGz2MlyfWbxnLjvi3awl3l7nBg8s5Uvm5SoDCCbC/ydrA1Kj+dTd2Z4OGvRIev7LIUGAWAynhua8ViYkAqBlS/YB1el6oNmaTW1uLBtdPLM180HMyLOoRMvG3bSVKdN7H8W3wFgz/McPNePbL+OBg+JnQrUVAKc/yG8WwYrgeVDh1dWUIIg3BsiP4G+kWly2QA9EOgpIr4YPT0k3QdG72heAJfMiDj3i7VgNC6RMztomi3ABLQYZGQyFAlAOALVCCw91kX6PfzKmPglAVLu5BYfKh2WPusV9KeMiIAYKJvkw/F+tuO+5OxG4B0LnaS4FvX4XWxYM99ocgMOQnBukOAOOC/pf/iRsbTfgs1X42ab2PfU4VvviMy6V/nVY+nfvhb94260WYeqDIIYZIzav3n3/N/8858C2A9SOt0embSJf/icdvvI5Dk+s8yLyzy0qCnd86boqE10WZLHNJFBkGsJgxNAwsggyP8e2AfMomqW69fst6bGrGFvvmTcNyb1Sy8p9WF7AJcOSHe5OjLoc/qRKtIQ9QZcMvTIvx/YSyKUANi3x5yZQtvFPl+YmNKQPtFn2gIkf0im56PatW2iGXM1I1qWkGdGJC9wEYuHFvv1TpNCF36KXlBFAoajZPpj+/4BulNyLDveY4D9ld8F9tnEQuAvQGbPBAnx5v8A2PN/AexhIzEO8i23hC8bqJ5QyfKg0Emc+kRsQUpEZf8E7vn2iTD5+2cDOhlM8kCOmMxZh1KNESgabkxeFjDKgI0kRfVqz2vjw5v5xmOBPaTwURblrYu0h4bEetcgu4fYfGbpNdGGXXxNWkRNkTjAv7i2dWhTurubFnmQbXCqz0PK1Qf5VijCOCYwWi+jUQGtvjZnf0Sg9+3K/v8P2Oufs6Uj4qd7icVF82pI2fSE4wux9D3050nRC2vVcj+1eElunV4+u9W9ji5O8Tbp/4jA/l3ArJQsY5Eh4mvx4uMQ7Jey5xtTvcFGhhb4kH224lnBX7stdVm9XuHBBT7TNjxy5jvoqTRLgBEvNK6/AnvJIYJ5nMG1NfSjK8I1A9Ryj2EbnDz5Ef2qN+jD02LO7DhAh2Bv8swWvnxissoHChuLm1iHpE56MXmvAj17MPeUXcj246mEWBP4COCAIFVRoZH3yN8mJ/sHUGk1GOGVT41e8il5XeMKiE/AR1ya6lDzG2DvQ9b5cd9hsUuHw62QjCF4lGfNkL7ZzTvyDsqAYJn/e+Q0IA/N7ZmZjMF0z9fA3iibEfI0i/WG0Exw7QR5u+RdstuP/Jz9Uv6KBPKxwCk9Kg49a9w5PHOOj5Q5SYHXsI2LXfCu+bQm4tkZYiZj0EK85Rn1thHJPv52k0Hb2Pi5f0d/amE7VZExIFMbQaYgdN8hAIwIjYoM5QgmkIE2oSpX9tNNe9nnrXx3VOzLiBAYJsIpAU6rcDb4vwHrf/dZf/xgT/IHZbrfHZ1zgG9uZutuTkxsUE52G8VuZg2Y9uHJUx/Rrm/mWzSRpFBbYDglggcpOJT998DeByRhbq1Weldi4j62bidbfVd6XlP6lAAqdSOb3ywYnuxzd/zyPXxHhipgCQC5Dj8U7CmY4DFGFRFbgp6fFOtfZ3T2kyIfKpia6fshfSEj4gx8t1Pb2LJr4sOg5Qzml0VDMyf8ITU3LPZLtAMXP+gISHYB5KbHmC/5sYE9o1w/wLctjEys03r25zlOWjAqduafY7emROwbYA/bGRD5UFu0076yuJDeyXqaty4xn52cqHLj4mqc7yf2hkzvO+JzQ+LglyGER1f2IL6ghFKyn2+7JTahXinzEaufFNdnej+dvjnG98sYAEMBr8M7x8TPBstSYq1Ry2dHXavoWzpPwbYudcZZRcVxBvZgqjM0eZqbgqVEwCiZmXC1iC8ifPsT6RuGRs70o2Iny3NS28BMrzsj03ayNRBhAqJuCAyUjL6gHBsitha/fRyC/QcA9id4aL6bWP1m8byUZ6v44BXj3qbUSWCujCwDlG53xeeGWCuc1oEghgE8SZBL3YeMzU2KyAvmw5clflFjFPmNkqnxyrfJE0vIczMirhpo3OR0APaMIJ7ewj8bn6xyU2s1z/di6/D4aS8m70vzCJVaWhgyksHVWbJEwAZiSrU8Qlxp5uvvSs9pVE7xYLuT2Ou0nrfEJ+5jXyBugpUyhxI8a5f7DbD3YuvslLtF7AAMhgMZBG7L4PsOgR5Q2hC6CZw/bEBZul+em9sPIrJ0/hrYV7EcNy6aHHFsFWsUGHDVZNs+y7tknyX7Ddq/DYWwUwiuVHhsE/v0mujAgF4B9h44P6AVzWvzriWLdZGWrzwcGSjjaaEuNV6dHLmoxijy4kInyRtgdpoV6ftcZuE6+slesSMiDsulaECmlMiYIoGhFDQh7ILD0D4hGPEkhvSyDGUGYQhzHQkVbNThlEogR/xH+PFTAPvG9Al3RObu59sUHl1B/jEt6gqonTyowM9sQVwyIdb3XfxMkh9mFIIy5e0hTWT+m2DvNUH1PUjtdFdi8gG2KS2iq+iSX4cHDlK7eqnVSXJrUMn4xEWvokdD4pBBNelr8xXY6yK9gb8/Ony2mx6bxs9KFgXckBRBFkAL3/ZA+urGzEleZPWZhXVapwXpsbv5OsxNaJdykuAHXjXuHZLuU03zqhncLdPCVV/Qj3QwWJXZ0wwiumUyNtCDWVHjN1b1fwLssaTxrzwGjQ+Gud940qP+eBSN/y9V9owKfT/fsSAyqVbvXslz3NQyPHb6o/GFSd5GwPQGAsOlcXp2v4YRYaA6pUODNBrSDEi8PbyavvmbRFOd2t1F7F6jpEYvHxs/7wXtjwkR/VKN/w2wR5C7rn5G3xof+0XAsLpwQdAsHR29aDV7T+OxbIY65pnV9K1pYUcNKnfIInKocurfzNuj/AC0YqVSDzTXx11lb3zOlg5NnOElhX5kDehl0+KONrGV0NRutu6a1jF16RMqSUF/WugnFaPD576g/6GVH8JMviQSmWRzhGkivYa8Mz/iP/5o/OcaUz28tMBNCoNGyeVx3z6xZjP/58RI/6Be5sEFXtM+M+LbyjcgrjJQq2TXDKwFQC2MCNP28y0LUmA+7TOt9WrXBakJG9knn5C/z4q4guYxwR63g32li1r781wfto5Infl06pa4OGSIjC4UQ2gSZXVTaBIvdVOkVZFMi/gutuEZ85aJqYsCZoUH2wJ6xfjIRf/IPJLhccKJAfnukmzviMb3Ydu8pL9FbDVE2gCpfBoJXRMqhWxPgwg9e0GS8pHLECriKpEO5YYc082u6mzj6xhgb5sScW4GNX6Gco0C4UqylsOSyc8W9SCegJwCyCPWMiK5k617PHP9uPS5LtBXFfhwYVO6xx1tk/fS9SbMF4BeQB6AhMHJNrbhlsi4wenOLlxQzS1uUjTIKBuXOPXqyKBHtGveQU9uIp+2sj0pEU1DdnDcgORSUCPCXBLQJpRyjTBVjgJAsICU6JpSiEA5pBgcO/vqqK3qePvyRw/2HpLflOx5R2j2PhDLaG2i+Un95jGp84NasYda/cQ6SOn229DgzfSfiCqQ64ZkcPt/t7KHABsvKhqkdb4zNXEP22hwPcQPvWE8ODF2vhcVOmAiOb/W6DwvUrOOfmAwRarhvgJ7Q6TX8/dHhc5yU/t39OyBoYA+KKEEazz+P2TpFfG6gFHmJvm1uGRk8ucvGPenRBukPULrmZs8vZEsmRWp8hJLFXiFFg1PnvqsfnuYt0JuMMGcYCLFDbI7YPyXwJ5yFOJ7Hoh8E+xbj5jqUHAdONbH9wZ7IvR9fMdNkYm1WlcHz3XSgqZU77sTcw/xHWkR1iAzO27wlMlT0l0nkYHw8oQpVLnLxA7xrZ+z9z7AT14bbxqgdnMTaIIGzYqmZO8bwqM30WWKSHdoqkMFV7me4Acez1w3INPFjfK92D5Q63FDdNxevg0JhfJsxIt+UGxdEJ/YqPVykUI3sQbNimuSQ7ey5QZNwzlOklHHG9hj6Nl/NDR+lh9bagxrjd55atq1T2zA0iDlQ+PVqQmH2yiWNLK9Xu08M+b9lL6X4FGKdQ5MlCSjmFCFtoq8ewTs892mPeuN/58W6GVrR/DG/5d79s8NSvfwsEInya/RS6+IBQ+JTa1i923xWQOTPfzU6iAFwxJnvIWeTfEwFhrMqgHeIGi7AD+GNB5fSd+ekqz26sVe3TYicdrftLtbxJ6V9O25MXdAB2e3Dit7AjT+ZxOT/dzUdgnL8VJbk9Lnrsz0DWTJVrJsG1mxjazaQVbvIGt2yC92knXr6UdL8WuvG4/fkpw2PH5WnVZeY9hqVfvoxDkPJK7YxzaAiFDq+ICGlk0U8m0aH9tmx90b2DvNdNVu+tlOtmoX3bidrd1L1++j6/bRtfJat5eu/fJqZhv20Y376RfNdNM+uj3BQoRDbKCcSgfY/haNn+szSmaE3WvF+3FxGImYISImGFtFTLjpkqZI63CgSUpHnWhGhA6wrSvx0kfUG8fHzq83uriotZrm+s3iCaFfLtYei/H9BIzt5GQA1DSgmI/z1o/RC7MPV9Ya3foTq4MWeanVjy0NasnQZLfx0Z/Pbw3+IXnFP/THPjbf+Jx+dIBtjvPDiogiroDCkSLEdIPpiOkEbKGy5L3k/eAch8R3bVDH2rj+7x//KYD94FSPu0NzDvCdhjAyIrGVr7wtNX2kcqYLRGpFA4ySEYk+f1Gub2E7MEYYg0vMf5nGvyCglXlQ8QC90x2p8XvZFwY3FJHewVbdn5g5JH2iwyy6lOa6aeGwzCkPxK5qoTvB3+YoGv97gD2cZiGiNiEOvmjePSZ5DqRRMUu90eWK+MD19EMkVMZMRkCtT7jewrbfF5s5UClz0HwHsjXp3X8dHbCdr0qLGByvQR1rAqMFbiHopwH2ctB554LwxAFqVw/Pq2YF9Uan69SmxfSJD+kLH9NXPqavLCOvLSOvf0pe+4S89k/y8jL6xgry1sf4jXfMvz5lLLgxMXxapG+D0l2m5Fm9pKhW7Tylrd8i5S8pFia042M+FSzNU7v5ivkRp9+wOWh+0KwYkTzz5cy9UUgK0SlEJABFmRKxN8njY2PnBsxiJ6Tt2UbFzn0H/TnJD4HqCt7i466yJwD2/xwaP8eHLQFUGJRgv1es00UScy3M9zyiXjs8dXoNLgtgux/Z6pTON8enb+SfajRKTLkmoU8rNKGvAjV+trI/jsB+KXt+QLqXiwG01Ollv47WHxTbkyLytvbUqOhZfmxzkNwGtcdt8bkHIK4wwxmmMGwCsz8EJu9xRBz8m3774NQpbmytNSpmh10ryOKkiK8mi2eHq2t02zHAnhKubuOfTU1c4sO2i2muhxUF9c7jwudd3hL4dcuAK1sarjrUdPWhwfJquvpQ41UtDTMjvjHJvsOSZ9cmugZQaQ0qqTGtozK9b01M+pwu1XlMSj+g3oZO9TF69i5a0JA+8fr00IWR0Qsjo26Ijb4xMvmG+GU3R8fKR0Z/+/OC6LiFkctuDk/6fWjqI4dv2EHWmDyDGUKS5/g22DtobtAsnpy46EV2+wf02c/I65/Sl5fTV5fTlz4lL39KXvmUvPYxef1j8upH9JUP0XOLjMceUK6a1VYzPHlOwCgO0GIfsTuRZYB6wq3xqTvZSl2kCPjkZl2ZZScFNjstwvctMh+ZFnXVZHp6zSIfLgjSAr+RG0B5PmTxGfa6TJeRyTNnRvpf1Vp7b3zGK8YfPsDPbaWfhuj+FIuaXNOYoYHqAmEolbIyJhD3HM3e/d8D+Pf5CX70YO8m+U3p7neG5h/ge3RBdWYoPLGSLprWUu3PlASJvZbY6kz7lOgl75hPx9lhBJTU12j8Uf95Nf4FPqMYpur1Cgn2G3Wua0JLirYv6Du/CQ2sV3pW4QIXtwTN4mnxfovNp9vEQclltavx/xWwl3JmGFSRJndgB31LfNJApZsX9LeWRv3k+9NXHua7Qb4rXZ0p07FQUzzyNnl8VPREH7a4mb0OV4xNnPue8WRI7CEEQ0YPQ1KjnpXldLCU/n0a/zsre5l6BwfnY4lgvmdlz7khzL1858Lw+EGZbi6SV8UgxGxYovfY5M/HJs+/LHHB+PiFE+N9J8X7ToxfNCFx4ejYL8bGLxiXuGB0/OcjEqc3pXrVK51rzNIAhay/GtM+QOs6NnL+o/HrdtJNiMLkVQcvE+gQWUJEluAnRoR7BIi1mllqjM5T2io38SUqdBlNSKbnDBNiMGMrW/mrUM1AtYuD5jlIQUO6558y8/bz9aZQJakIteJx1bMnQt/I3h+S+LmLFrppfsDoNDPpOSg2mkJFwtRocj374LroiCGp3n5sd1GbH9vGJM59Ht3RxrZTBtHAoO3mTBOZVV/R+P8/wf7bo3dfU+MvZc/XZ0508qJqljPAKL8iNmif2KELZTdfPS1cBUlXOLdOK5sRDWzmHxsiwymkTVKRYQz4MSrQPr51YWxCrdLZTSwD1O63pabsZhsVkV5FFs8KVQW1Y4E9o9zYwZfPiPetQfZ+vLAa2AXrAL08oNsDRnHQKAsaFUGjUy1cFbXKZVsRAAAgAElEQVRGuV8r8oIvE5heZI07fbhooFp+g9awjL3cyndDLQGzdITDTwgzuh327B0sx0WtQb18gFoxIFPm18uCSo+A3qVOK69Vv7rqtIo6vf2qNSrq9E71avfGVO95rb6VeJHBM4hifAywr2Y5LmKpV7qOTp81LnX+ZfFLR6XPuyx53oTEeZfFz7ss/otx8V+OjV84LnHh2NT5o5LnDEueVpfqHkClQVLihkS+Yp9e3KCc+Jto00r6VpKHMDcphBLDryYHhiHulmJscjPE975l/PnK8NBhiVMG6iV+o8CN85wst4rl9md5VbgAsqEh/q58oNZ1WPz08fELrozUP5S5fgl5qZltzPAY8J3Zeh4GApHsMsAQyTE8FTrcBo6jB39sYA/dFJoUoa9G70h+Q6bnneF5+/leMKXjglAUEXueN24fHT/dbxT5iMVLCgYoXW6IjthMP1FEBsNoNVjTayL9Fv7riPSZvn9j9E6K4gF0vxy9Gx//hQfZHLSgXut0R2pSM9ugU9XgJmJ6mh9abDx+WfRCLy4Gn1GaV5/udHnrgNXsfYPDtg7johzrIrOeLx0VOttN7JUsv8PUOznbCkUf5bohkmvJe3MS3oBR4qe2ACoZG79gEXpSERGwumTgE0WBl87oXFnHll4ecdTiUhex+nFpY/KEB5OX7xEbMUXMIJwZ0kEWhmY7/Pg3wB5UxAKMQLI9+6saMnLOHiJhuvw+eVmr2Ia5Af7g0jy4w2eXPoNSPQ+cpNHMN8KcvdqpmsnRO7XHfdmI2yyWwFgBaIj28W0LQ+MHZbpXmXmVPK+K5dQbxZAZCr51dq9Z6kNlflTiQxBu68MlflwapMUBaoUjEcp3kwIHyXdia8AoGZzqNTPieCq1YDdbl+RJmOehqN0opt2ap13mxwQO8X13hCcNSpUEicVBLPVat1sS0w7zLxDMKSGpjgDBAGY4LPY/pvxmROoUJy5w0oIapWxem2sdWSQLZdBeZaFRRtxC6WiKtPTGr/QSu5Pn+qhlZPKsl9Q/wDwhTAMf66h0jBf1+z9MhLaRvTs0fo6DQVsqaFbMSXgOi80UtF0McT3GW98zn5kVdQaNTg7Ypq0Dzc4z2qqXk39kWJxyJN2uYJ5qNVmcrewdPN+NvqTxM1lXVwYj0ebREbfVPNcLEbdnvI+fzYgkTLWDjjEbtNPxbyLdIWEQJ0vjT44dmbNH9hkRxwr8JqB1VnQufRcUkV7Knh+YPsnF4ExQb5b/Kta4V+zAwozxvXemptXrndzY4teLhkbPXkqekb4uIO1mIkNBtM0R6PDfnxX1Bc0KP7EPT53xvH5PRLToQl1JF8+MOP2ZwmNU9qA838k/mxHrW4OKqri1mhX2ozl+kuekOU6W42L5LmZx00IPtUKQNLXUspI6WuQnef1oziU8p5oXuFFRY6bP9akR75G/7OQbMjwD9B8ICTUwuQOw50fm7O+Uc/YweuekeT5ih6hZM9dv5DtonhMVO+CJckCoCIGz8mIWz5HLCU4bBU5a5DdLp0X6LSdv6tQgkBEErQKo7CHPPtGuxmf51exnDpLjNgoCCCQsXlzuZDY/tgeR3Ufg8tBSFy13oCInsVYTSzUYNBVWYvDHrSMVPrVoZOr0G2NjNtAPUwDGpgx0zhpOyrQROTpPMUT8EYZj/OAquuTuxPyZkcoR6ZNr9XKfWewiRQ5WWM3zq2iuk+Y7zVwHzfOhCicq8eGyWqXnsOg5C8PjPsGvhFizzlLSYdeEt7S9xJcGmx0vtOP60R8j2DMJ9g8OS5zkl0rgxvQJd4VntvCd2XseU0MXiTa247bwhFGZU7yopIrm+8AQ/uQ/p284yJs1oYGdMieqUBaRvzYpp7hYYTXLCxhfy7OHm1+KRYDzP+aH9LjlHNJi4Rum/o4fuyxxvhfZqmluQCu/NTVlL9sI8AnmuIQIs5lt+KNyeaN5IpzBUb7fLBqSPvW21My9fKvJNZMiRA2dq2v5B6MiZ3tQFuw7yLOXBrcyFY2rcXHgEfWmwZlTIdoOfPo63Rgdup2uMeS0IfT1BSYCI44Q11v4todTV9YbvZyg4yur0yumhqtXAteXYRTBFArk8ML0UIe/9A8De9mkaA9ww5yE+d6HI1c3pk6oZnluZq1Xy3+fGN0qdhJQwvNsLFCHzy5nFuS7IsF+t9hwhza1XqsA4TcraFC735+cnRKH5cA0mCtzmKBT9vHPb2qbWKf3rmQF/cXPqniOzyzIGr+4WZGb2d3M7mIWyFlguU5i8cAWn1/F8/pzqAA8yO7TypoyfaamLrm2ddgS8/lWvseUjlpyR5Od2najUGBEMAENPRKZTeyTSeELAoY9QHL9pGB0+ow38d9SPAShGtlcDQoFCeFmSOz+DL82K+72aaVeWhTAJaOSp72s3hnlB0ymZTcaOXAF1TCHb55ewxZNivXzEruL53qoZUTyrBe0++NgHiBdCo/x9nX8qn7vR7MRt+//j+mvi+U7eV6NWT474TokNnGIIwFzPCKMVr7ryfSCsclzPUZRJc7xM4tfrbg+OqGZfaHThIwAME2uHzHVKXPwPA+2T4tBnr0pMvIlYhLsDQyJuh9MjPWFO4vnebF1dPyM98hTikjJlwVOdVlrvg5/FTgZw5kA6yK1BL8wKXZpANureY4P22dEnMvwm7pIH3GwhBZtWmTeZy8MSZ3sYQUemhcwy+Yl6g+JZiYQHBe0Z4bETnORUgcuGKD2uDc6u4Vvke+pyYUBUj1KFB56Trt9RPocJ7IHzYr58eBq+j7sPEJdRt+aEXHXG2UOmuM17LNj3i9Y1lRHztmDmZK2k6+YHuvnoxY3t3h4cRUpCGhWv17oN4oCZnHAKA0a5UG9PKiXBfXSer1bnVHuN21OmMsv8pIiLyl24qKg0nlS7KKH0r/dwT7XOKQ8UGrCCBmsvSzYyzz79tQ7EBK5sM2H7PAsmt2F7R6zixuX+InVh+Dx7OXH9q8uVBowS/1G53ql+9yIZwV5S6MK1FIQSpLV5GMJ9n8dkjnJA4nkMv6HWryQy2fxYZuT53nBgMRSjfIdOLeaWfrDzWhzszwnz3cw6Li7zdKhZp8xybPnxdwv6LcfYJuToKrLhkMaUmArA/3AoBMseOTEK2w5jKqqCLfxvWvJkufwLdfFh05rqxyd/Hl9uodHK3YZVj8p8Zl2J4ioivpzK9B+xO4xrAO1zuNCfR8M3biNrkryNkw0cNojBBSFMHnR4So73h/8UYN9nw7AnnED6YirSXF4BXltbqu/zujhZjYXy60zS2fEqpeYz8ExXBiMY40rb5O/Nqp9nLzQQQqDetnssOcH5tl/E+ytMGevl99yBOyzk6Ccc00k1tJF80O+Gr2TDxV5DFtALRsXveAf6KE4P0iJgYkmwf69kbHTvaa9Cir7DsEehpXlMKy6i636bXjkAPUEBwbDrIFKj4e037SIPTpoZaHnJNWzmsywV5P80Cfs+dHq+W5sqSQWJ7GPjJ79rHJ3QhzGNMMg2EOayArcIZf+nwL7RyK/AbCnBRLsK44Ce7An6vCp4WY6UjEAAS7QbvH5Hdq0AVonF4C9pSOwZ1ho+/jnC9rGD9B6QiHC87yscGC6c4PWrUHr2aj3btRPHGz2adB6DlS61CsVLrPEaVqrcP6lLK8vyfGwgia1+4xE9SPGNR+Tl3bxNTHeqvEUAidmaHvINl6W5QOhkLSLYUTocd72tHrn0HgvH7V5WU7QtM5JOleLzxSRhjwSqFZ1KNlBP2kkxKHt/NOrYwMH6l3dyOoyrY1qj+sjQ7fQZRpXTLDyyHqKAdiLdrB/+/gA+zwJ9mVHwB4Mlw0YVdJ0Ed/OP/ttaHg96uZmhQ5UECAlY+LnvqY/AIcYqiGsI6aux0ukg973BPvE6d8T7GHJ6CL1fhbsUbGD5fihsv822NOjwD7/S7BvkWBvcGWnWDklfqkHl3iQtc7oMrvFtY19ZgpF3jgmEBtCO8g33Ry9rMno7cb2Or3HbcrU3XyjLnRDZFaQxTMj7hoTfoAOwR4B2H82LdrfR6xVNN/Ni2tI+ejIabMiVbMjrjkR79yIf144IC//vLBvTtgzM+KYFq2cEOs7InVmjdbVRezVrMBjFg3Qu12WOO8PsTm72EqNpzDXeTZ2uUOwpwVerWKidsmk2MVTE/3Gp/pPTHgmpKumpC6dlug/LVHZfsUrpx25psarpkcd0yOeWW2BBQcmrccf6dCzJybEOnQM9g6S5zNLBhm9a5VuTUavBtx1iHHCELgNewVRmR+XeEmFl9h8JM9H8pw8t0Yrnp688Jbw6LfMh3exNQpPImRimJrLgr005gHVIZZ7F7gAEXAhxHIgUGVcJ5SpRG8VB3aL9avo22+gh29PTJvZ6pyQ/OXo9BnD1BMDEApc4qVFTpRfzS1VItfBCvy4fGj0vAUHJm6nK3SWJJDnBOJu2YH6UaL9TwHsG46q7LN7L2K6IhIRsedF7b6R8XN9RpED5zpIfr3W9Yb4iB1sGYGCQNd48m381ND0aZATSqwBo/S/DvawKFFC7F+EHhwXPq/e6BrEnbzIVquUzQ27v2DvmTTJiWlwbTV/b2QMEtKOBfYw0yszo1WWWIqek8xkJwctcKD8IelTniQ3b2XLD7DP97Ot+9nug2zbIbZjP911CL7YvJy+NCNeVWPY3aygGrziu10damzmG3SW4BBCJRWn/1GB3rcrewD7ZC8HLXSzonoVwP6w2IWhspe5d8c6JbeDPewjWKBdYuMd2vR6rROgeMdgz7Ew9vKNC9pGD9K6eFi+h1nq9Irpqf53oRn3mvPvM6+4D115P7rqj+Squ7Q514XGjE9VNagn1qISl2lxU2tAt09P/PJVevtOviIlwpjpjGLKoCsJzSBJHgC/B7n1OoA9dPQoEqldfMM1ycZBSokf2yCSXO3+e3XSOrbqAGs+zPbA28G27GdbWtjOVrZrH9uwkb17OxrXqPT0sRIHtQbN4nGxs940/pQUIQgQOgrsOWdIKGvYcQr2kH7GdCJ7nBpPfIBeGhe50GeUemipjxXVZuxzWj2f4beSPIq4prP4OvzOscGeQ8gvZDVpG9kHk2RlLwkA6+gjYC8tZjHIzkDO0fG6AYdeUD1QQ6SzYB9ExU6a60clM8KuZXjR1yt7ckywh6w5s00036pMCBoVfmQLGiUjIqctoX9TeUR2W4DsTYvQMvrGjHh/n1bkMqxDlbNfMO+LicOImwa0Ld6ZFXEFkBQNdFTZm0LbwVZMj1T6sL0/UF+2RrXXfeqMHeLjfWLNfrH+gNh4SGxuab82tYhNO/n61fT9pfi5Z4w7rog3NaZOCpAyB5zm8z2ocEzi9D8nrgvxXSZTKAz6dlzZ+5B9atjxsXhpA1+yjr+7Sry7hn+0QixZz5d8zpd+eW3kS49cH2xin2xly7aw5RvZJ9vZ2jhvgz4OHEalSFHepkdX9g72MzfNa8icdCOdcAee/Qc0734y849o7h/MX91vzr0uM2JqrGpw8pSgWeon+UGc72EFg1O979emr+Wvt4ltiGeISTCm4GDBshmVhIDmn3KwATY4AD3chUSOX4DNDsWMQK6eSbUMzNAmJDQcbOYb/kle/Ru++/b0rPmtvjGhC4alTxlo9HDhImgncauDW6pR0fD0aXdH5uxlG3WeIUynYN77Y7XV+SmA/REafztImaQ5s3zn9RQN72RrFoTHDcmc4KfF1czqwUVD4n3+kr4+yndQkcyI8CL0xKj4OQGzvIpZvKh41n+0sg/oFV/S+NnKHpzXOTJEZgdf+Sd13rDkqbVmhcPI99L8xkzPPyTmHOCbKDU0rq7mS0dFfv4dND64ThAYsg+JA3dGZjUke7iJDfy2qK3RPHl2IrAwNO6u0MTb26bd3jr3jtZ5t7XOu7Ftyq2xyXe0TloYGTk+/QuXWlRF8xwsN4BsY6Jnv208lRKtcNsAXEHEZId753+qsn84fDWAPSl00aI6tdPC5OgWseMI2B9jz/6qsv8K7G/Tp9dpnR0S7AepPe5PzkmJNvDnhRcINjUs0B6+cUFoZKNa4SN5XmJtTPX8fWrifrEpJPaFRUtEtIbE4bA4HBEtrWLvp2TRPZk54+PnN6LuLl5YRXPr1S6TW6ueVe7bwzenaBQTDQwbpGQOKESp95QZnQj6x9KYQxHhT9kbI+JneHWLk1jczOrTOk+OXfr71sn3tMy6t+XyO1rn3BKafkvb9FsOTr/78Pw7W2b+/vBlM1OVDXpPF7X3Y3luYmlUO9+dmriXr0cCdPtMSINPoPG/BHvo2X9J47+o/p/Q+F+r7BnYxGIwgYbzHXRtQ3zPI6nrR6TP8uNOXmYN4IKmVM/bEtM385VpETFEbB307H21SFb26CgaHzq/nAlQnGChf87+OSl2sRfZHRwipkZ9CfZwDAK7+GPZQIFpIzTawA9eF8kl+PlJsUsk2OcHzNIZYffXwR5QJC1SR2j8r1f20nhK4bE3zAeGpE7yY4sPWRszPW+PzQqBZsiE+VVGI+LgU/iWEfopXtPi18tnJWs+o2/rLEMINkVmDXkHevZZv96OwF4X2g6+Ynq4yodLLoG+smV06uxnkrdlRCsSKQxJtTqB/O7spTOmYOBRwB9GYaFmvvYp44bx0fP8pr2KFjhMS0ApnRGqWk5e1miMYvneACeNQ+JrND5E3IZqWsV2g6c0HtNFyuCQnIu5hmASXc1eMJXafik6SKDSFOxxFIWlTMiJN8FdQtpzySZXtmffTuO7aM4AXD4l5PxMvLtP7EyJw0lxICFaoqI1IVpbRPNm8fHz+M7pbZ6Bai8IzuEFPsM+InbWgtjEVeztJG9hzCAQRQ99egpBmgxecbCfMiEuPNu+z6bbQDEEbTW4QEiBSNb9Vz5AwN1ciYlIiziwX2z50HzlcfV3V4fqxkXOqNfKvLS4P7FXU5uXFI2Kn/MGGKIcRAD24Kv7XT4gHZ82j4tHfwpg35TpdWd45gFwGM2mxwF/hARSeTLODn1GX7485h1onFBN7Q5qrTM6TW2rfN98MsX3pUTLIvT46MQ5PpkY4THs/ymw95iFDpYbNDodAXtIawYcAFMqhDiK8MOryJvzWn01armT5lXTHJ9hHx+78O/GY3F+KMkSa/iHo8O/cJOSSt5O4zfzlRi66TzbcoPMCWoqPLmefTQr5vUbxSDklu6eAWSr18sa1PJGpbxB6dyQ6d6Q7jkw07tG71mjw9dNqW5BtcSBLS5uqeY/c/HcRrX7bYkZB8QWaa8twD6LdqzQ+/fBnnAa4fseDF3ZmOzlAosha73e6abk8ANiGxYIWOrvuDXa1bGAIkig7XzDrdrUGq1CCvQKBynd70vMBrCXPomg8IKhGbyXb/p9ZHSjUu5FkEU0LHnKn5JXJ8UhwhVpNo7BkgxqEUQhFix+kK97Tr1lSuySAWYnD813EavP6Dwu3veJ9IJm/oVK0xiSlqF2AMcNeDJMIFcD3hKYjCfmAb7todRVDZleblrg4HCi8lBbrVE2JNVzeKLHkNQJg9Jda9VOdWqnhkz3wakThqROaEp3r9e7BIyKKlJwCf9ZNcmtVe1zw5XL0KuKSMA8JCxvaZ7bDvbvTIp9A+z/kIR0H8DIY0kuvuOl/T5/dXTPHn67oFEqafwv5AoH2TKo5qCuoohp29ln10aHDzB7Olmhk+X5kW1s+rznjLtb+a52sI9mvfHz3ajoyJx9Rno5clBBg20cgP3k2KU+XOzkhS5kGRE/9T36VEakZIwTgP13yBJlvIHgDGsi8R5+dmK8bxDZ3Tw/iMpmhN2fyspevmIMGu4cfw3sWZ7fKJ2fHNACWcZgdomFsUusnhGtCpgWH7YM0rtPi3o2smXgk4/gzmnmW6+KDwvqxQFU3JA+8b70lc18i0k00IxxZRV9e2bUGTCKjiHQowaM3q2YEa32Y0iycdKC0bGzX48/nBZRDCQHzBOBAF1GtzGY90NYIASLj3MDUaIe4Buf1n43Onl6EJXWoooAKh+WOfnh9Pwo24UxnEd4h2CPi+alfG0gnUFSJgJKTzj7ywwxqZSRJ02ZSSf/yAxhInDQg2xGuOBdB3kS1NpyfkTO2ScWo3awd8BGVzo9HNwiPteFyUFMqnOuEWEYnGRghDgWEftXk6VXR0fV6r2qkb0aF7pIcZ164tXxEavou2kekRPwBIp7oBC4FDUjDuPxBDFmwnFTB887rkP4DaQBEMZMygwoAeDHBBn3kfQvEIqqQkuJaEK07BWr/6HfP6vNWav0COAubmz3UGtdpvvvomM2sJUqhblKqWf6PvfKcfPf/jTA/sQ7wrMA7GFfkOUo3PqghjNZJin2vqTdOS5+kQuXV9HCWrNicOqk38WHfcHei/Ldb+PHhqdPg3A5nu/X/mM0/rHAHlYbNJSYQpRWvvtN9OCY1M8dRr6T5XmpLah2vzxWv4a/GRUH1/L3x8TOq9St/Y8B9pA6wY2wOPgCum946kw3hkkeDynwYWsAWXw43ymB3w0JMbnQ0qYF1bygiludxOYh+QGS76b5Lp7fj/2skufUmqWTD1+6jP49JWKwnmE2p+NF+u+DPeYkwvc9Gr0mC/YuZqvVy29Kj9gvNhvCgJvxO+Ae/hq4cilSM7bzdQuVibVGRTX07Asb1B4PZOanREiCvaRu4WRE9vAtN0fGNmY6eyDP3josccqjietT4jCWfXe5dWZt8CkRGDMNsdQhseUv2oJR8V+4MiUOZK2mFp9WNinc/8XU/SHejKmRPbtRCrowRqEHD2gBBzrN4Jl17IN5YX+N3q2a5jl5jpfl+UiOl4CyzI8LPCTfwXIreU4lz3HRfC+xeAjMTflpScAoc5GCfvxnlSQ/qNvHxs/4s7LgEG82wMEbNPnZIARJ478zJXocgj0RMseEgPE4AbtgZmbE4XeNpydEL/LpoJatZjlBvXR2m3c5fjMOO/ui+ZH/FexhrH9KvJ/ftFfTfA8uGB47ZbH5RIYn/xWwB4IAXjgjIyKLydPjYhf4gEXPDaDSWRHvcvK2zjNyxWfBHqVF8qvK/iiwp9yAEVZOUiJ0f2ruQLXCYxbUaRWDE2e+SZ9OilaqKSpLL6PvTkj192NbnVE+IXzBW/rTMRHFwG0D2K+gb82MOAOG/RhgT6Q3/sr/ESoGUTGcYqllZOyMV+IPZXgMzqPQM5LKEDjRwSKXx01G5foAhpsihce30WXXRYc2KF3rzOIaVDRArfhNrGYr/RAxhUKHpQOBnhfbZqedh8Q2HQzkQWzIYHAXS2IcvB6+fUnRiXTrkcpR2TiHAlqm80nXe/DG/wrsXTSnFpXMiLi3yTx7wnWQrHCYBqTS3x9xnRHNpIll5B/Tw+4BcAdZnMTqJcW1qe7XJ8esZUsUFmUmWPrC1AOQkBiaj5higuI83soPtfIDB3jzHr6tlTYjrDBEEdXALlO6T8vjEQiWZQgnhrBQmA3REdNMpqRY6GPyj7nh2kFKFyfN9/OigWr3qaHKT/A7KuiZIGDwu0ikjnfN4+LRnwbY97kjPGs/3wobLrjKgXUxA/U7YxQRpuzha2+NTatPnOgwbR5U5DNKhiXPeDhz9Q6x/G386FDlZBctdDCLXy/5T/XsjwX2gFNEcJ0TQjShNvON9ybnDM2c6Cc2JwUp7CCl193xiXvFZ6vFG6MSpztM25ejd9+o7AnlOtf28M9/Fx9dq/VwwdSKxY+tQbNkoFo2UC2v1brWq13rtYoao7xe6zxA7TJA61ynda6XY7JNStd6rYvHLO4HeJ/jJ7Yx8dOeTN/UKnZRrsPO8V8Eexzh+55M39CYPMFJC128sFYrvTbesFdsNIQmyd9j2+W2U3PgcWEKbTNd+dvYiKBZVs3znMzaqJ3wsH5l+utgTzmSYD+uMdPNTYqriWUIpN7dlBat8JseyS85ktPNFaoSbuo0tpl+ujAyfXDqdJ8JQWc+bKtP95jXFlii/TXGDyCuQwkDLxR0jzAkEkEzD3M9yVveNB8ZnjirmpRAZcbyvFphvVZWr3aSM8rl9XpFjdEpYHSu0bvA+6J2qdU7+81ODUafAemeQaPEyfIrucVLixqUblfFmtbRj1WekXsTJHhI4kpdw96ZfDyCPZbdBilVhCoPE2boIhYSzX/O3DgiepbLtEoBtrUx1eeu1JwNfOkn5OX5EW+NWeLkeceu7I1N7KPpiUq/WVxNoMcxIn7Ka8qDGZGUGIeA7T/2wCH0dGB8Q0uI1lf1h8bEz/MgixTolcyO+leQdzWehloUdg+QYnwn2GsmxZrIvKM9NSzW24sKveDQ0vPW+OzDfCvGiSg//Ki2sFE5zUeL69WKqw4H15MPFaFRmFMgmGdWkLdmhj0B4xipdwwjnt7EV02JVwaxVYpRCoYkTn42eY/CYxx8r6RUB06W7RcsDJgIl2wT/EHXRTTG9z6Wua5R6eWH86U1oJVMifZfRl5DIi2r9g7A3o+KrogGWiD1DlHwzzYFMBkgh/jyub7xBQc1HMfALkitDwjgOWYQCd1hZe+iuXVmyYxo9S6xwhBJJswvV4sUVcg/cXDFaWX738BPTIz0hYFYs7gGl7t0e0Pq9D8krz5ANxGkyJSorNO1TIxCVGepvfTzRbHHHwvdeG/oylvaZjx26PqDbBNiCI5IMCECnv9gFwweD18GGUAAhoDoQAPO/RxF+eHX8SPjMj+vwnkellePykdEz3rXfAH8faFVAMhyXKD39/whfoxgD3P2L6sPDov38cHoXUFT5qQ7Q1DZY4hug5HabH8Ous+YYWymefQT8sr8RLBe7+FklkqS5zPKJ0cr30QPv4bvGaac4iFWJwVbpdk/NM9eEljto3fjE+d3CPaUEQyzrrA7wU0imC70jfTD+a3e+kypE+c5UZ4XFUyOnPee/sBy/szQWC83LgSBHimeHOu7C2h8Q9L40FAnEHuvrsSLoLxDFW5S7MO2gVqnqXq/6/Smm5QRN2XG3Zwae1Nm5A3qmAXpie6ImvQAACAASURBVDcnJ92cnLAwPWJBpul6ZeiNyRHX6oPHZs5xGtZ+JNfN8kao3a5uHbRTrEYiJUfgOl5KP7Cyh5iM7LwZQxxH+IHnlFubEj3duMBNLbVG8dxWz26+To7/AQUMJzbJ5sMMoByKav9pAOzbTewNkVlPPpp3uM6vF1fDlLB1iNrnz8Z14BAMWxQM8cHUPkd7+baF0csGKd2ctKSSWJqSvR9P3JgWLYwr2fmu9hpJkpQYUUKgSkjz9Er6/pWR+oFaWS2xenGhC1kHp0/+bevo9XSJIcKcSLdsCM9iMkCZcsoNsCnccmfbpNpMt2qe56KFQbV0qnnxdfqQGzNjb1BH/04bdZM65gZ17A3K+BvTExamJixMjb9BGXetNuY36sirUcNU9Ms6VF5JC6rAdK9oTOK8N8wnUu1VHeytDBx5AOwnxfp7SZGL5/lI4cjkWS+q92dpfMnid9AMgTiFrMIxu9XBSyy3rQ7+247f/S8fRcCrvz8qdpaL5TlYXtAsnZ1wHhKbGOzywBPDgVswQg3GDDB4oOldbPU1bUPrtC4uGLuyekz7qPh5jxnX/4M8NCfqqjG+Avvl+E1TtNP4smlFiNA380/mJjy1qBxMBqllZPq0Z1J3pkVcgn1WwNj+axxZM+0LSIY6yXlFrsTEgaeSt41Mnu3BhS6eF0Bl82I1a+hSDeZOsyqMdrBfKkfv3KDo/BqNTyGNEOlc3ynWzIr3CxrFbmIL6p1mhvw72DIsYs3i8/mtg4JGdz8tHZTu8qgyby/fpIOyj3LI2s5IUx2fD450HdrlYsJTm/iqyYl+QZgCtTh5YWOy91OpWzI83B7lILMuJO4CLy2g5wa5rZxyZDKVqSkRTYro8+jeJu1UNyl2U5sPlU2MV30EYJ+B16cjGj9gFv86XHNAbEsJFbrfII3UZLc762QAA6XfuMAWRD4t46ZshUExQ4FgRzIiIBtxm63s+8jRuxwXtk2O99slVhH45qC1AITn7Uy7PMpgSjXKjDax88nEb4ene/vNwlrTXoOLgsQ+Nnb+6+gRmbMAkywyvY5Sg1CTZHh4HVp0w76m0bEzmlKnNaROm9saXEXe0kQKGl9MB2Yie6tLQ2MBvABclBmYqhi8nuDvCTJ38fWzIx4PsTtoToBZBqVP+Lv5qCpicPPJ9N8vb4Qf0Rc/GrCX2xLcsZTjlGh7WX1ouAR7F80blOl+X2hmG98treJguhpaUlIXLRuHoO6Jij0vKfeOjfzSi4r7kfxKbKmDmin4JzK9ST3RRfI8tKD+h1b2cL6Ak3A2z/6xCfHzfUahk+bW6J1uax+9gxRkYDXlyRyoYoJMbiCmx3l4EfnzZdGz6kmJ08z3Q6xI+bx05Qv81pHpU7ygX/uZm1gnJy/czlciYQB/RzgTisKjCXHo8eR1wzKne2iJE1zMSua2BVaQRYfEtsNiZ6vY1dZ+7Q6J5pDY2yaaW8XmsNjYKnYcFru281UPp64erPR0Ukul+FktyhueOPUl9GgcKMds0FoHK/mHgT2cwSgFKCRMYygmop/QF0dGTvSjAh8q9KPCUW0XfMbfVnkcdgssY6UkPYllPxLak3CXgiEPOH5CfUuQSCzBf50Qv9inZ93QbBMSFyxCjyVFGIrtrLsgJVQYh/j2m6Kj67RyB8vzsaKh6RMfiV+TEi0EfAjgaeTvmS2UOHBCwF1CqZgW4XfQE1OSF9Ua5S5SUMVyPKZtaOLsP6av2cc3m1yjBEH5CnOAABYCNFqZjWzJ5Mgv/Hqxj+U4cX5T6tRnMnccFJvCYk9YNLeJXSGxT177Q+Krq03saxM7D4iNH+G/Tov29WA7+JkQW53eZWF6UjP/HHNF8lVAk+tCW8s+nJC82MkKvMRaa5SOjp/9knqvImLS0wZ+pW9fTHBTwCgm1DZEyDkiFUDo+3uCSbBfOip2hpyzL6gBsHccEpvBxezIMU2+qtJ0SuKSIqJLyHOXxS/24xIPtrhIrs+0j8/84vdo3KR03xpU4mQ5XrNoarR6Gf67KdKwYKQ9i3R41Xay1Qvaxg3MdPEQmxvnD1R6LUxPDYvdkHYB3QLQmcAhGsYawQVSci0w9C9gSEsquJjWIrbdFp9Zm+npRkVeaq81Oi9Mjmtmm0xO4JtQgoC4Rtk8+yGpk10s3w2QXHp5csBhsQck37DZY0NoEbH3j4nfDkn1ki0zy5DEqe/QPyfF3k/IC+OTfR2o2K91HRM+/z3jr6qIEvC2ghOWKdRV5J05IQ+ET7JcLyqeLfPsEVdhikNWqgQq+5WTkn2DpNDFLNXU3pg68en071MiAo68WRpfVvVZ5BJAMUE2C0AYyF7MlEgkefwl808j1TM8xObgeX5snxzu/yl6A/E06pjGL/Cb9l+F/fvFF2mehDY3PBPwHWBKJ7+3TJjP5sy3f5ZCeAw6OYjehbtUuuLLZjz8cAD2GZF8Gz0zOH0yCO5obgDbJ8X6bxerTK61t+SkY6ZcNkc+wVapGyJxiG+6JjxksNLLpRXKudncgFk6N+pdiZcmIZiOEDmADLU2xSqPrCKL5rfV1uldgobdrRePSpzzinFPQuxnYHSfgftd7iTyrMsY9EQkhwFnAIqFCqp9hggjUdHyu/SIGlZexXOcpLA23etV9KDUL4N72pEdo4Pt8Xh+6McG9uBv9TWwd34F9s0S7BmHdQcVPogp4OiHCTc1kdjGl9+Rmt6YOclBbG5WXGd0GpbuNcE4cyDq6sIWB86tRT+kZy8D2v91sIdNB2y0AasMzg2Tqrv4unvV6QOUztWk0EMK3KSgQauYkXHXGp0dOEeCvW1y8pc7+AokdCCQsGBC03lsB/vsqpbBtamublJUTfPqlE5/ylx5mO/CAhpUVF4EvoY/ErD7MEygPZNIaBmuRHnrR+zlCZELXbi0iucFsGWQ0v2m+JQWsYtxkzG9Q1fIHwz2As5DhoAhbJwUqY38g0nh893Qxs5zEUtjos+L+j1xfhiORBgmqdovSsGSDEoAaYEN5YPsHTKa4IeeUm4ckujjx8UeDl4i01NVK8liQyiyLQdmWgLAXpdgP6pOL6tmOX4J9g8D2B/CAPawWORHFuyB4ANBvYD5OiTUZrH2AfVXwzOnuQlwqj5mr9G7TA47FhvPZHgE7POA1oN+LJLujXG+7zn91sGJE7ymxUNzfUbxpLaqtXyJIqIEdNSgapYZYhBA8I3LEFpGxHfx1Qvil9Wo3R3U6qKFflQyLVz1qfmaJpKYgRgKAyekrWFLJiYudlGbl1qDqHhU4syX1Xt0WXxIP7mOt52svxuVGncDkr4g2fOHg3389K+D/RYZqdDxUxNBWsTOx5TrhqdP8+sQP+ohhfV658nGxSO0s32oyMVy/UbxtEj1Mvy6KVJwisraswBFo7ex3Q/Gr6zPlHuwrYaV1pqdpsc9O8VKTDAhRBI+DLcHl8F7J6u+dh6IMooZMoWyjn40Jz7AbZZV0QIntwzUuv8pc8VhsQdx2CcYxabsUkuwB1OdjsEeWkh6UrS8Y/5tZPj0WpiCyR+k9LgnPmcn//Rx7bph6dNdZtEA3GNepHYdXaqLlDykAvZJsF88J+T+Btib4iuwx1zZxFdMTlzsJ0XVzOKg9qGJk59L3q2IGCxsCfZZvisL9pAoD+wSoDOiOiRx8FSM73s8c22T2ttFCmFqHJXPiHlX4XcR07BMcP6WGr/AZ5b+Kjq4VTSbAHsQ345ki5rKbjfcKFlC6KhTJBamAeYB0EKXcRrtCR/SWOkrsH/rCNi7jgJ7g+vyOxJZ3R+1ZiQnR6Hxr6hwQHx+RpujXu/hIEXVvBAiRRK9H8pcuQ/4EhVxE/ZTEAuYJk9vp6uuDY+sMTr5kd2LSgapJywIj9srthpcxdiU5D2ci2SKgdSUQFKfIVWFgBSMYgi/4Tgkmn8dra9Dnb3Y4jfLmjKnvIkeVSBUzIQjZfuOcdTP/GP48qcN9pTAKEzWDcFI8bZPyKtzw4FarauH2AK4yC8tG2H6C1x3CmrRD+nZfy+wZ2DohhjEn1AIm2Eax0hhifVsyfSI06N3dpF8H8kLsAKHUlLNrJUk1wWJ2kWTk7/cyZdhoQBBigUVpiJCb6FHxscv8qMKiOsg+SOSZy42n1R4Qt6T7ZUdMAFHLnmrYojn4lBia1zdylbeEBrn005wUquH2GvM8vGRC9ezJYQnCU93GNv8g8Fekh+GILAxKTyzm6+9uq0+qJe5iaW/yKnRS66NDN3LvzAp3GySvJVjNFI8C6dpgGUYqJMbuqmIxAb2wdXJQUGzzEULK1GBRy+5MtWwm2+gBP65PMLDCeF7gz0VCJIuAcUJNTQRW8feuzLaGNC7uIjNi4u8xFandrs2MWoL0Lbal2CvC66JzB624opIoM4s8zGLlxQ2qH1uj8zZJ8AeUbIIkEgsc5Y7+IxAh2G2iUMvGA+OTJ7vxnYnfBPr8MTJf0ld3yb2G1yXWXlEF5nV7N3J8Us9YA6T76L5Q9Mnv6jdqYNeARqUx9p8JO0qR4WBIAF8gNFkKAmP9S86fry9sv8+YG9ipnN1B1v+m7bGwUrvWlThx3Y3tgTUTgGjq4NAjlxQK50ZrlqOXzVFUs5Mc+iUwHCdqbLYP8ijg9VebmT1wnK1NKqnvIDui8ABUTfgPzAxDL20b+lA7oBRtMGhX25QStM8/Ir+4IjUef1owaUQdmwdlTz7uczdMdEKKVEYMYqwfPUUkfpA0vjfAHt5CIbKDgtTE/FtYsWsiKPeKHWx/HrcaXrEsZg9Ojfqq1e7BUzQWzygXbWHbzFlw17GvTNTKKvIW3PCzoBRcnRl/xXYc2pydQtfOTV+qU9qPhzUNip65qvxB1URBxm5xNMszGc/I2ixEzAagIOASZmpQCXw0Q2JpqBRXg0mtQU+vcvlkYYtZBXwF5Jj+DbYe1HpvGRjSDQToXBpFQcvn1TAZRWB7S21o8BeutdBdW0KAqQRNO/lWEQ2uuNIZf+vgT37srqQDC5CXDNFuk3s/Vv69hHRn3tQuZPbnbzAj6yXxc59Gz0e4QdNniFcFgccG0Jp5XsfzVxXn+4aMIp9uDhglo5P9H2DPBUVhzGRElqgJLA80ctpD5gcgLUBoZ9waoASUeGpVWzx1PilNXpFwCyq1ypGRc/9AD+n8win4CgOGuIf4cdPGeyh+wLlINxlBHTBKMSbn1fvHRu/wIMKwS2V2C7meX25pYpZPayw1ij+AT37fx3spcZddhngeC7BixoCE4pYnLb+w3hiVOgiP5GW7KTASS39cK6T2ZzU6ibFU5IX7OKfEJHO6mWwMFrFjgWhkQO1HlXMWsVyfaj4itigzXQ55kZ2C/jmauTSfQ5YOaBtIQWPm1Fx4HXjwYb4GbJsLfIR22Ct5xPJG5PiEJBsHSHADwb7bEuFwy1HEUetvPnh+G+bEqd4UEk1z/HivBHJM/+m397C9iAYxQGNrqAc2ElT5kfD/A/jwsAMwrxbRfNz2m0jk2c4SQH42pKCgemT7k/+OsIPQQYHTNdAhJ/MIvt+lT0F1RA0CwBi4BiP4vzga8ZjYxIX+cFF3+ZlBQ6c36ie8qh2Q6vYw8CGCAgbQ/CUiH7MnhkW7xMANMr3oaKxiQve0Z5JCDAbgZeTyRPUEWnV1+RO8tczGUnz1FryybzIgIBRDiMVLG+AXvKbeN1a+qEKuThwWNRFcjV7d0q00m+UQ4Ahyx+SOvVF9R4N0hAwgDlszN9+GqiRQTwNBKYBwS3AY8g5uW8ul//lzz8E7EFCQ5Ki9T3y1IxY1cB016Be7KIFLmKpptZ+EBVhr9HKZ4X7L8cvmyIOijpwuYXqXDBk4Mxa9t60xCUu09aPwbyo37DPj9Z8Lv6JhGJyNQMnVARQiOWCMQW8g2DlBgGDJlM2sY+vjw1rULpWkdxKkh8wKmZFvcvJm9DTBS070NFS68W+A+yBMgdrBUK4ERMH7kvPaUh3c5m5XtMySOl1Cx07ONnHY9jqkX18/Kx38F+jIoTBwxVEXRyGwdOryJtzwo6AYT822Gtb+cppMFdZdinPdZDCMbEz30g8rAkp0INQFjjPwwf8HwU1HOjLYBFSTkym7RMbn9R/Oy51mhvDbK2D5Q1Uet2f/FWI74FjjfyXHYA9LpmTrG8VuykzGCwPhCFHCsHAYQdrKbu6TCEn7ZDU6IGAAN4saQkhnyVL4/8LYC9l1XB7gIgEDiRwyANSFvPMbrHmN63DgqkubgzOpJU0N6h2viYyZCP9p85jiOkYJAvE5EZaJD7EL42PnV+nFAck6eU3O81O+f5JX0iARgcmbDGMC5om3AIyUBIKL6YKPSN0lZugehZf3JaZMljt4cVFTmKpVyvmhwaupx8ZLMmJQeSK/F9uj+Pyr3/SYA9KIZq1Cs/2jHWe3s7W3pKYMkDp4jIt1bjwIpbXTxQ5WLGbFgZR0X8D7PdlvfEBfmT9JDcvuPNBDwRDqQT0t9o+vuPe6JVNiZOC2ObDliqa25/nO7jVAZmnxVOTv9zNl1FQ0hKEcUYkVtG3Z0T6u43Cvvxn1bxgSObEvxq3RvgBIDCzRPe3PstkkexALCfg+2iYIrWVfTwjVO0zwJDHRfNrNNvlkdotYrUCEXjw8Y11+8PBXm6RUApQ8AJK8djH7PUR4Qt8WrkH5fqErYaWjI6f/6x5b7PYmIGga8XkGmEQQUGoieE2MzhRDRY7KLa9bjw4NXZpnVHmIzaIgddKpoQcH+NXVZ6StDoByTHobdDRlX0VyG3sQ1K9H05IGp9r0u02+yseofGzkieQMEG7V5q/KnvE1vvTvxqaPtFrWDy4wM0K3aR0UsL5AXopw0JA/xITcRpi++6KTK3Xyv3Y6sPWeqPTvLbALrHGEJms0ExqBrMiuewbcfTndhkUFlqr2PNA/NdNyV5OVOCkOT6UPzJx+rPaPRERMv9fe98BHWd1pm3cZBUbN2yqTeh/dgl/SEywLWnULbnLFZtiMM2wIRAMGNsQFpKQLLDElEASyJ9GAqGFbCC0LARCd+9FVm+j0fSZr972n+f9RrJszzibPbPnjPdcne/IM6Px/e733PKW+77PS4XLLBXeKN5aGSyutKEqFYthC6LnvmA+GlZdloiTQOo7B+k/EEm9QGKxAzVKWoKZEmRkSE3yIvWOGOzMbwcK+2IxrNoeeVO4uEPtgtGb4QfGkxCGSjaqrY+Fbl0WPLfGLprOh3yDD5oiB10ih5W4BTOME1f1Tv3AfcFSYQoa99iIuRKuy80muf2HPdfWRieWwAE2opLlzY5PuL93+Q7xfq9sdkWEywQDSVwS5pq0bWmYMmGpZDdv3Cre+n50xaLY5JlsVBXLK7cL66In/zC56qDcYUkDUgBKMFy7XMq4Cv9F/DblxpdD+s/sKV2bg0cJ2efClOE3nV8s672g2igss4eU8RGL3LPBFejmzUqOWuefvYN/lFAJHPOmvGspYX9TT3GFnV7YC8lNZeyRn14XmOZzR08RJxSz4YvDZ/42+sOkDDBhkIoG1hpKuiNNiKPsuok62tGQ6mxQG39nP7gicFGNUVDCBiMSgg2/OnLxm8hU7HC57bEzHS3sK5zCb/VWdqvdlEGHOAeB/dNEBDr5Vyh1BY6WAReyAATI7Gzy+nMboheZEfSTOrP/k/PruZHJZXx4Zjf+YcKefAcp1VhAhIfecn+3svfrdVZBGQJC80rswgWRc59J3NMpd9sijqwY6DrMVlaz2PG93qvqE6eVsbzpctBUMWSWNeEWf/mb5rO9qjGiuhIyBB5Mqu4pbcFMJi2Pd9wJKv8O+cmG2J310bNqHZz1TBEnzI2d/pP4Ax2y2ZGm5A6y+4/cFDPM+Bz7+H+7sEdVCQqxpLrvtjTjMvoJe/2mUEWNNaaUD53GkbJVygvLkcqZv+ofj8b/u5b9YcIehh35GSniRVDWio3yGPGYCm/i79/WNbcuPsbHB18iB01RJxQrMJb4WMF14a82yE9cGWPStpXVrZqeNe9bEr7Ax4ZfIgeVuYXX+y/92H7FUtG05jjNOoSsUYgNnLYwECWmeafcuyF486z4RFSCYUNmsBELgmc97/y4B1FFWLJHzNj/lrCntURUc5B5lD4Gj67cdnfoirrYqZU8fzrM0yEliYJlgQvvD137iftGi9zRpQ6EVUdc+WOqO6hau9WBZrntI+elR0I3XhH551JUGxpS7uRX8MJ5sbMeC63ukLvBaolzG1r7aYW9/HvCnoI70U+Bwt8CW4FtqPhW/vbq8Mw6a1w5iAoKSp3CmbFJ9/Yu3ys/sKmIuykTO8SHN/inlRsjyp3CKqdgUeJLP46tDqpGBAfgZMEBqy6SL9OFzyHOhOoTSiOm/O84v76295IKswgcCWzwDHPc+ujy3XKjAW4A11KhTeKdlcHpFU5BsTjBx/IWRM75qXnvDvXhAbW5Q+1vU7va1M6jr3a1q0Pt7VD7AqqpUzU0qj0xHrQwEzJ6/o+YAN7bI4W99feFPTZkWzmMh1TPdvHu+vCCuuT4ae6QqfKES9Sgb8hhJQhrH3ldcOp77CUDwh5OIETa4ofb3AzLro/c31/dPdVn5RfzEcXu0FI5ZG7ypFX+8t8l/61BftyjGntVW0z5ac50BlRDi9qyW33wsvPo6p6a+sjpVPQs3+cOn2GMuqbn66/bz4aU3wEHqqsQIkDUiFLEVXCgsK8cEKAnhLAUItcUgu4SB9WWW7tr5kQnVLP8S8UJ01BnNr/CLVgYPuO55Pe6ZZMJzhlUciSrdYCwt4rSWvYk7BN75Wcre6f52KhL5CCfGDEnPmGDueqA+lur2tKmtrepne1qd0fq2tkJAt0dO+Vnf2Uv/T758D3BJYt7z640i0rdIWVsaI1dOC982gOBK5vF544I0ymPg0pFRzLoDat08m+JTPlCvdgMOt69bWp3u9rXqnb61d5OtasdNz3y6lL7A6rJrw50qd0Bta9L7WlR26PSD68MfgYK+0nHFPa0jxJG3uJIzTpoNCwpebNs/nH0jqXh06qsEWV2fhnPLzeLruuZ+p/ObyKqg/Jgac0rN6YCf3VevMY/vdodW8wHT3WHFDsjauKjrgp95YeRFa+7P96vPgrIhoToSMrOuOqOq0DAbfOrAy1y82vmT2/vXbQo/OUqu6icD5+OCkCjbwpUf+S+GQNdLqghKfMx7ZrI9Q//1wp7kORD+/U8SvChEWOzbXErINufTz66LPJPlVZ+mYOAuBKeV+YOL3NH/I8Le4hPhE8xygJBDCny8WxTmXER65Gd/2E+c2XXVyqc/Evk4EvUoBI1qFgO8vH868NfOyA/J7pKO6GijXLrbZ2zZkZOLWMjiuXguuTEB7qvaOFf2DJB7sK0sgS3hneb4olx8CRsDtaqwAfsN8sC/7fMLPKxYRVsyGx77Jrg4ka5B6HQ2RH2OGpniCykArZk6FjMjsnIe+7vb+yunJE8qYznl4LPuLA6OXq2cerl/imrg/Ub4rc/n3j4leTjzyceetq463vGNTf31l0R/NqCxKQap2g6H1zK8ypYUbUx9pbe2o38zbjsdGSSgbueITSYkpKOtOz/nrD3NinKj3SR+IAUZockTefL9hPLwhdVuCNLnbxKt7DKGLUsdP6vzHu61O6k6g3IphesDfXRc0vd4aU8v8oqvKrnog+c3xoqgKpZ5Jb8e8KewoqFY8vofvH5ut7lMxITUUJUDq5wi1ZELv2z+8sEQrJBVLJRvH1t8NIKG8Ie5yBO0ZLoP13lv3RZ99eu7/Vd7y85+rqup+TanuLrAtNWBr9+U3fpjT3F32qaucl615JxSqb+B3ar/4awp0p48OzY0oqo7rfYr1YGp82wxhLF0AnT5FCfGFbl5F8duvRd9mpCRYW0sD7w37COXckSIuSXu54MrquNT57mFpS7BcVscLk7tDJ54uL4+Tf0lN2XuPYxc+2vk//2cuLxlxP//mxyzT2Rhdf1TlkY+xLIDJxRPpY/jeX7LNTjeSa8vl3usqWJzGlQuyCeF+Y9hH1PJmEvwcRGlaXBlmj1qs4nIquXRc+rsVFGbwrGIq/GGn1195QPndfiKkjh/f3CHrWJP2X/saqnpCLjmT2zVWKP/PSa4FQfK5wmB5UIFEpYFjr/mp4p1/m/cX3PtOt7Sq73l96Aq+QGf8n1PdNX9hZfFfrG5cF/XhQ5qy55cpldRMUbh1ezormRSbd2zH7PfjGsOjm34O0GjXQaYV8ihtQ4o5aHvrqyw3dTd/XKnuLr/KUrA9+4qWvqjd3F3r2O+H19wHdjT+UNgbIbe0pu7Sy/raNiXdvi94wXDRX5h4V9n1lxSNjTK86lIVhSGXvFJ3f5Z8+Jn1xhFfnEsBJ38OzoKfeHr9gu3kuqMDyaFLlgq2SnPPir5MNLe75SnRhdzcb42Mjp7IQKXjDbHr8weubKnku+G7vyZ8ba3xsPvWg++mvz+xvsO9bE5t8cuHRR6Owae2KFdWKZNcLHRtRYJ1/dc+kr9lPdshGSHkefOJH5B71g/8Cy+h/96vEq7F9MPLEodGYFR0n4OanUu8Oi8ZEPSfnsIB1TnDEQPVio8QoyxX184wPBFXMSp5Y5YLOZLoaVcpywruopa1BbvDySlFWB089jGD0QhnQYh9OyBErc/pRS70aU8CEzzHEPRlb2WfYIGSPbmuFUkWx6/KKjNngPBU+IaLPc8u+RW2ZHzyhx86fJE0rVoBI5qIyNuD405YDcZCvTUEZY9Xxqvb6yd3pNcnwZ5X8vipz9vPmDsDzgqIRDnMFHm44IscFRGLLdiT4EeVjEN2k1ys+/1VNfk5hYxof7xKAqc9gVPRd+xl+3ZZJoxfpWIc1EIUVEdT4Qvro2ObEcBSgHz0iOf9y43a8aKP0n7XTFvRgCYxRt3PBrgtnTtSOy9Q/xp1b4p1bHRxfbw8pRYbOows5H7V174pz4GfXhsxcHz1scPm9h/Oy5idNLE2NL3FE+O68KBbaHljqjauOTVgXK37Gf7ZWN7aZ4qwAAIABJREFUtuzl0uQMQXyI+8dZiSBhv+c7vRSNzwdXiaL6yBnkxu9wQarT773w3PgSh/2gI6VFDc8u8nMcZZvS3CM33xtfUZ08CbCL4ZVs+Jzk2Nu6fRvZn0Kq9aD4dG33ZTXJ04rF0Kli8Ax3/OpAXbPaaMkIHExw5AoiL8s4nTCXwCUmmbJ6VMvPkt+bHz+nxM2bKk4oc/Pro+c9FrktjPgpK6EiX4g3rwteUk7MicXihBIku4+uMceU2nkznBOrrSKU1j3yKqqyR9fYJ1a5+bXG+Gpr7ILAOf/pvJCUvVAC/5EfR5lbxLtLQucQReMwosv13PhOpmYQkQpcUciVSdYpG5+Or18aOneGWVjGhpYio31wpZt3ZXjq2+wPCRUTqGuCNAcaSjhr6GC+fZ/4fG1wxZzIBbXJidNYnk8OhpLqFhSbI2clTp0TOn1h6Oxl0f+zKHzuvNikGcaECntUGRtRwUeWOgWgiDbzF0Qu+Pfw6ka+2eVRUCoglB2cSJD0KWHvf1c8Nz862SeGIc8eln1dpzoohd0v7InHhiVl4k3n51cFL6w2R/rE4Cli0KVyWF3ipLu6F27jnyKBQiF+myx7qURK2N/UU1qJ1LshFU7RzV7qHaLxkVcs4IuOQdiHpvp4YYkc7JOFJXxITbygys6vtPOrnKJqZ1SVNbKariqrqNwe7XNG+pyCUmu4zx5WjJqNhVMRxj+sKjH6quC056JPdMimOA44BDHbIhqFMcevWp9zH5oTO7VUDKPqEkPKZKHPHllljJllnVTuFJTbJ5Y7BdUWNNdKq7DSPuyqsAtxX3vsdPfEEruw1hw1KznqyuCFf3Z+YyLEDyEzfWf2nhsf23W1U3RNcOpe9TlOT7ANUACmx3w6wEjBLKJdTLrMFY6QibDsetH5CbRtawyKAbIh5cmi5eELf518sFs241wShhO2d1PEDorNT8TuWB65cGbyjAp71HQxuJiPmM7yfKygIjlqtnH6gsR5iyMXLA6euyh01ixjcp01ZqZVMMPJLxPDp4OKNK8sUbQgcMHPIve1y11MxnGggfgPB4v4uOTUUceTsAdjM6KunIT0vxR/bGnggkpWUGHnzY9M/FHg5i6535EWkmspSAdaOsYEgmqA5EPGipAiLkMf8Ze+6ffVJkaXOsPL7cIKJ7/KHnVTqGa/3GQxw0IwKmVVobBJ5rEl1zRFk2FjisrYH51fXN170UzrxAq7cH78lEeC17eLPQgGJrIRErX9XcJi8AJfEEyF7BwzKUM7xIff9s+pMMZdKob62LAad9hsa8y1/ov2y89tkUxKOyDbfhS6c17kbJ89vpiNqDUKb+7wfcRej6peG1l2mXdtktop0Y1/KBZGuX7Z8Hzkh8sCF0x3hk/lJ1S5wxYGT388cFtUtnKZ5NwayJ0rpOhR7d8JXz47NrHGHVNhF9bFxzxm/ku32ucKK9NGTxRcqYHo/w6ip+xkl2h4yXryxq6y+vgptXZBhQ03nQ9qx/AyBE7CZVfGR+ATPmyqO3gaH1rChoNd2BpdHzz3zs7F77m/75EtYKf3fAcYcYp9xp04k5EWuWVdaMkMc3ylNbLWGLskct6T4dUx6UeWJjlu+7tELwCLN2foLQaHsgBYr+p5j796k7+yLjm2wh1R6RRVOkVzEqd+P3T9XvnhB+x3K3ouqTTHFLMhZW7e4p7zXow80q72mcqitDyFs0+k7hxD2FOkL1LGjZjq/Ji9dkuoqtwYNR3sOkULwpNW99Z9yt9MKCOh4pv5O9f1fr0CBMDwToEpGUXH88vY8Ao3r4QNKeFHX0NL3RE+p6CED62wC0udormRye84v06gmoB9OAh/552D3L83FkTOmmEVznAKaxLjbghVtKpdXJneojv6/9tIvkSmhYN/bFcmd4mP7w0srY+fVmGPAL2Si6on1/RO+8B9LSFDSDQlPqX+anZEVmEbMrpZfPBI6PbL/RdXJcZViEIfyy9hQ6fzE8pZXgWKo+f53OE+nufjw0r4sGI+vASwFPic4TMSI6/pvehplHj/3HBCUD5S3e1bFpBRcOP/Sfy8PjKpLlk4k+XPtMaujtV2qH0OhDFlwyAgjLk8yUTyoNx4a1dlrTm+wi7wOfnFbPj83sm/TT7UK5ttmcD5IU5uGEgmhJsUyb+xt27uLp9rjatyC+ba41f7q/awvzFh4lgNWWFmQkZ2yA+vCU+tckfDeyGHlXJU3CllQxHPiJDGwy9eUIor38dHlPPCKj6u0jmpyp44O/alm4IzXnR/0iIPglEfUTgWuGk5Q+6BMoKy7bnEQ3Oikz22hjKWVyLycCJOTRVDXQC1KHxLfChKb9A1cF5dKoZMZfmXuvlTnbxyJ7/czVucOO919qypIuCaAl0OM1X0DfdX9ZHzam3kX8w2J9wUqNwvtyRFwlYW6XCcAuWPnjIYG+CHaF1mKHub3PLd0DXz4qf62Eife6LPLJyVGP0vXdM/cP8YlnF44GTCwFln0hCRZrHzBWfDrcFZ80Jn1BhFlW7BNJ43XeZNE8MvZcOm87wSTJURVSy/muVVi3wfGz7dHlzFh9caRQsjk64LTX8l+ZMusd+UIS5NL7DWs+xIqqTrbW5/dtwIexp1r2q4FZOdL8eeXNZ5cbUxfpZ58uXtFzzdtiYgWkjYg88BHlxKUEkLvsD5n+GXjc8nH7nS/9U5iQmzkhPqkifPip51a/PiRrnTlZYlDS9Plyv7WPEYoHmRJOxBNRWWsbetl7/ZUr4gdNqsxIQF/kkP+W9s5TuZRBA1TpAz1EuSZPIiqlZYUdH+hvnTa/xTauPj6pJjZsTH1ofO+mZ7ZZPcyaWBpDW2+ba2ubNDkyvjk6oSExf3nv5Q8MZ9YjvqNKAYVGrbSvvsR38oFI/JwE7xl9taZ9SFT6o1xs02Ji4MnvPtg3P8bC+XcYlj5kP8tUKKoPL/oPPG5T3nz42dNitxyqLImc8k7wzJloFfO/pGaT6R0JUtaXbK1k/FWw/5V63ovGhedGKtOarCQW5VqZs33R1awobRNdTHhta4+XWssNIcMSt68qpA+TOR+3bzj4Ky3RKJo08c6I4IRWyWO+8NrJgdnjQXdWgmr2i/+Jme9QkyZym09tDTpelk30dc2g519TeJDVf1XjIrPmFmYkJtYmJd/IwbOsteSW54KnbXFYGL58RPrTZOnJkYf3N36RbnzYBqM5TjOl5OmIX6bAPA7Gu771+4kFF3RICsx+qQDRtCty0NnFtH95oXOfXqnq++GH88LiOWm9zl/u1fuirmmBNmWeO9a6Y5zrtmmeNmGmNnmqmr/wuzrXFzzNFzzbGzrLH1iZPnJSYv7/m/79ovRFQPP4aO2Ne7gf+6ytou/npl19fqo6fWxcbUJ875Zs+8drXfYebArw18naoJCJ2dOyLOWSIsO193nr0hOG124uSZiQmzY6fMC515S9vMLfZfmARp8cD/7r0mLng3IrsbxdY3zJ+vbp+/KHRBRWxklVVY54ysBFPFUB8bXCoGT3eGlLiDy/jwCpY/wxo1NzlueeTsNf65b7i/aJJ7YyqGpL50i0VKkVTx9/mrl3d9dXF48pz42PnR0+8IzPWrRhfkPV50Hmkt3BTM6lXtTyfvXhw9f07i1Nnx02bFTrmuY/pHzmumCFGOJYIhierYgKEijE+dv65urF8SOLMuPn5++Iy7OmfvZh+7yMy0qOKM68rEQbHx5vbqxYlz5sZOqXRGVdujqq3RM8wxtebYWnNs3YCr1hg7MzFhZuKkuuSYWcnR87EhfOmqrou/1VP7s+R9m8R73bLdFq7tcFu4lrRQNATB65JJJyw6X0k+vdh/YTUmzHg064zvv2ZYY1KXOaZ/Ls3E5EnNt1nW+Fp73EzjlJmJU2cmJsyJTZgdHX9l71f+ZD9lKD8MM8h7K678f7J/vsj/5frkGXXm2IWRk2/pLG9Qn1kyioRDsFIhH/DosaZPUNKMGAItJpy4NL7gb9/SXj0vclZ19OSa+CkzY+Ov6D770a5vHeB7bXgrXHBXc2ZxuOL8smUje/vhrptX+r82NzaxyhxJ3ogCpOy7KMFV7hZUssJyN79cjCp1R/rsojnJk1Z0fvkHnVd/xF/tkS2I5kPAjQNhn6raMcAQyNDp3Pz4+BL2cAAKZEeEP46/cV/TDauaau/oWHj//hV/bH02KYOOtEGPDzItlD/JVD4NtC2Cmdxo4Nt/5r9/fcuyNW2L72hbdEfLsscb7++WbY60bbgQhaAKV/ARZP4hdgtQ30pmJ6W5yfh4w4Hb721d9O2WOXcdXPJ812NB0c5RGxEZOxkEEjRFV3FTOTDNZaJHHHwh8Ojag4vu6Vq2NnDF3S1XP3xgdZds4VRZssH84pGGW9a0Llrdtvyu1svub1z+vvl8QPYg29ROmxufufdQnYUlk72i/fneH61tnX9X69w1LUvWtVz9yO7VLdGdUia9E77+JqTkljR+3/rE/XuvvLtl8d1tS+5tvOyN4DMJHjyWVtT//we8kAo2L4p8y2RI9DSJ/Z/wt/5f4r51XbVX9l64KHT+gtA580Jfmhc+c174S/XhsxeFz70i+OVVgSlrOut+Eb13K/+LX7Sa0kBuNM5c02k5EmcXvbLzN50/urd1+b3ti9cfXPLggVVvB39ngkggVQRzQKcyvgS7luuYzNrNd27o/Ne7Wpbe1Vp/Z8vCO1qWPNB44xN7v7Nh/7rvNt+4vuXyO9sWrm297MmmtX65N6FCCH3H/sAUaJTShEEcuiU8hC6xd7vC5QY3/pr44/ebb/p2y+Jvt81f0zb//ublL7c+ZssQF3aHe+Dh/Xesa166DuN12LW+Zcn6lssOXc1L16euJeta69e2z72zvX59y5K7my/7buMNO81PLWllWiyH+nb4K65YB9//4IFVaxsX3NUxd23T8g1N3wkK1Bs8/IuH3mFRUooE5fUbgiHbok0e+GXgwfVtS9e1LVnfsmxt4/InG+9pd/YiwJunEfYwxKWwXcsVdlQGD/At7/DnfhC84cYu3xWBixdHzlkYPXNB7Mz62JnzwpMXhM9aGD53SeiCG7qmfb/76ned5/bxTV2yMyTjcWkZwoRile7HVdY+d/P9+25Yf3Dpuo4F97Quf6r9XyPSj8M2MiaQeedKZJUwbqjEh86fHmi+dn3rkjWtS9a0LN5w8M4WsYsxR4BansoEgKgVzMGWtPY4O3984Dv/2rzsjtb5tx9c8mTLvW18P6oDwslEjkfbCbhtjzasu+vgZWubF9/eMfP29lmr2+atb15yb/PSI657mpeubb1sXdvS+zqWPdh51c9ja95kT33KX90tPuwWTZZIeBl5TApTMHANIuUWRHecM0vEP47++Z6Ga1a31a9pqV/TVr+uZTFNniVH/U4zndY1L72zfeHdrZetaVlyZ+uCta2L1jYvvP/Ays+Sf3ZUFFEWiHm0TBn+wnrnnqYr1rUvWt01546muQ83fdMvdnMVd5SB7BwE06cX9hKcjyg/Q7zLqNkRkt3vmL99sG3VutbFd7YvXN0+7+6mORv2rt4R34IDPEuIBHyyXHBbuqawoiraLPZ8wl9/zn1ofejyb/bUrPB/dWnw7AWx0+fFT58dmzQ7dubsyKT68PnLe75+S2ftE5FvfcSebxLbe2XYpHJ8Llh33D5/lZcjkG6rSTeRcuqz40fYUxg78UZwxlhcRJr4rt38k0axdT/7rIe3gCMJdEhwFiqmYN1n8LaAhAFtsKSMdovmVr6nhe9u4Fv28M8b+a6kTLjScQQ4tbhwbWUizSbjD0KoobpzR3HbkU5I9DbzbQf5Z/v45r18R6/oAmUcFZ7v1wyPbgwmrnATKhFXYfBbu1aAdTbxnc1i3wGxax/f0ch2xWUU1fKEbYpAF9/VzDc1i50tfEcH3xqW7TZ3XRiNx9hsj74tPpEoCO0azOwUDXv4e4380xa+t5nv97tNjoi6LEFOtEOTO5Ulz5ua+bYGvqmJb29l20OiDZWeM+7z6W+tlGJMcGYLbjvMNiWL8XivbD8ovviYv/Y+e+Ft95d/MJ98xXj8D9ZTb7g/f9v9zfvshU38zwf5F0HZmpQxA3k+oPryGN/T3AaxGzaTibDobGbbW8T2Br65he0Oim4Hhw4IWvwvOiTg3yUinAiPtfG2Jr63le9o5lsP8o0H+aYWtqud721i21v49ia+pZXv9LMmU1CSD4Ulw0ECJjI3rU6S6jniB0DtAbYlZgru9vLO/Xz3Tr59H9/Uzne2821Bvt+VEYebCSfSxhub+M4mvsO7mvlO72rhO9vw5R30X3a28e3e1YpvbjvAN+0T2xvx4otmvtViIRhgh0Y4DYpHfyRRzinezLc18c8b+MftbLeftTqcyCuP/jZ9QocsHouZlNLm3GAuMxzDz5pa+LZmvr2Rb9/DN7by/Q5HNVgmMxz/k34qmTRdx5RWSAZaxb5t/IP32Utvs1/9wXn6JevJP7KfvmI//Wf3l++zFz/kr27i7zeLfVERNLhhCdeQrgXGNws1INL9SMVNGWlkuxv51ha+rZXt6uDNrkDMjwCDIdXUpMrmRFTFQ6Kngx9o5tsb+KYGvqmbH7BEHBFdtCKhhsKp50phkz0dbuN7GvhnjXz7Tra9Q7Q4yCkFowAy6Ikn3rLtA3zvHr65hRBu5lua+S4a053emLbzXf3Xfr55P9/SJHa28wNB0R6XvbakIvRYHSZO4ijbwkvJhecPR8/ewaFriFAT29HEt7Zh8mxv4Tv6rzbcMXX13RR3b+M7vKuV7zjAtzTwHQ18217+xX48+5YWvifOwrCuUUIS9xLMifHeBr65iW/aK77Yzbc28l2MJyVzUW4Ox+DSESzDBEStQo8BHwWpZdKSiQBr6+D7WvmWRr5pP//sIP+8kzXE3BjYITlzKWSeOOyFJVhC2gmVjMtwUHYcFNt28483uq+/7z73Bnv6Nfb4S+yRF91H3mbPfui+uom9v09s7ZD7o7ILfKMOrD2PHIUYGkljJ/qKPsGfburk8GfHlbAHwZFLPKaIubOV4aqkEI6NkzO4ejxyOk+RRpHjDBsYBcJjbTnSMZUBwkXuulC6kyiBLCmQW8H1RsEyx0pBpiA+7zSHKeLeYpI5wmAi6UjHUMyBzw9hcFRAAos+w2QQUtgUXmfAeQFCS9egcDywfKMCI/xvVE6bU6KtzZC/awluC5kUxI5CZZ2QP53hFuk/9k4QwB0jLUtFGDFUOOAOBf0lzPrDjh7wCC7qYdnEv2u42L8slNnGcXP6W2T8VKIUBejymC1BMo8ntBQzlWnIaFIF48oflR0R2RaRHVHkU/UmVdSENmaSeWIJhFaAHy1zMLkkBngEYTFpOyrpwj8MVZ1kvEfi8V/qN4xzxBwhfs6Bc8gV3ObCdFTCVTGvWSYNlM1NjQiRN3qWHfxMtoBlf6zymHQerBwk+tsSSb02lwlbxS2MvgNGBnySBOEJwslwXmXDG9R/2TbYQsAZQuTw/b9pgBQVHiUWUhpfk8m4C6I6gyMv4xgabfoBpFoPcETZKiJch1iOYU5lRhPBj8gFAcOE4BCGXLiuQLUxyF0GEjTDwtk2IrsyRZ8gIxvaHcO4C3h3mbQtlUioYFh1h1RXUHWFVVdE9cRV0FBRQ8YTyk5ikkEtxBkwUaCTjz3lmT3qCalipnRdaWGyMUxQnNZxGxVkKDsAXPyUTaMQEYpIbRz/qbiNKjI2RftBjU4xynEv5xa6Am0RlivwNQPhh1g6ijs44sHm5aLWHJeGsizQORsC5984B3QlGK/TXBx+Dge0GZYFSmyaLbB8HEdajrQpAhE+BqLQp5qwcDTaUCtxeG9SkDnIeRxwMPRfmEjelXY6uegMasZ7D+6AKNChqHjKeyd2I9r9IPgdpK4ZFGJsW9KkEGWqpE285njq9BsXqDJIIZcSFWYtBLCilKINZU8mQavADEEkwjCTgKdwiREIUAvuKARVYiCkzQSWv6ViSRWOqkAYU6UtqFqjqjOuwpAFIAG0GHwJUOWgGNGyx9JH/zytrT+G5KhZk9sfHEfCntjQEECOBUPzlvZrqj7i7SFEJEllCrCnZhT2lEeNuFsy3G0LpUEojAbB8t6ZKUllCqyhqoiZ9kFEj1CEnSKKTpxRwZUNknT0heIGiN0FFFRQrDMLe+QGCmHjySylyKyhpZvAe0gIEjRYHXg04uOiCY6bgAGNgoCQpJRJxTnGPITlQcRjCICiBHObpAX0nb4EYVqKngsLscWeb5LKcsBVx6RD3ufM+3y628Ofgf0UxeMoHBrxtFQHHeUyBVawzb0lrQwqJe4iipGMIIqJBcEXlybtR+n9sRL8e8yG1xX0I7ASMBasL3iTlnC6vh39Gdw33qZMHlfSHohNC753otujJANonJ5FAH2RNCXY69hmqWTZsfJ2mARboAk3EcKp4CzhppIJ8JhhDoC9hNQUYiSF3QiZmPbiCgkAR1wII4a5jGpjNG3AJUzkMzYoBdLvtkcjkfoEMxIhD46jTK+KjAWmdPsY7Xh+FAh7EPmBj54L6C5EhQysaCZDIHMF8p+09xaoA+Q4qABpKo7weHhDhMuhyRmuNBzs2gZXdl/dVYgLfDVVacZRiL21BWK8saDS3sVzx7goHwATz0H5A8TQQdPANqEgKcHzCJceLXn0nUrwYTUKECuyFK+cFytM0wDcjiQFYc9yTGaysm0QWEMd9MgYqN48bS4gq1WmUFb/WqPqBlh03kXJDdgUqPCmw4g8g6qEgCiCyJkx2tggCH0XxxAwuh1INbDEU00kbIpUPgq6LC7oUoeuIyZS/1vcHZsRliqCUUhyM9IzkDUJeQmoKQ3aIT+eN2NpRXLcGgIVV6Y9FrVnvWIYHpkt7YSuiw3HRvICeIJBcETMPxYjHkRBagGpdNDuaDMm9RL95CDKooJ3tDPYNulzLrYa4hb0cgg8Bum+7eF/gaRX6viJxqfinDaIVqniGR2FkfSE6EvtIdh8aINDfjVmUIYfiHJkV0lEpTIbSjVZhjCp0DCtf8rvBYECuLUyNeQJ+76cLS7pFM/j9ySBgmwNVKkj1ZQquKS37Ik+itYkarB4/mL4HrBjSBsyEfdIWZZ4TGyLfWsYKoSnCtDiytDXY32MZ7Y9UURiC7o/BBuptfTbs4D7fuOJqIIMdhHvJfjajrHLZ7o7iUwQeGIUsDsnYdFCSHkPBZEPLhqKx/WGxxOl9Bs+E+KpFU4GQSWU8JQ5Ss6g3YxKmaZTDbyVnXHWYMdBqJWrGMQwbCJJ3gyPT4zGGWXakIOJ0YEaSJn+dLICeU9+oMz6Htl+LhhVbVcZLuIBYSHhEeEA8cQjPTeV5SYPC7GTYo4dcREDrjc2h/3G1odukF5Lrk4HBynksMw0Rpk+p1kN2YVsNWjJAh6FDI5xrxHQrHhmOWFDuVIGiIQ9FmGYv8hPI0ezRbS3aW4uSB8C0bTEOTdJZcr2gOKLqmUkxckpRVoydAjkQUB7QFA61BHYCdRzyMCj75HKp4W0cqg+iscxDE2R7oSYfHQbzPGQnjTu2EM8oQrxh1hZcPDCZsUywYymVUoymJGqgHB1aB5Y4BgXEMRyeA5gMtD5PR00Ee1zaqXRTtK333kbH3rgacd0o5Q4wyjj8b1m0TImLCCi8HYFalEq7o4FTAeRBD6e4Yi5hLeUJeLtMgN+e6cUFNtEGifNd3K6pN4iwsHCMxJ7NfQKZN8ijgYH9cImdxfR76TfF2nvQXSEsrGN0iZD5g05Ox3SqfA42DEAo02LkmpkY7l6WxPlOZHfyCbuSFqpZK+QagKXMM1hFIrAgUE/YnS2RbNjgE1/vJr1x5Owh+2JHQUZqyRoMOZUGM214KcCa6PHlefSPD5WZSIsGOjXFPssvexMSH6ElKAaAq1/CsQBs75Hf3X0huCdd2O9Ea0qyWKYI7ZF/O8I30GiC8g6iBabdusMMglt0cphwgEblKfwej0kNZkUAM9/QBlMmJQwNEHl7XmkSRugX2m7mvlDL7kbuxjCx1LHDbQDDPg/fWIeuzKYC7y9mtQN8nURh1HmhxvQ0sCXuDV2QWI+QgqFZ7bSvkjbHO2ONB7ka0kpNbTHQerBRsKogfo3nfjGXkEGD9ne2IXoFJUGfmA/vNf9z3j0n/AJCRVs2+S+ZqiD7U0jcl26CHU2UeEW+zYOdUm38zZxUhZJfSH80kgX75Y0J8GgTNaMC2Zc2G+kghIdGU1SweGrJ/8w5ir2pnRXvwp82As6IaWVQpkb8FjCOCcPRMZ+pQOExs7zM2GtkWWJCq3HOkfC7suwPB3McFqFKDSWkiSIn6Cihn0aSQZ1HZoxRhLQYBKkfKupaUTLlwRSap8gLRn2JUhX6D/AsqazPG/qpnls3ALuLvjZKAXXW3peFi68RaDHh1zEYhSCkULpkOoLCYqjRrjivcoqUNQoNgTTl+xM20HQACR0ygQnJYj2CajYtJ94gtRz23jWMLH0phtr0pg9090rWEMeR6J6xsSgk3OPPYJWN7qFkUgx+GJio2NeqpCnIuDRDrsOVy8OzSjYI9igTHhWiFOXHpUsdowxncuBnRCnpgzHT4gihnzFIvQGwqHG080x+oy4KYgdBG4/ODVJDsArg0IjuLAipDLJXCfKRc8MxBjRlPIItFEUDUVTafS9JYPtgB4eUw7RGPAP4ZiGzMV+48WbYZ6bkz5MM2Uy9j93/nAcufEhTftNTZqonj+ZUVoLuePo71DX+pIkMgCNbR3rzguHIZFB2wxmBtrAWMLp5Ukd7336pqgNT0qQYQjpQ9uZd45A65M8BX2OoPTNeFKJvui59cgZT10UCM5GABWdGtEJO1RxRtKPKFhIVfae+L85CQGEp7HAV02dOaKf/VZv6jlAV9AnuEjXPRZIR7R12FvcmvR3Up69k7F+paHvL94HeEcuP6Ie7fs+LVZa1Ie1O+ANDQ/B5Y25pxYN+ELqZf/djv6T9wkelGw+shVha2OKeAMLMElYAAAGJElEQVTEEJ/hEL8uRsrz4sD88/AkzbD/STPdIOXPoHvAa4BRhiSl+UxHhrQzwTKi85pD2B1qOvUUh+ChmdH3llhe0X30kVYKtlqypzN2KuMfcHvPKvRGkFZUJhMNrQBAKgqRUmNxZ097T7UDRb6vv9Rmpnt70oluSI8OyAin1P/yFgKtY3ziOSFSg4duH/bltDehFuDJIS4sGnkaCfoyaQJ4HHJcw3gn3z66TiT7ANSrwEVzhHw7fSYh9AQqxwKTH0OML9PEouH0vkaOAM/RQXPAa/DQmVq/YkpzknDon759s6J/W0q9oMGi8wdvM+n7e2q6efveoRU4oL2+IembRbRxeh9CZyC3AeYqInRpvqamLD0F1ED4NPDUUPLoPItovWj+0AI55qTxvoF7e0aTN4883wcQ8dYghX+mbHFvoDzoMZ88fKgFAtpTqOhcjt5j1gFhCgWhN97D902MgVB4U73vL8fVv8eTsD+ugNWd1QhoBI6BgCc4vL32GF/Tf9IIaASyg4AW9tnBUbeiEdAIaAQ0AhqBnEVAC/ucHRrdMY2ARkAjoBHQCGQHAS3ss4OjbkUjoBHQCGgENAI5i4AW9jk7NLpjGgGNgEZAI6ARyA4CWthnB0fdikZAI6AR0AhoBHIWAS3sc3ZodMc0AhoBjYBGQCOQHQS0sM8OjroVjYBGQCOgEdAI5CwCWtjn7NDojmkENAIaAY2ARiA7CGhhnx0cdSsaAY2ARkAjoBHIWQS0sM/ZodEd0whoBDQCGgGNQHYQ0MI+OzjqVjQCGgGNgEZAI5CzCGhhn7NDozumEdAIaAQ0AhqB7CCghX12cNStaAQ0AhoBjYBGIGcR0MI+Z4dGd0wjoBHQCGgENALZQUAL++zgqFvRCGgENAIaAY1AziKghX3ODo3umEZAI6AR0AhoBLKDgBb22cFRt6IR0AhoBDQCGoGcRUAL+5wdGt0xjYBGQCOgEdAIZAcBLeyzg6NuRSOgEdAIaAQ0AjmLgBb2OTs0umMaAY2ARkAjoBHIDgJa2GcHR92KRkAjoBHQCGgEchYBLexzdmh0xzQCGgGNgEZAI5AdBLSwzw6OuhWNgEZAI6AR0AjkLAJa2Ofs0OiOaQQ0AhoBjYBGIDsIaGGfHRx1KxoBjYBGQCOgEchZBLSwz9mh0R3TCGgENAIaAY1AdhDQwj47OOpWNAIaAY2ARkAjkLMIaGGfs0OjO6YR0AhoBDQCGoHsIKCFfXZw1K1oBDQCGgGNgEYgZxHQwj5nh0Z3TCOgEdAIaAQ0AtlBQAv77OCoW9EIaAQ0AhoBjUDOIqCFfc4Oje6YRkAjoBHQCGgEsoOAFvbZwVG3ohHQCGgENAIagZxFQAv7nB0a3TGNgEZAI6AR0AhkBwEt7LODo25FI6AR0AhoBDQCOYuAFvY5OzS6YxoBjYBGQCOgEcgOAlrYZwdH3YpGQCOgEdAIaARyFgEt7HN2aHTHNAIaAY2ARkAjkB0EtLDPDo66FY2ARkAjoBHQCOQsAlrY5+zQ6I5pBDQCGgGNgEYgOwhoYZ8dHHUrGgGNgEZAI6ARyFkEtLDP2aHRHdMIaAQ0AhoBjUB2ENDCPjs46lY0AhoBjYBGQCOQswhoYZ+zQ6M7phHQCGgENAIagewgoIV9dnDUrWgENAIaAY2ARiBnEdDCPmeHRndMI6AR0AhoBDQC2UFAC/vs4Khb0QhoBDQCGgGNQM4ioIV9zg6N7phGQCOgEdAIaASyg4AW9tnBUbeiEdAIaAQ0AhqBnEVAC/ucHRrdMY2ARkAjoBHQCGQHAS3ss4OjbkUjoBHQCGgENAI5i4AW9jk7NLpjGgGNgEZAI6ARyA4CWthnB0fdikZAI6AR0AhoBHIWAS3sc3ZodMc0AhoBjYBGQCOQHQS0sM8OjroVjYBGQCOgEdAI5CwCWtjn7NDojmkENAIaAY2ARiA7CGhhnx0cdSsaAY2ARkAjoBHIWQS0sM/ZodEd0whoBDQCGgGNQHYQ0MI+OzjqVjQCGgGNgEZAI5CzCGhhn7NDozumEdAIaAQ0AhqB7CCghX12cNStaAQ0AhoBjYBGIGcR0MI+Z4dGd0wjoBHQCGgENALZQeD/A1vL6AOwE4fnAAAAAElFTkSuQmCC;" vertex="1" parent="7">
                    <mxGeometry x="490" y="118" width="296" height="172.52" as="geometry"/>
                </mxCell>
                <mxCell id="13" value="" style="endArrow=none;html=1;" edge="1" parent="1">
                    <mxGeometry width="50" height="50" relative="1" as="geometry">
                        <mxPoint x="40" y="140" as="sourcePoint"/>
                        <mxPoint x="840" y="140" as="targetPoint"/>
                    </mxGeometry>
                </mxCell>
            </root>
        </mxGraphModel>
    </diagram>
</mxfile>